<svg width="2134" height="1130" viewBox="0 0 2134 1130" fill="none" xmlns="http://www.w3.org/2000/svg">
<path opacity="0.1" d="M36.5668 771.916C56.0528 772.255 71.8781 770.419 71.9136 767.814C71.9491 765.21 56.1814 762.824 36.6954 762.486C17.2095 762.147 1.38431 763.984 1.34882 766.588C1.3133 769.194 17.081 771.578 36.5668 771.916Z" fill="#0B2E72"/>
<path d="M170.374 782.924C170.374 782.924 229.962 668.586 245.864 671.391C253.411 672.725 256.802 680.06 258.287 687.399C260.126 696.911 258.888 706.732 254.746 715.496C246.29 733.734 223.628 768.438 170.374 782.924Z" fill="#0B2E72"/>
<path d="M245.084 693.297C245.084 693.297 183.02 778.534 171.205 782.111" stroke="#565987" stroke-miterlimit="10"/>
<path d="M250.492 706.783L236.296 706.55" stroke="#565987" stroke-miterlimit="10"/>
<path d="M233.025 738.122L210.768 738.665" stroke="#565987" stroke-miterlimit="10"/>
<path d="M219.84 712.611L222.114 723.996" stroke="#565987" stroke-miterlimit="10"/>
<path d="M172.154 783.046C172.154 783.046 115.693 666.682 99.7228 668.93C92.1422 670 88.5557 677.213 86.8699 684.497C84.7907 693.916 85.7668 703.746 89.6627 712.626C97.6332 731.229 119.276 766.706 172.154 783.046Z" fill="#0B2E72"/>
<path d="M94.145 704.218L108.341 704.451" stroke="#565987" stroke-miterlimit="10"/>
<path d="M124.606 711.052L122.024 722.352" stroke="#565987" stroke-miterlimit="10"/>
<path d="M147.765 745.98L147.186 756.288" stroke="#565987" stroke-miterlimit="10"/>
<path d="M334.011 718.673C334.011 718.673 338.664 724.812 331.615 733.823C324.569 742.833 318.772 750.449 320.996 756.185C320.996 756.185 331.665 739.4 340.164 739.309C348.663 739.215 343.218 729.038 334.011 718.673Z" fill="#0B2E72"/>
<path opacity="0.1" d="M334.013 718.673C334.417 719.266 334.736 719.911 334.958 720.588C343.12 730.253 347.405 739.208 339.439 739.296C332.007 739.381 322.938 752.194 320.759 755.432C320.823 755.688 320.902 755.929 320.995 756.185C320.995 756.185 331.665 739.4 340.164 739.308C348.665 739.215 343.218 729.038 334.013 718.673Z" fill="#0B2E72"/>
<path d="M342.692 726.524C342.663 728.65 342.396 730.371 342.097 730.366C341.797 730.361 341.577 728.631 341.606 726.505C341.634 724.377 341.932 725.387 342.232 725.392C342.531 725.397 342.721 724.396 342.692 726.524Z" fill="#FFD037"/>
<path d="M345.683 729.115C343.756 730.097 342.08 730.682 341.947 730.386C341.814 730.088 343.25 729.073 345.177 728.13C347.103 727.189 346.329 727.871 346.476 728.153C346.622 728.436 347.61 728.133 345.683 729.115Z" fill="#FFD037"/>
<path d="M309.032 718.261C309.032 718.261 304.217 724.235 311.016 733.487C317.815 742.739 323.416 750.554 321.027 756.209C321.027 756.209 310.817 739.06 302.323 738.672C293.83 738.282 299.603 728.301 309.032 718.261Z" fill="#0B2E72"/>
<path opacity="0.1" d="M309.032 718.261C308.615 718.84 308.283 719.472 308.048 720.142C299.628 729.518 295.087 738.319 303.048 738.685C310.476 739.029 319.208 752.153 321.297 755.466C321.212 755.719 321.127 755.957 321.027 756.209C321.027 756.209 310.818 739.06 302.323 738.672C293.83 738.282 299.603 728.301 309.032 718.261Z" fill="#0B2E72"/>
<path d="M300.151 725.825C300.123 727.951 300.343 729.681 300.642 729.686C300.94 729.691 301.209 727.97 301.238 725.844C301.267 723.716 300.954 724.715 300.655 724.71C300.355 724.705 300.18 723.697 300.151 725.825Z" fill="#FFD037"/>
<path d="M297.099 728.316C298.998 729.364 300.658 730.007 300.811 729.717C300.967 729.424 299.532 728.358 297.644 727.349C295.758 726.342 296.485 727.05 296.277 727.325C296.069 727.603 295.211 727.267 297.099 728.316Z" fill="#FFD037"/>
<path d="M301.221 755.069C301.221 755.069 314.457 754.911 318.472 752.205C322.488 749.497 338.896 746.471 339.832 750.934C340.771 755.397 359.395 773.391 344.466 773.249C329.537 773.11 309.818 770.375 305.872 767.944C301.926 765.511 301.221 755.069 301.221 755.069Z" fill="#A8A8A8"/>
<path opacity="0.2" d="M344.754 771.705C329.829 771.566 310.098 768.833 306.153 766.402C303.143 764.549 302.028 758.072 301.671 755.076L301.221 755.068C301.221 755.068 301.927 765.501 305.872 767.932C309.817 770.362 329.534 773.095 344.461 773.235C348.78 773.31 350.276 771.802 350.224 769.587C349.592 770.935 347.954 771.734 344.754 771.705Z" fill="#0B2E72"/>
<path opacity="0.1" d="M833.601 873.733C1082.19 878.005 1283.83 872.677 1283.98 861.832C1284.13 850.986 1082.73 838.732 834.142 834.46C585.555 830.188 383.914 835.516 383.765 846.363C383.615 857.207 585.014 869.461 833.601 873.733Z" fill="#0B2E72"/>
<path d="M796.56 255.784C796.56 255.784 824.546 309.316 826.671 316.924C827.223 319.036 828.449 320.922 830.17 322.311C831.891 323.7 834.02 324.518 836.245 324.647C836.245 324.647 864.749 331.821 871.573 332.834C878.395 333.848 937.568 339.767 937.568 339.767C937.568 339.767 952.596 340.483 954.488 335.175C956.222 330.319 985.615 305.156 1002.12 327.849C1003.65 329.947 1004.64 332.366 1005.03 334.905C1005.42 337.444 1005.19 340.036 1004.36 342.468C1001.14 352.023 994.591 367.171 987.912 357.562C978.526 344.046 967.348 347.604 967.252 354.717C967.155 361.833 951.882 358.922 946.865 359.835C944.124 360.335 934.687 362.614 926.525 364.609C917.051 366.935 907.361 368.335 897.595 368.789C881.437 369.535 857.629 369.975 849.237 366.718C839.105 362.763 821.362 361.584 813.766 361.252C811.247 361.149 808.828 360.255 806.869 358.702C796.429 350.454 787.64 340.392 780.952 329.023C769.372 308.794 745.563 266.909 747.367 254.926C749.171 242.941 796.56 255.784 796.56 255.784Z" fill="#EFB7B9"/>
<path opacity="0.05" d="M796.56 255.784C796.56 255.784 824.546 309.316 826.671 316.924C827.223 319.036 828.449 320.922 830.17 322.311C831.891 323.7 834.02 324.518 836.245 324.647C836.245 324.647 864.749 331.821 871.573 332.834C878.395 333.848 937.568 339.767 937.568 339.767C937.568 339.767 952.596 340.483 954.488 335.175C956.222 330.319 985.615 305.156 1002.12 327.849C1003.65 329.947 1004.64 332.366 1005.03 334.905C1005.42 337.444 1005.19 340.036 1004.36 342.468C1001.14 352.023 994.591 367.171 987.912 357.562C978.526 344.046 967.348 347.604 967.252 354.717C967.155 361.833 951.882 358.922 946.865 359.835C944.124 360.335 934.687 362.614 926.525 364.609C917.051 366.935 907.361 368.335 897.595 368.789C881.437 369.535 857.629 369.975 849.237 366.718C839.105 362.763 821.362 361.584 813.766 361.252C811.247 361.149 808.828 360.255 806.869 358.702C796.429 350.454 787.64 340.392 780.952 329.023C769.372 308.794 745.563 266.909 747.367 254.926C749.171 242.941 796.56 255.784 796.56 255.784Z" fill="#0B2E72"/>
<path d="M1230.49 761.012C1230.06 789.408 1218.43 816.495 1198.02 836.63C1177.62 856.762 1150.02 868.391 1120.97 869.09C1091.93 869.79 1063.67 859.506 1042.09 840.383C1020.52 821.258 1007.28 794.769 1005.15 766.434C1005.01 764.641 1004.91 762.847 1004.88 761.083L1004.88 760.989C1004.85 759.66 1004.84 758.325 1004.86 756.979C1005.25 727.736 1017.52 699.9 1038.96 679.592C1060.4 659.285 1089.25 648.17 1119.17 648.692C1149.09 649.215 1177.63 661.331 1198.51 682.378C1219.38 703.424 1230.89 731.675 1230.49 760.918L1230.49 761.012Z" fill="#65617D"/>
<path d="M1116.86 819.114C1150.84 819.707 1178.76 793.263 1179.21 760.048C1179.66 726.834 1152.48 699.428 1118.49 698.835C1084.5 698.241 1056.59 724.686 1056.14 757.899C1055.69 791.114 1082.87 818.52 1116.86 819.114Z" fill="#DCE0ED"/>
<path d="M1117.18 795.059C1137.58 795.415 1154.32 779.547 1154.59 759.62C1154.87 739.691 1138.55 723.246 1118.16 722.89C1097.77 722.534 1081.02 738.402 1080.75 758.331C1080.48 778.258 1096.79 794.703 1117.18 795.059Z" fill="#65617D"/>
<path d="M824.748 544.527L553.167 545.128L553.698 506.08C556.557 474.692 589.807 464.239 619.922 461.31C643.464 459.116 667.239 461.273 690.005 467.667C747.409 483.554 784.064 487.074 802.142 487.67C806.111 487.796 809.918 489.256 812.923 491.803C815.928 494.348 817.943 497.823 818.63 501.642C819.431 506.125 820.211 511.006 820.94 515.822C821.491 519.592 822.013 523.309 822.486 526.772C823.854 536.748 824.748 544.527 824.748 544.527Z" fill="#65617D"/>
<path d="M1038.36 764.716L474.24 754.872C469.884 754.84 465.629 753.557 462.003 751.184C458.376 748.809 455.54 745.45 453.846 741.523C449.728 731.528 455.761 725.303 462.155 721.702C475.235 714.414 485.234 702.828 490.38 688.994C496.629 671.742 502.877 644.687 505.763 602.295C508.735 558.45 525.295 537.038 543.017 526.824C565.906 513.653 590.73 519.176 590.73 519.176L819.435 524.955C823.48 526.831 827.214 529.296 830.505 532.267C850.636 551.154 820.59 574.829 820.59 574.829C755.902 639.579 803.289 707.182 803.289 707.182L920.327 709.224C942.193 709.715 963.662 703.695 981.883 691.962C997.843 681.557 1004.04 671.341 1006.56 665.135C1008.43 660.386 1010.32 655.651 1012.57 651.071C1044.16 586.569 1008.56 480.125 993.118 440.285C989.285 430.375 986.699 424.588 986.699 424.588L1023.44 422.557L1046.7 421.24L1046.93 421.244C1096.91 508.31 1114.73 597.188 1120.22 662.911C1120.74 669.103 1121.15 675.107 1121.47 680.869C1122.04 691.822 1120.31 702.764 1116.38 713.017C1112.44 723.271 1106.4 732.616 1098.61 740.476C1090.82 748.336 1081.45 754.544 1071.09 758.713C1060.72 762.882 1049.59 764.926 1038.36 764.716Z" fill="#0B2E72"/>
<path opacity="0.1" d="M822.454 526.701L553.501 522.084L553.649 511.333L820.906 515.92C821.458 519.566 821.982 523.226 822.454 526.701Z" fill="#0B2E72"/>
<path opacity="0.1" d="M830.559 532.186L545.347 527.302C544.606 527.293 543.872 527.137 543.195 526.847C566.071 513.928 590.884 519.344 590.884 519.344L819.492 525.015C823.538 526.854 827.27 529.272 830.559 532.186Z" fill="#0B2E72"/>
<path d="M833.124 518.789L445.738 512.176C442.652 512.124 440.117 514.471 440.076 517.42L440.076 517.434C440.035 520.382 442.504 522.817 445.59 522.869L832.976 529.482C836.062 529.534 838.597 527.185 838.638 524.237L838.638 524.223C838.679 521.274 836.21 518.841 833.124 518.789Z" fill="#DCE0ED"/>
<path opacity="0.1" d="M1120.21 662.734C1107 676.336 1097.34 681.611 1097.99 667.028C1099.96 622.921 1023.25 422.005 1023.25 422.005L1046.76 420.675C1096.84 507.815 1114.7 596.84 1120.21 662.734Z" fill="#0B2E72"/>
<path opacity="0.1" d="M1229.97 748.76C1216.47 751.677 1199.81 754.592 1179.27 757.226C1171.63 758.187 1163.41 759.094 1154.62 759.947C1133.63 762.011 1109.37 763.711 1081.35 764.851C1073.42 765.177 1065.18 765.455 1056.63 765.689C1040.63 766.123 1023.5 766.366 1005.25 766.423L1004.99 761.075L1004.99 760.982C1030.62 751.373 1071.1 725.247 1078.5 655.485C1094.69 649.702 1112.05 647.633 1129.22 649.436C1146.4 651.239 1162.95 656.869 1177.58 665.889C1192.21 674.912 1204.55 687.083 1213.63 701.469C1222.72 715.854 1228.31 732.071 1229.99 748.869L1229.97 748.76Z" fill="#0B2E72"/>
<path d="M983.686 763.592C983.686 763.592 1113.34 752.12 1071.36 558.591C1071.36 558.591 1134.55 617.016 1173.92 649.557C1213.28 682.099 1283.63 727.246 1283.63 727.246C1283.63 727.246 1240.75 765.179 983.686 763.592Z" fill="#0B2E72"/>
<path opacity="0.1" d="M983.686 763.592C983.686 763.592 1113.34 752.12 1071.36 558.591C1071.36 558.591 1134.55 617.016 1173.92 649.557C1213.28 682.099 1283.63 727.246 1283.63 727.246C1283.63 727.246 1240.75 765.179 983.686 763.592Z" fill="white"/>
<path d="M636.617 861.364C698.925 862.452 750.104 813.97 750.93 753.078C751.755 692.184 701.914 641.938 639.607 640.85C577.3 639.763 526.12 688.245 525.294 749.139C524.469 810.03 574.31 860.276 636.617 861.364Z" fill="#65617D"/>
<path d="M637.297 811.247C671.283 811.84 699.199 785.396 699.649 752.18C700.099 718.967 672.913 691.561 638.927 690.967C604.941 690.374 577.026 716.818 576.575 750.032C576.125 783.247 603.311 810.653 637.297 811.247Z" fill="#DCE0ED"/>
<path d="M637.623 787.192C658.016 787.548 674.765 771.68 675.035 751.753C675.305 731.824 658.995 715.379 638.601 715.023C618.21 714.667 601.462 730.535 601.191 750.464C600.921 770.391 617.232 786.836 637.623 787.192Z" fill="#65617D"/>
<path opacity="0.1" d="M765.088 720.045C766.053 648.915 708.999 590.236 637.658 588.991C566.318 587.747 507.7 644.407 506.735 715.537C506.694 718.547 506.757 721.526 506.927 724.475L764.654 728.972C764.903 726.031 765.047 723.055 765.088 720.045Z" fill="#0B2E72"/>
<path d="M760.334 717.746C761.263 649.246 706.327 592.741 637.624 591.542C568.92 590.343 512.478 644.905 511.549 713.404C511.51 716.303 511.579 719.161 511.733 722.009L759.916 726.34C760.147 723.499 760.294 720.644 760.334 717.746Z" fill="#0B2E72"/>
<path opacity="0.1" d="M760.334 717.746C760.307 719.735 760.279 721.751 760.104 723.671C760.092 724.565 759.984 725.446 759.916 726.34L511.733 722.009C511.745 721.114 511.647 720.23 511.618 719.335C511.548 717.371 511.523 715.327 511.549 713.404C512.478 644.905 568.92 590.343 637.624 591.542C706.327 592.741 761.263 649.246 760.334 717.746Z" fill="#0B2E72"/>
<path opacity="0.1" d="M759.987 723.836C759.975 724.698 759.867 725.544 759.8 726.405L511.732 722.233C511.744 721.371 511.645 720.521 511.617 719.658L759.987 723.836Z" fill="#0B2E72"/>
<path opacity="0.1" d="M776.454 729.577L471.554 724.301C463.502 724.161 456.887 730.368 456.781 738.165C456.674 745.962 463.116 752.396 471.168 752.536L776.068 757.812C784.122 757.952 790.735 751.743 790.841 743.946C790.948 736.149 784.508 729.717 776.454 729.577Z" fill="#0B2E72"/>
<path d="M776.493 726.903L471.592 721.626C463.541 721.487 456.926 727.695 456.819 735.492C456.712 743.289 463.155 749.723 471.206 749.863L776.107 755.139C784.16 755.279 790.773 749.07 790.88 741.273C790.986 733.476 784.547 727.042 776.493 726.903Z" fill="#DCE0ED"/>
<path opacity="0.1" d="M1099.51 545.737C1107.81 542.236 1107.14 522.816 1098.03 502.359C1088.91 481.902 1074.8 468.155 1066.5 471.656C1058.2 475.157 1058.86 494.579 1067.98 515.036C1077.09 535.493 1091.21 549.238 1099.51 545.737Z" fill="#0B2E72"/>
<path d="M1100.89 544.418C1109.19 540.917 1108.53 521.496 1099.41 501.039C1090.3 480.583 1076.18 466.837 1067.88 470.338C1059.58 473.839 1060.24 493.259 1069.36 513.716C1078.48 534.173 1092.59 547.918 1100.89 544.418Z" fill="#DCE0ED"/>
<path opacity="0.1" d="M1046.72 420.708L1046.44 441.613L1004.75 440.886C1000.87 440.822 996.998 440.45 993.173 439.776C989.343 429.877 986.758 424.093 986.758 424.093L1023.49 422.066L1046.72 420.708Z" fill="#0B2E72"/>
<path d="M1046.57 438.882L1004.85 438.154C968.21 437.514 938.882 410.262 939.33 377.153L939.406 371.607C939.854 338.564 969.908 312.295 1006.55 312.935L1048.22 317.366L1046.57 438.882Z" fill="#0B2E72"/>
<path d="M979.083 347.923C979.083 347.923 1003.87 361.39 989.205 383.192C989.205 383.192 971.209 411.111 943.553 407.955L934.294 347.141C934.294 347.141 967.5 344.713 979.083 347.923Z" fill="#0B2E72"/>
<path opacity="0.1" d="M969.514 346.579C973.477 346.794 977.347 347.878 980.835 349.749C984.323 351.619 987.342 354.228 989.666 357.384C994.029 363.477 996.563 372.291 989.234 383.191C989.234 383.191 971.238 411.111 943.58 407.956L934.323 347.142C934.323 347.142 955.096 345.565 969.514 346.579Z" fill="#0B2E72"/>
<path opacity="0.1" d="M1046.74 317.231L1054.8 317.372C1061.57 317.49 1068.03 320.227 1072.75 324.98C1077.47 329.736 1080.07 336.117 1079.98 342.722L1079.01 414.519C1078.92 421.124 1076.14 427.412 1071.29 431.999C1066.45 436.586 1059.92 439.096 1053.15 438.978L1045.09 438.838L1046.74 317.231Z" fill="#0B2E72"/>
<path d="M1048.11 317.254L1056.17 317.394C1062.93 317.512 1069.39 320.249 1074.11 325.003C1078.83 329.758 1081.44 336.14 1081.35 342.745L1080.37 414.542C1080.28 421.147 1077.51 427.435 1072.66 432.021C1067.81 436.608 1061.28 439.119 1054.52 439.001L1046.46 438.86L1048.11 317.254Z" fill="#FFE663"/>
<path d="M749.875 468.558C749.875 468.558 756.285 470.97 764.845 474.328C778.454 479.713 797.637 487.561 804.282 491.796C810.928 496.029 835.825 503.23 854.472 508.314C868.296 512.068 882.554 514.039 896.885 514.175C911.44 514.296 929.07 514.47 933.941 514.556C934.791 514.563 935.642 514.641 936.481 514.787C941.586 515.706 941.334 519.056 941.2 519.855L941.198 520.03C910.867 537.322 873.307 616.445 870.855 629.773C869.009 639.769 853.603 667.296 846.009 680.453C843.459 684.861 841.807 687.653 841.807 687.653L850.792 698.052L877.073 710.103L901.999 721.234C901.999 721.234 928.431 723.033 928.902 721.703C929.371 720.374 929.558 706.567 929.558 706.567C926.366 704.479 923.344 702.156 920.514 699.617C914.516 694.348 908.958 688.622 903.892 682.493C889.542 665.303 919.157 633.29 919.157 633.29L976.2 562.984C976.2 562.984 980.862 555.044 1003.18 523.346C1025.5 491.647 1003.85 473.888 1003.85 473.888L965.548 457.589C899.078 431.989 818.771 410.999 818.771 410.999L817.624 410.831L800.569 408.448L749.875 468.558Z" fill="#EFB7B9"/>
<path d="M918.57 710.938C918.57 710.938 923.279 716.535 919.692 716.965C916.105 717.397 906.728 715.243 906.728 715.243L847.51 683.509C847.51 683.509 841.079 678.885 839.429 687.707C837.776 696.528 836.75 695.668 836.75 695.668C836.75 695.668 828.667 712.041 836.48 715.595C844.292 719.148 891.32 733.491 891.32 733.491C891.32 733.491 959.632 749.874 966.362 732.462C973.092 715.053 954.941 717.754 954.941 717.754C954.941 717.754 932.46 712.023 924.909 701.212C924.854 701.211 913.716 704.02 918.57 710.938Z" fill="#444053"/>
<path opacity="0.05" d="M1003.8 473.89L965.49 457.591C899.018 431.989 818.704 410.998 818.704 410.998L817.557 410.83L800.503 408.447L749.859 468.561C749.859 468.561 756.27 470.973 764.83 474.331C778.44 479.717 797.624 487.565 804.27 491.8C810.915 496.033 835.814 503.234 854.462 508.319C868.287 512.073 882.546 514.044 896.878 514.181C911.433 514.301 929.067 514.476 933.936 514.561C934.788 514.568 935.637 514.646 936.476 514.793C941.582 515.711 941.329 519.061 941.196 519.861L941.193 520.036C910.861 537.328 873.298 616.455 870.849 629.784C869.001 639.78 853.593 667.309 845.999 680.467L844.977 682.241C842.998 681.885 840.513 682.538 839.568 687.574C837.902 696.397 836.887 695.55 836.887 695.55C836.887 695.55 828.798 711.948 836.617 715.507C844.435 719.067 891.456 733.433 891.456 733.433C891.456 733.433 959.818 749.842 966.552 732.404C973.29 714.966 955.124 717.67 955.124 717.67C955.124 717.67 932.628 711.929 925.072 701.101C924.386 701.283 923.715 701.513 923.064 701.788C922.266 701.133 921.413 700.422 920.509 699.631C914.513 694.362 908.952 688.635 903.885 682.506C889.535 665.315 919.151 633.301 919.151 633.301L976.198 562.992C976.198 562.992 980.86 555.051 1003.18 523.351C1025.5 491.651 1003.8 473.89 1003.8 473.89Z" fill="#0B2E72"/>
<path d="M708.499 169.42L710.543 172.023L711.686 173.474L718.816 182.516C718.816 182.516 736.044 188.244 751.166 192.025C766.913 195.95 780.364 197.777 769.774 188.86C763.199 183.331 762.884 174.26 765.438 164.585C767.579 157.142 770.595 149.972 774.427 143.216C774.98 142.209 775.526 141.229 776.069 140.276C779.55 134.193 783.394 128.319 787.582 122.68C777.945 115.929 767.94 109.697 757.612 104.014C745.17 97.4587 734.92 94.511 741.276 107.164C745.352 115.257 743.862 124.244 739.832 132.797C739.522 133.473 739.186 134.123 738.834 134.825C735.233 141.444 730.812 147.604 725.671 153.167C720.401 159.026 714.66 164.461 708.499 169.42Z" fill="#EFB7B9"/>
<path d="M792.102 374.718L801.264 383.154L809.768 417L794.816 416.739L778.59 395.462L792.102 374.718Z" fill="#444053"/>
<path opacity="0.1" d="M778.59 395.462L788.404 408.322L794.816 416.739L809.768 417L808.315 411.212L802.121 386.553L801.264 383.154L792.102 374.718L779.163 394.576L778.59 395.462Z" fill="#0B2E72"/>
<path opacity="0.1" d="M778.59 395.462L788.404 408.322L794.816 416.739L809.768 417L808.315 411.212L802.121 386.553L801.264 383.154L792.102 374.718L779.163 394.576L778.59 395.462Z" fill="#0B2E72"/>
<path d="M727.47 483.317C727.47 483.317 733.88 485.729 742.44 489.087C756.047 494.473 775.231 502.323 781.879 506.556C788.524 510.79 813.423 517.99 832.068 523.076C845.893 526.834 860.151 528.81 874.482 528.95C889.038 529.071 906.671 529.246 911.54 529.331C912.392 529.338 913.241 529.416 914.082 529.562C919.185 530.481 918.935 533.831 918.802 534.631L918.799 534.806C888.465 552.098 850.906 631.224 848.454 644.552C846.608 654.548 831.199 682.076 823.607 695.234C821.057 699.642 819.405 702.434 819.405 702.434L828.388 712.833L854.658 724.869L879.582 736.001C879.582 736.001 906.018 737.8 906.489 736.47C906.957 735.143 907.145 721.333 907.145 721.333C903.953 719.246 900.928 716.922 898.101 714.383C892.103 709.114 886.544 703.39 881.478 697.261C867.125 680.07 896.741 648.056 896.741 648.056L953.786 577.748C953.786 577.748 958.451 569.806 980.77 538.106C1003.09 506.407 981.44 488.647 981.44 488.647L946.61 468.425C892.339 434.947 815.531 414.888 815.531 414.888L814.384 414.72L797.328 412.337L727.47 483.317Z" fill="#EFB7B9"/>
<path opacity="0.1" d="M819.288 702.554L828.267 712.938L854.532 724.973L879.442 736.089C879.442 736.089 905.857 737.885 906.328 736.558C906.796 735.23 906.983 721.442 906.983 721.442C903.793 719.357 900.773 717.037 897.945 714.501C895.095 715.933 891.845 718.654 894.891 723.006C894.891 723.006 899.6 728.589 896.01 729.034C892.423 729.479 883.046 727.312 883.046 727.312L823.826 695.57L823.487 695.337C820.912 699.765 819.288 702.554 819.288 702.554Z" fill="#0B2E72"/>
<path d="M896.165 725.708C896.165 725.708 900.874 731.29 897.272 731.734C893.671 732.177 884.309 729.998 884.309 729.998L825.103 698.264C825.103 698.264 818.672 693.652 817.007 702.461C815.342 711.268 814.343 710.423 814.343 710.423C814.343 710.423 806.26 726.808 814.072 730.362C821.885 733.916 868.858 748.204 868.858 748.204C868.858 748.204 937.158 764.573 943.888 747.177C950.618 729.78 932.465 732.454 932.465 732.454C932.465 732.454 909.986 726.723 902.45 715.912C902.49 715.967 891.296 718.775 896.165 725.708Z" fill="#444053"/>
<path opacity="0.1" d="M736.422 129.301C744.253 134.784 756.198 143.453 766.494 143.632C769.149 143.679 771.805 143.52 774.434 143.157C778.34 136.031 782.731 129.174 787.582 122.629C787.582 122.629 727.974 80.5943 741.291 107.119C745.683 115.937 741.181 120.149 736.422 129.301Z" fill="#0B2E72"/>
<path d="M717.974 91.9566C717.858 99.9814 719.802 107.914 723.626 115.033C727.45 122.152 733.033 128.229 739.867 132.709C741.401 133.722 742.997 134.644 744.645 135.465C754.164 140.304 765.023 141.986 775.576 140.253C786.13 138.522 795.802 133.469 803.127 125.866C810.451 118.263 815.026 108.521 816.162 98.1167C817.295 87.7145 814.928 77.217 809.415 68.2181C803.902 59.2209 795.545 52.2105 785.613 48.2508C775.681 44.2928 764.714 43.6022 754.374 46.2835C744.034 48.9648 734.887 54.8712 728.317 63.1096C721.75 71.3462 718.119 81.4651 717.974 91.9296L717.974 91.9566Z" fill="#EFB7B9"/>
<path opacity="0.1" d="M727.686 483.291C727.686 483.291 734.094 485.702 742.652 489.059C748.117 484.503 753.714 480.111 756.036 479.335C761.079 477.632 777.614 468.565 777.2 465.886C776.783 463.204 784.211 453.096 790.607 451.418C797.003 449.739 793.493 440.334 793.493 440.334C793.493 440.334 805.859 436.099 809.005 429.913C812.154 423.726 821.641 415.871 818.436 416.271C817.052 416.025 815.735 415.498 814.573 414.719L797.522 412.336L727.686 483.291Z" fill="#0B2E72"/>
<path d="M690.551 466.624C690.551 466.624 711.294 483.917 712.161 491.496C713.031 499.076 727.036 498.892 727.036 498.892C727.036 498.892 748.276 479.659 753.304 477.969C758.333 476.28 774.88 467.2 774.464 464.521C774.05 461.84 781.475 451.733 787.87 450.054C794.266 448.375 790.758 438.974 790.758 438.974C790.758 438.974 803.123 434.74 806.269 428.554C809.418 422.368 818.904 414.515 815.699 414.913C814.795 415.018 811.931 413.512 808.294 411.323C803.831 408.573 798.181 404.853 793.574 401.712C788.696 398.366 784.972 395.708 784.972 395.708C784.972 395.708 782.83 395.296 779.159 394.711C759.358 391.559 694.84 383.271 679.526 406.336C677.484 409.383 675.939 412.724 674.947 416.237C667.895 440.971 690.551 466.624 690.551 466.624Z" fill="#444053"/>
<path opacity="0.1" d="M713.263 413.027C713.263 413.027 691.697 424.449 683.716 424.309C675.734 424.17 713.263 413.027 713.263 413.027Z" fill="#0B2E72"/>
<path opacity="0.1" d="M727.425 422.294C727.425 422.294 695.401 432.209 695.29 440.436C695.178 448.665 692.609 418.345 727.425 422.294Z" fill="#0B2E72"/>
<path opacity="0.1" d="M804.381 376.271L803.927 376.871C804.133 376.718 804.289 376.51 804.381 376.271Z" fill="#0B2E72"/>
<path opacity="0.1" d="M708.499 169.455L710.541 172.055L711.684 173.506L718.81 182.54C718.81 182.54 736.029 188.264 751.144 192.042C766.882 195.964 780.329 197.789 769.742 188.879C763.17 183.354 762.855 174.291 765.408 164.623L764.937 164.014C764.937 164.014 765.294 173.024 759.836 173.103C752.478 173.202 752.416 170.782 745.672 167.872C736.987 164.113 728.113 157.933 725.662 153.2C720.395 159.059 714.657 164.494 708.499 169.455Z" fill="#0B2E72"/>
<path opacity="0.1" d="M675.018 416.108C678.724 417.729 682.922 417.897 686.74 416.579C700.919 412.369 723.396 402.034 733.804 406.912C742.143 410.821 775.946 411.302 788.467 408.358C791.579 407.626 793.368 406.683 793.111 405.53C792.954 404.206 793.136 402.865 793.643 401.631C795.153 397.133 799.175 390.92 802.172 386.635L801.315 383.244L792.161 374.826L779.233 394.614C759.44 391.468 694.945 383.192 679.636 406.221C677.581 409.262 676.024 412.596 675.018 416.108Z" fill="#0B2E72"/>
<path d="M665.94 405.502C665.94 405.502 671.245 418.072 685.443 413.866C699.64 409.66 722.149 399.287 732.568 404.176C742.986 409.066 793.201 408.607 791.911 402.793C790.621 396.979 804.553 378.938 804.553 378.938C804.553 378.938 797.1 377.472 792.798 353.55C792.161 350.062 791.598 346.093 791.138 341.591C790.133 332.371 789.994 323.083 790.722 313.846C792.919 288.071 802.314 277.696 802.314 277.696C802.314 277.696 815.274 263.665 804.592 243.859C798.997 233.477 776.243 204.579 776.1 191.87C775.969 180.34 764.874 166.744 764.874 166.744C764.874 166.744 765.231 175.766 759.769 175.844C752.403 175.942 752.34 173.522 745.588 170.607C735.67 166.316 725.517 158.876 724.913 154.01C724.913 154.01 683.119 151.235 673.429 192.526C663.738 233.817 666.632 256.605 667.933 261.535C669.235 266.466 680.231 329.959 670.286 356.534C660.345 383.109 665.94 405.502 665.94 405.502Z" fill="#EEEEEE"/>
<path opacity="0.1" d="M735.079 333.877C742.449 346.437 752.39 357.386 764.277 366.035C772.277 366.239 780.262 366.9 788.19 368.015C787.553 364.529 786.923 360.56 786.533 356.061C785.529 346.843 785.387 337.558 786.115 328.324C784.811 327.657 783.665 326.727 782.756 325.595C781.846 324.464 781.194 323.156 780.842 321.761C778.66 314.141 758.81 277.695 758.81 277.695C758.81 277.695 711.391 264.834 709.573 276.836C707.754 288.838 723.492 313.62 735.079 333.877Z" fill="#0B2E72"/>
<path d="M751.897 255.051C751.897 255.051 779.88 308.583 782.006 316.191C782.557 318.303 783.783 320.189 785.505 321.578C787.229 322.967 789.357 323.786 791.582 323.915C791.582 323.915 820.086 331.088 826.908 332.101C833.73 333.115 892.943 339.035 892.943 339.035C892.943 339.035 907.974 339.751 909.864 334.443C911.598 329.587 940.993 304.424 957.499 327.117C959.023 329.215 960.018 331.634 960.408 334.173C960.794 336.712 960.564 339.304 959.737 341.736C956.517 351.291 949.967 366.439 943.288 356.83C933.901 343.314 922.724 346.872 922.627 353.985C922.531 361.101 907.26 358.19 902.243 359.103C899.502 359.603 890.063 361.882 881.903 363.877C872.405 366.208 862.691 367.608 852.903 368.056C836.745 368.802 812.937 369.242 804.545 365.985C794.427 362.03 776.683 360.851 769.074 360.519C766.555 360.415 764.137 359.522 762.177 357.968C751.742 349.721 742.958 339.657 736.274 328.29C724.695 308.062 700.886 266.176 702.69 254.193C704.492 242.208 751.897 255.051 751.897 255.051Z" fill="#EFB7B9"/>
<path opacity="0.1" d="M743.432 181.244C743.432 181.244 758.485 206.472 765.37 224.418C772.257 242.362 780.492 273.717 780.492 273.717L737.685 268.061L734.125 262.21C734.125 262.21 703.256 280.391 706.798 288.477C710.343 296.561 698.754 276.301 699.979 253.59C701.203 230.878 697.54 190.245 700.97 180.503C704.4 170.761 733.453 173.487 743.432 181.244Z" fill="#0B2E72"/>
<path d="M700.073 250.916C698.848 273.628 710.437 293.888 706.895 285.804C703.35 277.717 734.219 259.536 734.219 259.536L737.738 265.388L780.534 271.043C780.534 271.043 772.296 239.687 765.411 221.743C761.266 211.586 756.501 201.679 751.143 192.075C746.858 184.205 743.473 178.569 743.473 178.569C737.638 174.015 725.155 171.188 715.161 171.63C713.602 171.69 712.051 171.845 710.515 172.097C706.401 172.813 703.068 174.28 701.572 176.661C701.345 177.03 701.154 177.421 701.009 177.828C697.593 187.57 701.258 228.206 700.073 250.916Z" fill="#EEEEEE"/>
<path opacity="0.1" d="M680.053 312.927C680.053 312.927 697.845 337.636 703.306 338.4C703.264 338.452 680.082 332.98 680.053 312.927Z" fill="#0B2E72"/>
<path opacity="0.1" d="M679.543 347.713C679.543 347.713 713.267 382.043 724.199 382.567C735.132 383.093 679.543 347.713 679.543 347.713Z" fill="#0B2E72"/>
<path opacity="0.1" d="M679.348 361.815C679.348 361.815 700.891 387.258 702.259 387.282C703.626 387.305 678.743 378.18 679.348 361.815Z" fill="#0B2E72"/>
<g opacity="0.1" filter="url(#filter0_d)">
<path opacity="0.1" d="M701.626 176.432C705.154 175.985 708.57 174.937 711.717 173.333C712.904 172.753 714.076 172.107 715.221 171.42C719.749 168.574 723.974 165.295 727.837 161.635C734.21 155.783 740.579 149.381 743.285 141.242C743.895 139.366 744.348 137.444 744.646 135.497C746.336 125.255 745.167 113.89 752.787 107.045C754.219 105.768 755.857 104.729 757.634 103.969C768.378 99.212 783.822 102.704 791.905 93.9173C797.044 88.3484 797.022 80.4793 800.988 74.3933C802.719 71.7545 805.871 69.5022 808.669 67.0957C804.718 61.0394 799.435 55.9112 793.208 52.0856C786.981 48.26 779.967 45.8336 772.677 44.9816C765.385 44.1296 758.002 44.8752 751.065 47.1635C744.131 49.4519 737.814 53.225 732.581 58.2087C727.348 63.1924 723.329 69.2593 720.818 75.9684C718.304 82.6775 717.364 89.8588 718.061 96.9876C718.758 104.118 721.077 111.016 724.848 117.179C728.62 123.343 733.749 128.616 739.86 132.615C739.553 133.291 739.214 133.939 738.863 134.64C729.218 153.165 708.525 169.185 708.525 169.185L710.575 171.79C706.412 172.633 703.122 174.056 701.626 176.432Z" fill="#0B2E72"/>
<path opacity="0.1" d="M710.871 172.666C708.874 173.668 706.774 174.434 704.611 174.956C706.129 173.943 708.256 173.199 710.871 172.666ZM714.443 170.722C713.685 171.178 712.915 171.612 712.14 172.021L711.607 171.341L710.017 169.323C710.109 169.249 710.212 169.166 710.321 169.077C710.914 168.598 711.766 167.893 712.82 166.99C714.926 165.187 717.831 162.59 721.042 159.409C727.452 153.056 735.108 144.346 739.985 134.977L739.99 134.966C740.072 134.807 740.151 134.649 740.23 134.492C740.495 133.967 740.757 133.45 741 132.917L741.263 132.344L740.646 131.94C734.68 128.036 729.648 122.873 725.94 116.814C722.234 110.754 719.949 103.961 719.259 96.9334C718.573 89.9053 719.502 82.828 721.976 76.2206C724.45 69.6114 728.403 63.651 733.531 58.7679C738.66 53.8847 744.826 50.2077 751.567 47.9841C758.301 45.7621 765.452 45.0428 772.509 45.8671C779.565 46.6914 786.378 49.0421 792.453 52.7731C798.343 56.3927 803.391 61.2214 807.233 66.9391C806.804 67.2986 806.356 67.6703 805.903 68.0437C805.081 68.7219 804.248 69.4089 803.504 70.0651C802.126 71.2805 800.834 72.5678 799.905 73.9842L799.903 73.986C798.112 76.7337 797.108 79.8291 796.142 82.8137C795.999 83.2505 795.858 83.6856 795.715 84.117C794.582 87.5433 793.345 90.7569 790.909 93.3954L790.909 93.3972C787.149 97.4844 781.683 98.7537 775.539 99.5655C774.37 99.7186 773.148 99.8598 771.912 100.003C769.978 100.224 768.002 100.451 766.12 100.744C762.977 101.231 759.858 101.93 757.013 103.186C755.108 104.003 753.37 105.111 751.858 106.459L751.855 106.46C747.826 110.082 746.176 114.842 745.297 119.865C744.855 122.384 744.602 125.005 744.356 127.614L744.337 127.806C744.097 130.36 743.855 132.9 743.447 135.371L743.447 135.38C743.155 137.291 742.709 139.175 742.112 141.014C739.474 148.946 733.26 155.216 726.895 161.061L726.882 161.072C723.07 164.684 718.903 167.915 714.443 170.722Z" stroke="black"/>
</g>
<g opacity="0.1">
<path opacity="0.1" d="M492.002 122.893C492.922 124.224 493.423 125.787 493.439 127.387C493.379 127.95 493.208 128.494 492.938 128.994C488.994 121.996 484.891 114.58 484.318 106.843C486.03 112.395 489.104 117.76 492.002 122.893Z" fill="#0B2E72"/>
<path opacity="0.1" d="M454.053 174.324C458.047 177.83 464.397 178.976 466.705 183.704L462.766 185.528C460.143 184.268 457.657 182.76 455.336 181.024C453.869 179.706 452.731 178.077 452.014 176.264C451.295 174.451 451.016 172.503 451.2 170.574C451.878 171.999 452.85 173.275 454.053 174.324Z" fill="#0B2E72"/>
<path opacity="0.1" d="M586.195 181.479C593.34 177.803 602.189 173.597 608.957 177.986C612.402 180.221 614.428 184.333 618.238 185.922C620.684 186.749 623.308 186.917 625.836 186.409C638.632 184.64 650.484 178.926 659.662 170.105C662.348 167.492 664.943 164.542 668.544 163.357C675.713 160.998 682.918 166.54 690.364 168.155C702.857 170.877 714.674 162.279 723.961 153.766C730.327 147.929 736.671 141.546 739.376 133.433C743.186 122.007 739.816 107.466 748.865 99.3349C759.2 90.0571 778.54 96.4342 787.942 86.2719C793.06 80.719 793.052 72.8732 797.013 66.8069C800.36 61.6863 808.912 58.1686 810.196 51.945C811.116 53.5944 811.613 55.4298 811.646 57.2998C811.404 64.3562 801.936 68.0041 798.295 73.4766C794.334 79.5448 794.342 87.3905 789.224 92.9434C779.822 103.106 760.456 96.7264 750.147 106.006C741.098 114.137 744.469 128.678 740.658 140.102C737.954 148.218 731.61 154.587 725.243 160.436C715.956 168.948 704.139 177.549 691.646 174.827C684.227 173.21 677.022 167.67 669.826 170.027C666.226 171.212 663.631 174.174 660.944 176.775C651.766 185.598 639.914 191.31 627.118 193.079C624.59 193.587 621.966 193.418 619.52 192.592C615.71 191.004 613.685 186.89 610.239 184.656C603.457 180.267 594.622 184.473 587.477 188.151C567.498 198.249 545.51 204.071 522.978 205.233C500.448 206.395 477.889 202.865 456.805 194.883L464.495 191.337C484.501 197.582 505.551 199.927 526.433 198.236C547.318 196.545 567.629 190.851 586.195 181.479Z" fill="#0B2E72"/>
</g>
<path opacity="0.1" d="M918.775 534.506L930.344 529.273L930.373 527.151C930.384 526.335 921.187 527.979 914.057 529.39C919.159 530.359 918.909 533.707 918.775 534.506Z" fill="#0B2E72"/>
<path d="M930.565 411.619C945.869 411.886 958.475 397.351 958.721 379.153C958.968 360.956 946.763 345.985 931.458 345.718C916.154 345.451 903.548 359.988 903.301 378.186C903.055 396.383 915.26 411.352 930.565 411.619Z" fill="#0B2E72"/>
<path d="M665.2 331.572L620.111 373.578L473.823 368.538L514.604 328.95L665.2 331.572Z" fill="#DDA2A6"/>
<path d="M663.204 478.398L665.2 331.428L619.957 373.612L618.003 517.426L663.204 478.398Z" fill="#0B2E72"/>
<path d="M473.696 368.719L471.714 514.916L618.136 517.472L620.084 373.775L473.696 368.719Z" fill="#DDA2A6"/>
<path opacity="0.3" d="M473.696 368.719L471.714 514.916L618.136 517.472L620.084 373.775L473.696 368.719Z" fill="#0B2E72"/>
<path d="M607.629 413.814L499.007 393.651L483.868 463.248L595.677 485.324L607.629 413.814Z" fill="#DCE0ED"/>
<path d="M585.893 429.73L512.889 417.244L510.932 426.519L583.923 439.898L585.893 429.73Z" fill="#0B2E72"/>
<path d="M565.491 449.367L523.952 442.745L521.98 453.052L565.35 459.762L565.491 449.367Z" fill="#0B2E72"/>
<path d="M646.141 408.242L644.94 350.342L633.302 361.191L634.519 419.225L646.141 408.242Z" fill="#65617D"/>
<path d="M499.692 343.487L640.258 347.766L644.952 350.432L633.364 361.183L629.447 358.861L490.246 352.616L499.692 343.487Z" fill="#65617D"/>
<g clip-path="url(#clip0)">
<path d="M1420.61 241.065H1094.02C1092.42 241.063 1090.88 240.342 1089.74 239.06C1088.61 237.779 1087.97 236.041 1087.97 234.228V142.644C1087.97 140.831 1088.61 139.093 1089.74 137.812C1090.88 136.53 1092.42 135.809 1094.02 135.807H1420.61C1422.22 135.809 1423.75 136.53 1424.89 137.812C1426.02 139.093 1426.66 140.831 1426.66 142.644V234.228C1426.66 236.041 1426.02 237.779 1424.89 239.06C1423.75 240.342 1422.22 241.063 1420.61 241.065V241.065ZM1094.02 138.541C1093.06 138.543 1092.13 138.975 1091.45 139.744C1090.77 140.513 1090.39 141.556 1090.39 142.644V234.228C1090.39 235.316 1090.77 236.359 1091.45 237.128C1092.13 237.897 1093.06 238.329 1094.02 238.33H1420.61C1421.57 238.329 1422.5 237.897 1423.18 237.128C1423.86 236.359 1424.24 235.316 1424.24 234.228V142.644C1424.24 141.556 1423.86 140.513 1423.18 139.744C1422.5 138.975 1421.57 138.543 1420.61 138.541L1094.02 138.541Z" fill="#3F3D56"/>
<path d="M1144.76 212.773C1158.37 212.773 1169.4 200.303 1169.4 184.922C1169.4 169.54 1158.37 157.071 1144.76 157.071C1131.16 157.071 1120.13 169.54 1120.13 184.922C1120.13 200.303 1131.16 212.773 1144.76 212.773Z" fill="#0B2E72"/>
<path d="M1201.66 166.354C1200.57 166.354 1199.53 166.844 1198.76 167.714C1197.99 168.585 1197.56 169.765 1197.56 170.996C1197.56 172.227 1197.99 173.408 1198.76 174.279C1199.53 175.149 1200.57 175.638 1201.66 175.638H1395.23C1396.32 175.638 1397.37 175.149 1398.14 174.279C1398.91 173.408 1399.34 172.227 1399.34 170.996C1399.34 169.765 1398.91 168.585 1398.14 167.714C1397.37 166.844 1396.32 166.354 1395.23 166.354H1201.66Z" fill="#E6E6E6"/>
<path d="M1201.66 194.206C1200.57 194.206 1199.53 194.695 1198.76 195.565C1197.99 196.436 1197.56 197.616 1197.56 198.847C1197.56 200.078 1197.99 201.259 1198.76 202.13C1199.53 203 1200.57 203.489 1201.66 203.489H1284.96C1285.5 203.49 1286.03 203.371 1286.53 203.138C1287.03 202.906 1287.48 202.564 1287.87 202.133C1288.25 201.702 1288.55 201.189 1288.76 200.626C1288.96 200.062 1289.07 199.458 1289.07 198.847C1289.07 198.237 1288.96 197.633 1288.76 197.069C1288.55 196.505 1288.25 195.993 1287.87 195.562C1287.48 195.131 1287.03 194.789 1286.53 194.556C1286.03 194.324 1285.5 194.204 1284.96 194.206H1201.66Z" fill="#E6E6E6"/>
<path d="M1278.83 567.522H1133.67C1132.07 567.52 1130.53 566.799 1129.4 565.517C1128.26 564.235 1127.63 562.497 1127.62 560.685V389.789C1127.63 387.977 1128.26 386.239 1129.4 384.957C1130.53 383.675 1132.07 382.954 1133.67 382.952H1278.83C1280.43 382.954 1281.97 383.675 1283.1 384.957C1284.23 386.239 1284.87 387.977 1284.87 389.789V560.685C1284.87 562.497 1284.23 564.235 1283.1 565.517C1281.97 566.799 1280.43 567.52 1278.83 567.522ZM1133.67 385.687C1132.71 385.688 1131.79 386.121 1131.11 386.89C1130.43 387.659 1130.04 388.702 1130.04 389.789V560.685C1130.04 561.772 1130.43 562.815 1131.11 563.584C1131.79 564.353 1132.71 564.786 1133.67 564.787H1278.83C1279.79 564.786 1280.71 564.353 1281.39 563.584C1282.07 562.815 1282.45 561.772 1282.45 560.685V389.789C1282.45 388.702 1282.07 387.659 1281.39 386.89C1280.71 386.121 1279.79 385.688 1278.83 385.687H1133.67Z" fill="#3F3D56"/>
<path d="M1164.6 418.194C1163.51 418.194 1162.47 418.683 1161.7 419.553C1160.93 420.424 1160.5 421.605 1160.5 422.836C1160.5 424.067 1160.93 425.247 1161.7 426.118C1162.47 426.988 1163.51 427.477 1164.6 427.477H1247.9C1248.99 427.477 1250.03 426.988 1250.8 426.118C1251.57 425.247 1252 424.067 1252 422.836C1252 421.605 1251.57 420.424 1250.8 419.553C1250.03 418.683 1248.99 418.194 1247.9 418.194H1164.6Z" fill="#E6E6E6"/>
<path d="M1164.6 445.542C1164.06 445.541 1163.53 445.661 1163.03 445.893C1162.53 446.126 1162.08 446.468 1161.69 446.899C1161.31 447.33 1161.01 447.842 1160.8 448.406C1160.59 448.97 1160.49 449.574 1160.49 450.184C1160.49 450.795 1160.59 451.399 1160.8 451.963C1161.01 452.526 1161.31 453.038 1161.69 453.47C1162.08 453.901 1162.53 454.242 1163.03 454.475C1163.53 454.708 1164.06 454.827 1164.6 454.826H1247.9C1248.98 454.826 1250.03 454.337 1250.8 453.467C1251.57 452.596 1252 451.415 1252 450.184C1252 448.953 1251.57 447.773 1250.8 446.902C1250.03 446.032 1248.98 445.542 1247.9 445.542H1164.6Z" fill="#E6E6E6"/>
<path d="M1206.25 532.28C1201.14 532.28 1196.14 530.566 1191.89 527.356C1187.64 524.145 1184.33 519.582 1182.37 514.243C1180.41 508.904 1179.9 503.029 1180.9 497.362C1181.9 491.694 1184.36 486.488 1187.97 482.402C1191.59 478.315 1196.19 475.533 1201.21 474.405C1206.22 473.278 1211.42 473.856 1216.14 476.068C1220.86 478.279 1224.9 482.024 1227.74 486.829C1230.58 491.634 1232.09 497.283 1232.09 503.062C1232.09 510.808 1229.36 518.235 1224.52 523.713C1219.67 529.19 1213.1 532.271 1206.25 532.28V532.28Z" fill="#0B2E72"/>
<path d="M1516.61 0H1661.76C1663.37 0.00212848 1664.9 0.723151 1666.04 2.0049C1667.17 3.28666 1667.81 5.02448 1667.81 6.83715V177.732C1667.81 179.545 1667.17 181.283 1666.04 182.565C1664.9 183.846 1663.37 184.567 1661.76 184.57H1516.61C1515.01 184.567 1513.47 183.846 1512.34 182.565C1511.2 181.283 1510.56 179.545 1510.56 177.732V6.83715C1510.56 5.02448 1511.2 3.28666 1512.34 2.0049C1513.47 0.723151 1515.01 0.00212848 1516.61 0V0ZM1661.76 181.835C1662.72 181.834 1663.65 181.401 1664.33 180.632C1665.01 179.863 1665.39 178.82 1665.39 177.732V6.83715C1665.39 5.74952 1665.01 4.70677 1664.33 3.9377C1663.65 3.16863 1662.72 2.73605 1661.76 2.73486H1516.61C1515.65 2.73605 1514.73 3.16863 1514.04 3.9377C1513.36 4.70677 1512.98 5.74952 1512.98 6.83715V177.732C1512.98 178.82 1513.36 179.863 1514.04 180.632C1514.73 181.401 1515.65 181.834 1516.61 181.835H1661.76Z" fill="#3F3D56"/>
<path d="M1630.83 149.328C1631.92 149.328 1632.97 148.839 1633.74 147.969C1634.51 147.098 1634.94 145.917 1634.94 144.686C1634.94 143.455 1634.51 142.274 1633.74 141.404C1632.97 140.533 1631.92 140.044 1630.83 140.044H1547.54C1546.45 140.044 1545.41 140.533 1544.64 141.404C1543.87 142.274 1543.43 143.455 1543.43 144.686C1543.43 145.917 1543.87 147.098 1544.64 147.969C1545.41 148.839 1546.45 149.328 1547.54 149.328H1630.83Z" fill="#E6E6E6"/>
<path d="M1630.83 121.979C1631.92 121.979 1632.97 121.49 1633.74 120.62C1634.51 119.749 1634.94 118.569 1634.94 117.338C1634.94 116.107 1634.51 114.926 1633.74 114.055C1632.97 113.185 1631.92 112.696 1630.83 112.696H1547.54C1546.45 112.696 1545.41 113.185 1544.64 114.055C1543.87 114.926 1543.43 116.107 1543.43 117.338C1543.43 118.569 1543.87 119.749 1544.64 120.62C1545.41 121.49 1546.45 121.979 1547.54 121.979H1630.83Z" fill="#E6E6E6"/>
<path d="M1589.19 35.2417C1594.3 35.2417 1599.29 36.9553 1603.55 40.1658C1607.8 43.3764 1611.11 47.9396 1613.06 53.2785C1615.02 58.6175 1615.53 64.4922 1614.54 70.16C1613.54 75.8278 1611.08 81.034 1607.46 85.1202C1603.85 89.2064 1599.24 91.9892 1594.23 93.1166C1589.21 94.2439 1584.02 93.6653 1579.3 91.4539C1574.57 89.2424 1570.54 85.4974 1567.7 80.6925C1564.86 75.8876 1563.34 70.2386 1563.34 64.4598C1563.35 56.7134 1566.07 49.2867 1570.92 43.8092C1575.76 38.3316 1582.33 35.2505 1589.19 35.2417Z" fill="#0B2E72"/>
<path d="M1089.84 353.556C1115.52 331.066 1145.53 315.73 1177.43 308.789C1209.59 301.862 1242.75 303.788 1274.11 314.405C1289.87 319.711 1305.02 327.13 1319.23 336.504C1333.7 346.069 1346.78 357.844 1359.36 370.311C1372.11 382.94 1384.44 396.132 1397.74 408.022C1435.74 442.352 1482.9 461.108 1531.54 461.228C1535.55 461.236 1539.57 461.111 1543.58 460.853C1545.76 460.718 1545.77 456.874 1543.58 457.011C1494 460.097 1445.05 443.373 1405.28 409.765C1391.49 398.107 1378.89 384.776 1366.04 371.858C1353.57 359.334 1340.77 347.151 1326.63 337.089C1292.04 312.454 1251.8 299.879 1210.93 300.932C1170.06 301.985 1130.37 316.62 1096.81 343.011C1093.62 345.519 1090.5 348.14 1087.43 350.839C1085.71 352.356 1088.13 355.058 1089.84 353.556V353.556Z" fill="#3F3D56"/>
<path d="M1088.03 372.128C1097.79 372.128 1105.69 363.188 1105.69 352.16C1105.69 341.132 1097.79 332.192 1088.03 332.192C1078.28 332.192 1070.37 341.132 1070.37 352.16C1070.37 363.188 1078.28 372.128 1088.03 372.128Z" fill="#3F3D56"/>
<path d="M1745.14 637.249C1754.9 637.249 1762.81 628.309 1762.81 617.281C1762.81 606.253 1754.9 597.313 1745.14 597.313C1735.39 597.313 1727.48 606.253 1727.48 617.281C1727.48 628.309 1735.39 637.249 1745.14 637.249Z" fill="#3F3D56"/>
<path d="M1837.68 503.534H1549.47C1547.86 503.532 1546.32 502.811 1545.19 501.529C1544.06 500.247 1543.42 498.509 1543.42 496.697V327.169C1543.42 325.356 1544.06 323.618 1545.19 322.337C1546.32 321.055 1547.86 320.334 1549.47 320.332H1837.68C1839.28 320.334 1840.82 321.055 1841.95 322.336C1843.09 323.618 1843.72 325.356 1843.73 327.169V496.696C1843.72 498.509 1843.09 500.247 1841.95 501.529C1840.82 502.811 1839.28 503.532 1837.68 503.534ZM1549.47 323.066C1548.5 323.068 1547.58 323.5 1546.9 324.269C1546.22 325.038 1545.84 326.081 1545.84 327.169V496.697C1545.84 497.784 1546.22 498.827 1546.9 499.596C1547.58 500.365 1548.5 500.798 1549.47 500.799H1837.68C1838.64 500.798 1839.56 500.365 1840.24 499.596C1840.92 498.827 1841.31 497.784 1841.31 496.697V327.169C1841.31 326.081 1840.92 325.038 1840.24 324.269C1839.56 323.5 1838.64 323.068 1837.68 323.066H1549.47Z" fill="#3F3D56"/>
<path d="M1597.79 408.237C1611.4 408.237 1622.43 395.768 1622.43 380.386C1622.43 365.004 1611.4 352.535 1597.79 352.535C1584.19 352.535 1573.16 365.004 1573.16 380.386C1573.16 395.768 1584.19 408.237 1597.79 408.237Z" fill="#0B2E72"/>
<path d="M1654.69 361.819C1654.15 361.818 1653.62 361.937 1653.12 362.17C1652.62 362.403 1652.16 362.744 1651.78 363.175C1651.4 363.607 1651.1 364.119 1650.89 364.682C1650.68 365.246 1650.58 365.85 1650.58 366.461C1650.58 367.071 1650.68 367.675 1650.89 368.239C1651.1 368.803 1651.4 369.315 1651.78 369.746C1652.16 370.177 1652.62 370.519 1653.12 370.752C1653.62 370.984 1654.15 371.104 1654.69 371.103H1809.88C1810.97 371.103 1812.01 370.613 1812.78 369.743C1813.55 368.872 1813.99 367.692 1813.99 366.461C1813.99 365.23 1813.55 364.049 1812.78 363.178C1812.01 362.308 1810.97 361.819 1809.88 361.819H1654.69Z" fill="#E6E6E6"/>
<path d="M1654.69 389.67C1654.15 389.669 1653.62 389.788 1653.12 390.021C1652.62 390.254 1652.16 390.595 1651.78 391.027C1651.4 391.458 1651.1 391.97 1650.89 392.533C1650.68 393.097 1650.58 393.701 1650.58 394.312C1650.58 394.922 1650.68 395.526 1650.89 396.09C1651.1 396.654 1651.4 397.166 1651.78 397.597C1652.16 398.028 1652.62 398.37 1653.12 398.603C1653.62 398.835 1654.15 398.955 1654.69 398.954H1737.99C1739.07 398.954 1740.12 398.465 1740.89 397.594C1741.66 396.724 1742.09 395.543 1742.09 394.312C1742.09 393.081 1741.66 391.9 1740.89 391.029C1740.12 390.159 1739.07 389.67 1737.99 389.67H1654.69Z" fill="#E6E6E6"/>
<path d="M1578.9 434.195C1575.77 434.195 1573.23 436.278 1573.23 438.837C1573.23 441.396 1575.77 443.479 1578.9 443.479H1807.58C1810.71 443.479 1813.25 441.396 1813.25 438.837C1813.25 436.278 1810.71 434.195 1807.58 434.195H1578.9Z" fill="#E6E6E6"/>
<path d="M1578.9 462.046C1575.77 462.046 1573.23 464.129 1573.23 466.688C1573.23 469.247 1575.77 471.33 1578.9 471.33H1807.58C1810.71 471.33 1813.25 469.247 1813.25 466.688C1813.25 464.129 1810.71 462.046 1807.58 462.046H1578.9Z" fill="#E6E6E6"/>
<path d="M1526.3 635.871C1542.56 627.897 1560.71 634.849 1576.04 642.198C1583.93 645.983 1591.74 650.023 1599.91 653.012C1606.78 655.52 1613.82 657.405 1620.95 658.65C1635.27 661.13 1649.84 661.231 1664.19 658.949C1678.61 656.676 1692.66 652.057 1705.91 645.235C1719.08 638.484 1731.26 629.482 1742.02 618.546C1743.39 617.149 1744.73 615.72 1746.04 614.258C1747.61 612.525 1745.2 609.809 1743.64 611.542C1733.28 622.954 1721.39 632.442 1708.41 639.653C1695.49 646.839 1681.7 651.847 1667.49 654.516C1653.23 657.234 1638.69 657.517 1624.36 655.358C1617.21 654.265 1610.15 652.53 1603.24 650.168C1595.31 647.252 1587.53 643.836 1579.94 639.936C1564.47 632.426 1547.28 625.072 1530.28 630.251C1528.34 630.86 1526.43 631.629 1524.58 632.553C1522.58 633.534 1524.31 636.846 1526.3 635.871V635.871Z" fill="#3F3D56"/>
<path d="M1520.02 682.996H1383.85L1415.89 620.251C1416.47 619.126 1417.29 618.192 1418.29 617.543C1419.28 616.893 1420.41 616.552 1421.56 616.552C1422.71 616.552 1423.84 616.893 1424.83 617.543C1425.83 618.192 1426.65 619.126 1427.23 620.251L1440.92 647.054L1464.19 601.479C1464.91 600.071 1465.95 598.902 1467.19 598.089C1468.44 597.276 1469.85 596.848 1471.29 596.848C1472.73 596.848 1474.14 597.276 1475.38 598.089C1476.63 598.902 1477.66 600.071 1478.38 601.479L1520.02 682.996Z" fill="#0B2E72"/>
<path d="M1520.14 682.979H1374.99C1373.39 682.977 1371.85 682.256 1370.72 680.974C1369.58 679.693 1368.94 677.955 1368.94 676.142V584.558C1368.94 582.745 1369.58 581.007 1370.72 579.726C1371.85 578.444 1373.39 577.723 1374.99 577.721H1520.14C1521.75 577.723 1523.28 578.444 1524.42 579.726C1525.55 581.007 1526.19 582.745 1526.19 584.558V676.142C1526.19 677.955 1525.55 679.693 1524.42 680.974C1523.28 682.256 1521.75 682.977 1520.14 682.979ZM1374.99 580.456C1374.03 580.457 1373.11 580.889 1372.43 581.658C1371.75 582.428 1371.36 583.47 1371.36 584.558V676.142C1371.36 677.23 1371.75 678.273 1372.43 679.042C1373.11 679.811 1374.03 680.243 1374.99 680.244H1520.14C1521.11 680.243 1522.03 679.811 1522.71 679.042C1523.39 678.273 1523.77 677.23 1523.77 676.142V584.558C1523.77 583.47 1523.39 582.428 1522.71 581.658C1522.03 580.889 1521.11 580.457 1520.14 580.456H1374.99Z" fill="#3F3D56"/>
<path d="M1804.84 602.376L1778.97 617.229C1769.73 622.53 1760.82 621.624 1757.41 610.569C1756.6 607.939 1756.3 605.141 1756.53 602.367C1756.76 599.593 1757.52 596.909 1758.76 594.499C1760 592.088 1761.68 590.007 1763.69 588.4C1765.7 586.792 1768 585.695 1770.42 585.184L1795.01 579.994L1900.33 540.494L1964.12 489.356L1987.51 531.476L1913.79 576.442L1804.84 602.376Z" fill="#FFB8B8"/>
<path d="M1925.62 1095.38L1905.82 1091.65L1908.02 1049.38H1928.92L1925.62 1095.38Z" fill="#FFB8B8"/>
<path d="M2117.75 1054.09L2098.59 1060.85L2083.7 1022L2102.35 1011.35L2117.75 1054.09Z" fill="#FFB8B8"/>
<path d="M2107.08 1017.05L2082.88 1028.24L1967.41 856.677L1931.12 1058.08L1906.92 1053.11C1891.4 879.471 1878.75 702.362 1894.28 618.597L1983.91 614.246L2024.6 760.948L2044.39 860.406L2107.08 1017.05Z" fill="#2F2E41"/>
<path d="M1924.53 1129.56C1920.91 1130.44 1917.14 1129.99 1913.76 1128.27L1902 1122.29C1892.14 1121.72 1885.43 1123.94 1879.94 1115.84C1878.39 1113.52 1877.42 1110.78 1877.12 1107.9C1876.83 1105.01 1877.22 1102.09 1878.26 1099.44V1099.44C1879.29 1096.78 1880.93 1094.47 1883.01 1092.76C1885.09 1091.05 1887.53 1090 1890.09 1089.71L1906.24 1078.2L1907.09 1086.83C1914.47 1091.56 1923.24 1089.51 1932.52 1084.91L1937.59 1104.97C1938.25 1107.56 1938.42 1110.27 1938.11 1112.93C1937.8 1115.6 1937.01 1118.16 1935.78 1120.47C1934.56 1122.78 1932.93 1124.77 1930.99 1126.34C1929.06 1127.9 1926.86 1129 1924.53 1129.56Z" fill="#2F2E41"/>
<path d="M2125.58 1088.42C2122.41 1090.58 2118.71 1091.53 2115.03 1091.15L2102.19 1089.81C2092.7 1092.89 2086.99 1097.45 2079.47 1091.81C2077.34 1090.19 2075.63 1087.95 2074.52 1085.33C2073.41 1082.71 2072.95 1079.81 2073.17 1076.91C2073.38 1074.02 2074.27 1071.23 2075.74 1068.85C2077.22 1066.47 2079.23 1064.58 2081.56 1063.37L2093.53 1046.55L2096.81 1054.4C2105.15 1056.16 2112.86 1051.01 2120.32 1043.25L2130.87 1060.36C2132.24 1062.57 2133.18 1065.07 2133.65 1067.7C2134.12 1070.34 2134.11 1073.06 2133.62 1075.69C2133.12 1078.32 2132.15 1080.81 2130.77 1083C2129.39 1085.19 2127.62 1087.03 2125.58 1088.42V1088.42Z" fill="#2F2E41"/>
<path d="M1950.91 437.706C1972.78 437.706 1990.5 417.668 1990.5 392.949C1990.5 368.231 1972.78 348.193 1950.91 348.193C1929.05 348.193 1911.32 368.231 1911.32 392.949C1911.32 417.668 1929.05 437.706 1950.91 437.706Z" fill="#FFB8B8"/>
<path d="M1999.3 487.436L1947.61 475.003L1941.02 426.518L1977.31 417.815L1999.3 487.436Z" fill="#FFB8B8"/>
<path d="M1985.01 620.462H1892.63L1913.45 561.363C1911.94 541.028 1919.56 526.071 1930.47 513.05L1944.32 473.76C1966.68 457.118 1983.55 458.361 2001.5 479.976C2022.79 514.053 2008.06 565.279 1985.01 620.462Z" fill="#0B2E72"/>
<path d="M1943.22 746.029L1940.59 778.698C1939.65 790.358 1934.23 798.41 1924.14 795.801C1921.73 795.18 1919.48 793.98 1917.52 792.282C1915.57 790.585 1913.96 788.43 1912.81 785.965C1911.67 783.5 1911 780.784 1910.87 778.002C1910.73 775.22 1911.13 772.437 1912.04 769.846L1921.22 743.542L1947.61 621.705L1943.22 533.435H1987.21L1981.71 627.921L1943.22 746.029Z" fill="#FFB8B8"/>
<path d="M1990.5 535.922H1939.92L1943.46 498.615C1943.7 492.163 1946.05 486.042 1950.08 481.455C1954.1 476.867 1959.49 474.145 1965.19 473.823V473.823C1968.22 473.652 1971.24 474.161 1974.09 475.319C1976.94 476.478 1979.55 478.264 1981.79 480.573C1984.02 482.883 1985.83 485.67 1987.1 488.774C1988.38 491.878 1989.09 495.237 1989.21 498.656L1990.5 535.922Z" fill="#0B2E72"/>
<path d="M1999.91 346.93C2008.13 346.93 2014.79 339.398 2014.79 330.107C2014.79 320.816 2008.13 313.284 1999.91 313.284C1991.69 313.284 1985.03 320.816 1985.03 330.107C1985.03 339.398 1991.69 346.93 1999.91 346.93Z" fill="#2F2E41"/>
<path d="M1984.58 325.989C1984.82 321.72 1986.5 317.718 1989.26 314.797C1992.03 311.876 1995.67 310.255 1999.45 310.265C1999.15 310.221 1998.84 310.168 1998.53 310.145C1994.59 309.861 1990.72 311.357 1987.75 314.303C1984.79 317.249 1982.99 321.404 1982.73 325.854C1982.48 330.305 1983.8 334.687 1986.4 338.038C1989.01 341.388 1992.68 343.432 1996.62 343.721C1996.93 343.744 1997.24 343.735 1997.55 343.736C1993.8 343.198 1990.37 341.063 1987.96 337.766C1985.55 334.469 1984.34 330.257 1984.58 325.989V325.989Z" fill="#2F2E41"/>
<path d="M1984.5 333.172C1971.22 320.726 1933.16 336.544 1930.7 344.912C1912.75 347.677 1899.17 359.514 1899.17 380.562V380.562C1909.84 385.503 1921.97 384.894 1935.09 380.562C1956 399.826 1957.43 424.044 1944.72 451.861L1960.36 452.214L1979.76 420.172L1980.68 452.674L2016.55 451.861V405.284C2016.66 389.797 2013.51 374.503 2007.35 360.67C2001.76 348.396 1993.09 341.229 1984.5 333.172Z" fill="#2F2E41"/>
<path d="M1951.1 415.463C1955.03 415.463 1958.22 410.421 1958.22 404.201C1958.22 397.98 1955.03 392.938 1951.1 392.938C1947.17 392.938 1943.98 397.98 1943.98 404.201C1943.98 410.421 1947.17 415.463 1951.1 415.463Z" fill="#FFB8B8"/>
</g>
<defs>
<filter id="filter0_d" x="697.626" y="44.6396" width="115.043" height="139.793" filterUnits="userSpaceOnUse" color-interpolation-filters="sRGB">
<feFlood flood-opacity="0" result="BackgroundImageFix"/>
<feColorMatrix in="SourceAlpha" type="matrix" values="0 0 0 0 0 0 0 0 0 0 0 0 0 0 0 0 0 0 127 0"/>
<feOffset dy="4"/>
<feGaussianBlur stdDeviation="2"/>
<feColorMatrix type="matrix" values="0 0 0 0 0 0 0 0 0 0 0 0 0 0 0 0 0 0 0.25 0"/>
<feBlend mode="normal" in2="BackgroundImageFix" result="effect1_dropShadow"/>
<feBlend mode="normal" in="SourceGraphic" in2="effect1_dropShadow" result="shape"/>
</filter>
<clipPath id="clip0">
<rect width="1323.92" height="1130" fill="white" transform="translate(810.084)"/>
</clipPath>
</defs>
</svg>
