<svg width="768" height="717" viewBox="0 0 768 717" fill="none" xmlns="http://www.w3.org/2000/svg">
<g clip-path="url(#clip0)">
<path d="M78.1695 700.588H60.3273L44.1832 594.117L32.2877 532.477L74.7711 523.668L75.1958 578.906L78.1695 700.588Z" fill="#9F616A"/>
<path d="M135.523 700.588H115.98L99.8365 594.117L87.941 532.477L130.425 523.668L130.85 578.906L135.523 700.588Z" fill="#9F616A"/>
<path d="M140.196 583.308L89.2156 592.113L80.7186 577.705L79.0198 591.314L30.5886 592.916L28.8888 481.641L125.751 476.837L140.196 583.308Z" fill="#2F2E41"/>
<path d="M156.352 717H117.291C115.704 717 114.181 716.405 113.059 715.347C111.937 714.29 111.307 712.856 111.307 711.361V700.606C111.307 699.989 111.435 699.383 111.685 698.813C111.935 698.247 112.301 697.731 112.762 697.293C113.223 696.86 113.771 696.515 114.374 696.279C114.977 696.046 115.623 695.924 116.276 695.924C121.032 700.308 126.512 699.964 132.557 695.924L132.852 694.35C132.994 693.59 133.344 692.88 133.867 692.285C134.39 691.69 135.068 691.235 135.835 690.962C136.601 690.69 137.429 690.611 138.238 690.729C139.048 690.851 139.809 691.17 140.449 691.65L151.011 699.613L153.903 698.907C155.346 698.552 156.855 698.516 158.314 698.799C159.774 699.082 161.146 699.674 162.324 700.534C163.503 701.395 164.457 702.495 165.113 703.757C165.769 705.015 166.111 706.403 166.111 707.805C166.111 709.013 165.858 710.206 165.368 711.325C164.877 712.44 164.159 713.451 163.252 714.308C162.346 715.161 161.271 715.838 160.087 716.301C158.903 716.76 157.634 717 156.352 717Z" fill="#2F2E41"/>
<path d="M99.4244 717H60.363C58.7759 717 57.2541 716.405 56.1316 715.347C55.0096 714.29 54.379 712.856 54.379 711.361V700.606C54.379 699.989 54.5077 699.383 54.7573 698.813C55.0069 698.247 55.3728 697.731 55.8344 697.293C56.296 696.86 56.8436 696.515 57.4465 696.279C58.0494 696.046 58.6957 695.924 59.3481 695.924C64.104 700.308 69.5842 699.964 75.6293 695.924L75.9238 694.35C76.0663 693.59 76.4161 692.88 76.9392 692.285C77.4622 691.69 78.1403 691.235 78.9068 690.962C79.6733 690.69 80.502 690.611 81.3111 690.729C82.1202 690.851 82.8821 691.17 83.5214 691.65L94.0836 699.613L96.9756 698.907C98.4183 698.552 99.9271 698.516 101.387 698.799C102.846 699.082 104.218 699.674 105.396 700.534C106.575 701.395 107.529 702.495 108.185 703.757C108.841 705.015 109.183 706.403 109.183 707.805C109.183 709.013 108.931 710.206 108.44 711.325C107.95 712.44 107.231 713.451 106.325 714.308C105.418 715.161 104.343 715.838 103.159 716.301C101.975 716.76 100.706 717 99.4244 717Z" fill="#2F2E41"/>
<path d="M105.359 271.098C122.721 271.098 136.797 257.837 136.797 241.478C136.797 225.119 122.721 211.858 105.359 211.858C87.9963 211.858 73.9213 225.119 73.9213 241.478C73.9213 257.837 87.9963 271.098 105.359 271.098Z" fill="#9F616A"/>
<path d="M86.6664 290.313L57.7775 283.107L78.1691 241.48L105.359 259.892L86.6664 290.313Z" fill="#9F616A"/>
<path d="M129.15 486.445C103.607 473.629 85.9181 481.498 62.9786 497.01C45.113 509.088 19.8976 495.687 0 492.052L15.4067 326.696C16.6323 313.542 21.9519 301.022 30.6986 290.705C39.4454 280.388 51.2298 272.733 64.5749 268.7L92.6141 280.708C105.546 298.056 109.669 334.407 116.405 376.773C122.215 413.318 124.296 446.035 129.15 486.445Z" fill="#0B2E72"/>
<path d="M98.5619 464.831L102.51 484.825C102.877 486.685 102.841 488.603 102.402 490.453C101.962 492.303 101.13 494.049 99.9539 495.587C98.7781 497.125 97.2835 498.423 95.5605 499.401C93.8375 500.38 91.9216 501.022 89.929 501.283C87.5555 501.595 85.1377 501.362 82.8801 500.606C80.6226 499.849 78.5919 498.591 76.9614 496.935C75.3305 495.282 74.1478 493.282 73.5134 491.106C72.8786 488.926 72.8111 486.639 73.3164 484.43L78.1699 463.229L54.379 375.973L57.7775 344.75L91.7646 343.95C94.9983 353.137 93.8413 362.773 89.2155 372.768L98.5619 464.831Z" fill="#9F616A"/>
<path d="M87.1868 245.144C89.6791 245.004 92.1125 245.798 94.5871 246.107C103.442 247.215 112.652 241.162 114.607 232.95C114.764 231.857 115.11 230.795 115.632 229.807C116.994 227.711 120.098 227.311 122.656 227.793C125.214 228.275 127.639 229.403 130.245 229.532C134.268 229.731 138.13 227.397 140.274 224.184C142.3 220.869 143.162 217.035 142.735 213.231L140.807 215.138C140.023 213.576 139.72 211.838 139.934 210.122C138.912 209.866 137.837 209.861 136.812 210.108C135.788 210.355 134.848 210.846 134.082 211.533C132.382 211.704 133.665 208.561 132.402 207.475C131.787 207.12 131.055 206.991 130.345 207.113C126.728 207.146 123.801 204.539 120.95 202.44C116.011 198.812 110.235 196.33 104.089 195.194C100.004 194.443 95.6604 194.322 91.7865 195.756C88.6591 197.078 85.8367 198.965 83.4781 201.308C77.4131 206.803 72.0419 213.259 69.519 220.822C67.4676 227.017 67.4096 233.645 69.3519 239.871C70.3684 243.104 73.4328 254.177 77.9188 254.435C83.5553 254.759 80.171 245.539 87.1868 245.144Z" fill="#2F2E41"/>
<path d="M101.111 359.16C84.2911 347.404 66.7638 345.101 48.4316 353.556L55.7117 307.829C56.5223 302.735 59.2472 298.085 63.3899 294.723C67.5322 291.362 72.8177 289.513 78.2849 289.513C84.3388 289.513 90.1446 291.779 94.4255 295.812C98.7061 299.846 101.111 305.316 101.111 311.02V359.16Z" fill="#0B2E72"/>
<path d="M734.136 244.199L730.388 243.017L764.757 146.357C767.368 139.01 768.421 131.251 767.848 123.521C767.28 115.792 765.099 108.244 761.432 101.309C757.764 94.374 752.684 88.187 746.478 83.1017C740.277 78.0167 733.069 74.1327 725.27 71.6716V71.6712L507.913 3.0695C500.114 0.608405 491.881 -0.381542 483.674 0.15618C475.472 0.6939 467.461 2.74876 460.1 6.20343C452.739 9.65812 446.172 14.4449 440.777 20.2906C435.378 26.1363 431.257 32.9263 428.642 40.2731L240.1 570.56C234.825 585.398 236.021 601.602 243.427 615.609C250.832 629.616 263.839 640.277 279.587 645.246L496.946 713.849C512.694 718.818 529.89 717.692 544.759 710.715C559.624 703.739 570.94 691.482 576.213 676.644L705.927 311.822L709.671 313.004L734.136 244.199Z" fill="#3F3D56"/>
<path d="M722.493 86.9829L694.119 78.0279C694.353 81.4538 693.689 84.8807 692.183 88.0075C690.682 91.1343 688.382 93.8647 685.494 95.958C682.61 98.0512 679.219 99.4433 675.625 100.012C672.031 100.58 668.344 100.307 664.892 99.2171L540.369 59.9158C536.913 58.8252 533.799 56.951 531.295 54.458C528.788 51.965 526.971 48.9299 526.007 45.6202C525.04 42.3106 524.951 38.8274 525.75 35.4783C526.549 32.129 528.212 29.0162 530.589 26.4142L504.088 18.0503C492.326 14.3385 479.485 15.1804 468.383 20.3908C457.281 25.6011 448.829 34.7532 444.889 45.8335L256.623 575.342C252.684 586.424 253.577 598.527 259.108 608.984C264.638 619.445 274.351 627.407 286.112 631.118L504.514 700.05C510.34 701.889 516.488 702.628 522.617 702.226C528.742 701.825 534.724 700.29 540.223 697.709C545.719 695.132 550.622 691.554 554.654 687.191C558.683 682.824 561.762 677.755 563.713 672.266L751.981 142.757C753.932 137.27 754.715 131.476 754.289 125.703C753.863 119.931 752.235 114.295 749.497 109.116C746.759 103.937 742.965 99.3164 738.33 95.5188C733.695 91.7212 728.315 88.8206 722.493 86.9829Z" fill="white"/>
<path d="M667.872 264.63L434.794 191.066C433.649 190.703 432.705 189.928 432.167 188.91C431.63 187.892 431.541 186.715 431.921 185.636L451.291 131.163C451.675 130.085 452.497 129.195 453.58 128.688C454.659 128.181 455.907 128.098 457.051 128.458L690.133 202.022C691.277 202.385 692.222 203.16 692.759 204.178C693.297 205.195 693.385 206.373 693.001 207.451L673.636 261.925C673.248 263.003 672.426 263.893 671.347 264.4C670.268 264.907 669.016 264.99 667.872 264.63ZM456.475 130.085C455.788 129.869 455.039 129.918 454.39 130.222C453.741 130.527 453.249 131.061 453.015 131.707L433.65 186.181C433.419 186.828 433.473 187.535 433.795 188.146C434.118 188.756 434.682 189.221 435.37 189.439L668.452 263.003C669.139 263.219 669.888 263.17 670.537 262.865C671.182 262.561 671.677 262.027 671.908 261.38L691.277 206.907C691.504 206.259 691.454 205.553 691.131 204.942C690.809 204.331 690.24 203.866 689.553 203.649L456.475 130.085Z" fill="#3F3D56"/>
<path d="M591.239 480.164L358.159 406.6C357.015 406.238 356.07 405.464 355.532 404.446C354.994 403.427 354.907 402.248 355.289 401.172L391.14 300.337C391.524 299.259 392.345 298.369 393.428 297.862C394.507 297.355 395.759 297.272 396.904 297.632L629.982 371.198C631.126 371.56 632.071 372.335 632.608 373.353C633.146 374.371 633.234 375.547 632.854 376.626L596.999 477.461C596.615 478.537 595.793 479.426 594.714 479.935C593.631 480.44 592.383 480.523 591.239 480.164ZM396.324 299.259C395.636 299.043 394.888 299.092 394.239 299.397C393.59 299.701 393.098 300.235 392.868 300.882L357.015 401.717C356.786 402.363 356.838 403.069 357.161 403.678C357.484 404.291 358.051 404.757 358.737 404.973L591.819 478.537C592.502 478.752 593.255 478.705 593.9 478.401C594.549 478.096 595.045 477.562 595.275 476.916L631.126 376.081C631.356 375.432 631.303 374.726 630.98 374.116C630.657 373.507 630.089 373.041 629.402 372.822L396.324 299.259Z" fill="#3F3D56"/>
<path d="M636.072 348.672L532.478 315.976C531.334 315.614 530.389 314.839 529.851 313.821C529.314 312.803 529.225 311.626 529.609 310.548L548.975 256.074C549.363 254.996 550.185 254.106 551.264 253.599C552.343 253.092 553.595 253.009 554.739 253.369L658.329 286.065C659.474 286.427 660.418 287.202 660.956 288.22C661.493 289.238 661.582 290.415 661.202 291.493L641.832 345.967C641.448 347.045 640.626 347.935 639.544 348.442C638.464 348.949 637.216 349.032 636.072 348.672ZM554.159 254.996C553.472 254.78 552.723 254.83 552.074 255.134C551.429 255.438 550.933 255.972 550.703 256.619L531.334 311.093C531.107 311.74 531.157 312.446 531.48 313.057C531.806 313.667 532.37 314.132 533.058 314.35L636.648 347.045C637.335 347.261 638.084 347.211 638.733 346.907C639.382 346.603 639.874 346.069 640.104 345.423L659.474 290.948C659.704 290.301 659.65 289.595 659.328 288.984C659.005 288.374 658.437 287.909 657.753 287.691L554.159 254.996Z" fill="#E6E6E6"/>
<path d="M414.902 571.055L311.312 538.36C310.168 537.997 309.223 537.223 308.685 536.205C308.147 535.187 308.059 534.011 308.441 532.932L344.582 431.283C344.967 430.207 345.789 429.315 346.869 428.809C347.95 428.304 349.199 428.221 350.344 428.58L453.937 461.275C455.081 461.637 456.022 462.411 456.563 463.429C457.101 464.448 457.189 465.624 456.805 466.703L420.666 568.352C420.282 569.427 419.457 570.32 418.377 570.825C417.298 571.334 416.047 571.417 414.902 571.055ZM349.766 430.207C349.079 429.989 348.329 430.039 347.681 430.344C347.033 430.648 346.539 431.182 346.308 431.828L310.168 533.477C309.938 534.122 309.991 534.828 310.314 535.441C310.637 536.051 311.204 536.517 311.89 536.732L415.482 569.427C416.169 569.646 416.918 569.596 417.567 569.291C418.212 568.986 418.708 568.452 418.938 567.807L455.081 466.158C455.308 465.512 455.258 464.806 454.931 464.193C454.609 463.584 454.044 463.118 453.357 462.902L349.766 430.207Z" fill="#E6E6E6"/>
<path d="M542.666 611.379L439.072 578.684C437.927 578.322 436.986 577.547 436.445 576.529C435.907 575.511 435.819 574.335 436.203 573.256L472.342 471.607C472.726 470.531 473.552 469.639 474.631 469.133C475.71 468.628 476.962 468.545 478.106 468.904L581.696 501.599C582.841 501.961 583.785 502.736 584.323 503.754C584.861 504.772 584.949 505.948 584.569 507.027L548.426 608.676C548.042 609.755 547.22 610.644 546.137 611.15C545.058 611.659 543.81 611.741 542.666 611.379ZM477.526 470.531C476.839 470.313 476.09 470.363 475.441 470.668C474.796 470.972 474.301 471.507 474.07 472.152L437.931 573.801C437.701 574.446 437.751 575.153 438.077 575.766C438.4 576.375 438.964 576.841 439.652 577.056L543.242 609.755C543.929 609.97 544.678 609.92 545.327 609.615C545.976 609.31 546.467 608.776 546.702 608.131L582.841 506.482C583.071 505.837 583.017 505.13 582.695 504.517C582.372 503.908 581.804 503.442 581.12 503.227L477.526 470.531Z" fill="#E6E6E6"/>
<path d="M418.692 361.709C428.934 361.709 437.232 353.886 437.232 344.238C437.232 334.589 428.934 326.767 418.692 326.767C408.451 326.767 400.149 334.589 400.149 344.238C400.149 353.886 408.451 361.709 418.692 361.709Z" fill="#0B2E72"/>
<path d="M463.226 346.01C462.838 345.887 462.431 345.836 462.024 345.861C461.621 345.886 461.221 345.986 460.857 346.156C460.492 346.327 460.165 346.563 459.9 346.852C459.632 347.141 459.428 347.478 459.297 347.841C459.167 348.205 459.117 348.59 459.144 348.972C459.175 349.355 459.282 349.729 459.466 350.072C459.647 350.415 459.9 350.72 460.208 350.971C460.519 351.221 460.876 351.412 461.264 351.532L599.407 395.135C599.795 395.257 600.202 395.307 600.609 395.282C601.016 395.257 601.411 395.157 601.776 394.988C602.141 394.816 602.467 394.583 602.736 394.293C603.001 394.002 603.209 393.665 603.335 393.303C603.466 392.938 603.52 392.554 603.489 392.17C603.458 391.79 603.351 391.414 603.17 391.073C602.986 390.729 602.732 390.424 602.425 390.173C602.118 389.923 601.757 389.733 601.373 389.611L463.226 346.01Z" fill="#E6E6E6"/>
<path d="M457.335 362.576C456.947 362.454 456.54 362.4 456.133 362.425C455.73 362.451 455.331 362.555 454.966 362.723C454.601 362.892 454.275 363.128 454.01 363.419C453.741 363.709 453.537 364.042 453.407 364.408C453.276 364.77 453.226 365.157 453.253 365.537C453.284 365.921 453.391 366.294 453.576 366.638C453.756 366.982 454.01 367.287 454.317 367.538C454.628 367.789 454.985 367.979 455.373 368.097L514.818 386.861C515.593 387.101 516.438 387.044 517.168 386.696C517.897 386.352 518.454 385.749 518.711 385.018C518.973 384.29 518.915 383.494 518.55 382.803C518.189 382.114 517.552 381.587 516.78 381.34L457.335 362.576Z" fill="#E6E6E6"/>
<path d="M393.824 371.987C391.597 371.284 389.343 371.947 388.801 373.471C388.26 374.995 389.634 376.805 391.862 377.508L582.461 437.664C584.692 438.367 586.946 437.704 587.487 436.18C588.029 434.656 586.654 432.846 584.427 432.143L393.824 371.987Z" fill="#E6E6E6"/>
<path d="M387.937 388.553C385.706 387.851 383.452 388.514 382.911 390.038C382.37 391.561 383.743 393.372 385.971 394.074L576.574 454.231C578.801 454.937 581.055 454.27 581.596 452.746C582.138 451.226 580.763 449.412 578.536 448.71L387.937 388.553Z" fill="#E6E6E6"/>
<path d="M482.879 186.571C493.121 186.571 501.423 178.75 501.423 169.101C501.423 159.453 493.121 151.631 482.879 151.631C472.642 151.631 464.339 159.453 464.339 169.101C464.339 178.75 472.642 186.571 482.879 186.571Z" fill="#0B2E72"/>
<path d="M527.413 170.873C527.029 170.751 526.622 170.702 526.219 170.728C525.812 170.755 525.416 170.856 525.055 171.027C524.69 171.197 524.368 171.433 524.099 171.722C523.834 172.01 523.63 172.346 523.5 172.708C523.373 173.071 523.319 173.454 523.346 173.836C523.377 174.218 523.484 174.59 523.665 174.933C523.845 175.275 524.099 175.58 524.402 175.831C524.709 176.082 525.067 176.274 525.451 176.395L663.598 219.996C664.373 220.237 665.218 220.178 665.948 219.833C666.677 219.488 667.234 218.885 667.495 218.155C667.753 217.426 667.695 216.629 667.334 215.939C666.969 215.249 666.336 214.723 665.56 214.474L527.413 170.873Z" fill="#E6E6E6"/>
<path d="M521.522 187.44C521.138 187.318 520.731 187.269 520.328 187.295C519.921 187.322 519.525 187.423 519.164 187.593C518.8 187.764 518.477 188 518.208 188.289C517.943 188.577 517.74 188.912 517.609 189.275C517.482 189.638 517.429 190.021 517.456 190.403C517.486 190.784 517.594 191.157 517.774 191.499C517.955 191.842 518.208 192.147 518.512 192.398C518.819 192.649 519.176 192.84 519.56 192.962L579.005 211.723C579.78 211.964 580.625 211.905 581.359 211.56C582.088 211.215 582.641 210.612 582.902 209.882C583.16 209.153 583.102 208.356 582.741 207.666C582.38 206.976 581.743 206.45 580.971 206.202L521.522 187.44Z" fill="#E6E6E6"/>
<path d="M508.212 308.331L411.035 277.66L447.174 247.557C447.823 247.018 448.61 246.648 449.455 246.486C450.304 246.324 451.183 246.375 452.001 246.634C452.819 246.892 453.553 247.35 454.125 247.96C454.701 248.57 455.093 249.312 455.261 250.11L459.363 269.136L485.614 247.271C486.424 246.596 487.411 246.133 488.471 245.93C489.53 245.727 490.629 245.791 491.658 246.115C492.683 246.439 493.601 247.011 494.319 247.776C495.033 248.54 495.525 249.468 495.74 250.468L508.212 308.331ZM414.606 276.977L505.801 305.76L493.958 250.809C493.804 250.105 493.459 249.45 492.952 248.912C492.449 248.373 491.8 247.97 491.078 247.742C490.356 247.513 489.58 247.469 488.832 247.612C488.087 247.755 487.392 248.08 486.819 248.557L458.207 272.39L453.48 250.452C453.372 249.948 453.123 249.481 452.762 249.096C452.401 248.711 451.94 248.423 451.421 248.26C450.907 248.097 450.354 248.065 449.82 248.167C449.286 248.269 448.791 248.502 448.38 248.842L414.606 276.977Z" fill="#E6E6E6"/>
<path d="M632.524 347.563L535.346 316.892L571.482 286.789C572.131 286.25 572.918 285.88 573.767 285.718C574.611 285.556 575.491 285.607 576.309 285.865C577.13 286.124 577.864 286.582 578.436 287.192C579.008 287.802 579.4 288.544 579.573 289.342L583.674 308.368L609.921 286.503C610.735 285.828 611.718 285.365 612.778 285.162C613.842 284.959 614.94 285.023 615.965 285.347C616.991 285.671 617.908 286.244 618.626 287.008C619.345 287.772 619.836 288.7 620.051 289.699L632.524 347.563ZM538.914 316.209L630.112 344.992L618.266 290.041C618.112 289.337 617.766 288.682 617.263 288.144C616.756 287.605 616.111 287.202 615.385 286.973C614.664 286.745 613.888 286.7 613.143 286.843C612.394 286.986 611.699 287.313 611.131 287.789L582.518 311.621L577.787 289.683C577.68 289.18 577.434 288.713 577.073 288.328C576.712 287.944 576.247 287.655 575.733 287.492C575.214 287.329 574.661 287.297 574.128 287.399C573.594 287.502 573.098 287.734 572.691 288.074L538.914 316.209Z" fill="#E6E6E6"/>
<path d="M508.308 308.348L404.718 275.652C403.574 275.29 402.629 274.515 402.092 273.497C401.554 272.479 401.466 271.302 401.846 270.223L421.215 215.75C421.599 214.672 422.421 213.782 423.504 213.275C424.583 212.768 425.831 212.685 426.975 213.045L530.569 245.741C531.714 246.103 532.658 246.878 533.196 247.896C533.734 248.913 533.822 250.091 533.438 251.169L514.072 305.643C513.685 306.721 512.863 307.611 511.784 308.118C510.701 308.625 509.453 308.708 508.308 308.348ZM426.399 214.672C425.712 214.456 424.963 214.505 424.314 214.81C423.665 215.114 423.174 215.648 422.943 216.295L403.574 270.768C403.343 271.415 403.397 272.122 403.72 272.732C404.042 273.343 404.611 273.808 405.294 274.026L508.888 306.721C509.572 306.937 510.325 306.887 510.973 306.583C511.619 306.279 512.114 305.745 512.344 305.098L531.714 250.624C531.94 249.977 531.89 249.271 531.568 248.66C531.241 248.049 530.677 247.584 529.99 247.367L426.399 214.672Z" fill="#E6E6E6"/>
<path d="M364.964 456.507C364.579 456.385 364.171 456.335 363.765 456.36C363.358 456.385 362.961 456.485 362.596 456.654C362.231 456.826 361.905 457.063 361.638 457.349C361.37 457.64 361.165 457.977 361.036 458.339C360.907 458.705 360.855 459.088 360.884 459.472C360.913 459.852 361.021 460.228 361.204 460.569C361.387 460.913 361.639 461.218 361.948 461.469C362.256 461.72 362.614 461.91 363.001 462.031L422.444 480.792C422.832 480.914 423.239 480.964 423.642 480.935C424.049 480.91 424.445 480.81 424.806 480.638C425.171 480.469 425.493 480.233 425.762 479.942C426.027 479.655 426.23 479.318 426.361 478.956C426.488 478.594 426.541 478.211 426.511 477.831C426.484 477.447 426.376 477.074 426.196 476.734C426.015 476.389 425.762 476.085 425.455 475.834C425.151 475.583 424.794 475.393 424.41 475.271L364.964 456.507Z" fill="#E6E6E6"/>
<path d="M359.18 472.779C358.405 472.539 357.559 472.596 356.829 472.94C356.099 473.285 355.544 473.89 355.284 474.618C355.025 475.35 355.082 476.145 355.444 476.834C355.807 477.526 356.444 478.053 357.217 478.3L416.661 497.06C417.437 497.301 418.281 497.243 419.015 496.899C419.744 496.555 420.297 495.949 420.558 495.221C420.82 494.49 420.758 493.694 420.397 493.006C420.036 492.314 419.399 491.787 418.627 491.539L359.18 472.779Z" fill="#E6E6E6"/>
<path d="M370.56 533.746C366.912 532.595 363.708 530.447 361.354 527.583C358.999 524.715 357.6 521.255 357.333 517.638C357.066 514.021 357.943 510.414 359.853 507.267C361.764 504.119 364.621 501.577 368.065 499.961C371.509 498.344 375.384 497.727 379.201 498.186C383.017 498.645 386.605 500.158 389.508 502.538C392.411 504.919 394.496 508.056 395.51 511.551C396.52 515.05 396.404 518.75 395.183 522.188C393.54 526.794 390.026 530.598 385.41 532.763C380.792 534.932 375.452 535.284 370.56 533.746ZM382.339 500.613C379.033 499.57 375.472 499.473 372.107 500.337C368.742 501.201 365.725 502.983 363.436 505.464C361.147 507.941 359.69 511.006 359.249 514.265C358.807 517.524 359.402 520.832 360.957 523.772C362.511 526.715 364.957 529.157 367.984 530.788C371.011 532.419 374.484 533.168 377.962 532.939C381.442 532.71 384.769 531.516 387.53 529.505C390.287 527.493 392.349 524.758 393.459 521.643C394.938 517.466 394.6 512.906 392.514 508.963C390.429 505.019 386.77 502.018 382.339 500.613Z" fill="#E6E6E6"/>
<path d="M528.043 583.452C528.43 583.574 528.838 583.627 529.245 583.602C529.652 583.577 530.047 583.477 530.412 583.305C530.777 583.136 531.103 582.9 531.372 582.609C531.637 582.319 531.844 581.985 531.971 581.62C532.102 581.258 532.155 580.871 532.125 580.491C532.098 580.107 531.986 579.734 531.806 579.39C531.622 579.046 531.368 578.741 531.061 578.49C530.754 578.239 530.393 578.049 530.009 577.931L470.564 559.167C470.176 559.045 469.769 558.991 469.362 559.016C468.955 559.042 468.56 559.142 468.195 559.314C467.83 559.482 467.504 559.719 467.235 560.009C466.97 560.3 466.763 560.633 466.636 560.999C466.505 561.361 466.455 561.748 466.482 562.128C466.513 562.512 466.62 562.885 466.805 563.229C466.985 563.573 467.239 563.878 467.546 564.129C467.853 564.38 468.214 564.57 468.598 564.688L528.043 583.452Z" fill="#E6E6E6"/>
<path d="M533.83 567.187C534.214 567.309 534.621 567.355 535.024 567.33C535.431 567.305 535.827 567.201 536.188 567.033C536.552 566.861 536.879 566.624 537.144 566.337C537.409 566.047 537.612 565.713 537.743 565.351C537.873 564.989 537.923 564.606 537.897 564.222C537.866 563.842 537.758 563.469 537.578 563.125C537.397 562.784 537.148 562.48 536.84 562.229C536.533 561.978 536.176 561.784 535.792 561.662L476.347 542.902C475.963 542.776 475.553 542.726 475.149 542.751C474.742 542.776 474.343 542.877 473.978 543.049C473.613 543.217 473.287 543.454 473.022 543.744C472.753 544.035 472.55 544.368 472.419 544.734C472.289 545.096 472.239 545.48 472.265 545.863C472.296 546.247 472.404 546.62 472.588 546.964C472.769 547.308 473.022 547.613 473.329 547.864C473.64 548.115 473.997 548.305 474.385 548.423L533.83 567.187Z" fill="#E6E6E6"/>
<path d="M522.447 506.213C526.096 507.364 529.298 509.508 531.656 512.376C534.01 515.244 535.408 518.703 535.677 522.317C535.942 525.934 535.066 529.544 533.154 532.692C531.245 535.836 528.388 538.381 524.944 539.994C521.499 541.611 517.624 542.231 513.807 541.773C509.99 541.314 506.404 539.797 503.501 537.42C500.597 535.04 498.508 531.903 497.498 528.404C496.489 524.909 496.6 521.205 497.825 517.767C499.468 513.164 502.982 509.361 507.598 507.192C512.218 505.026 517.555 504.675 522.447 506.213ZM510.67 539.342C513.976 540.385 517.536 540.482 520.9 539.618C524.264 538.758 527.282 536.972 529.571 534.495C531.86 532.014 533.319 528.953 533.76 525.694C534.202 522.435 533.607 519.122 532.052 516.183C530.496 513.243 528.05 510.802 525.024 509.171C521.998 507.539 518.523 506.79 515.044 507.02C511.565 507.245 508.239 508.443 505.478 510.45C502.721 512.462 500.659 515.197 499.549 518.312C498.071 522.492 498.409 527.053 500.494 530.992C502.579 534.936 506.238 537.94 510.67 539.342Z" fill="#E6E6E6"/>
</g>
<defs>
<clipPath id="clip0">
<rect width="768" height="717" fill="white"/>
</clipPath>
</defs>
</svg>
