<svg width="1486" height="1045" viewBox="0 0 1486 1045" fill="none" xmlns="http://www.w3.org/2000/svg">
<path opacity="0.1" d="M39.5457 959.024C59.607 959.024 75.8697 956.973 75.8697 954.439C75.8697 951.906 59.607 949.853 39.5457 949.853C19.4847 949.853 3.22192 951.906 3.22192 954.439C3.22192 956.973 19.4847 959.024 39.5457 959.024Z" fill="#0B2E72"/>
<path d="M177.455 967.59C177.455 967.59 237.132 856.114 253.521 858.556C261.301 859.718 264.889 866.747 266.519 873.813C268.542 882.973 267.406 892.482 263.27 901.02C254.829 918.783 232.011 952.695 177.455 967.59Z" fill="#0B2E72"/>
<path d="M253.029 879.718C253.029 879.718 190.398 963.121 178.299 966.777" stroke="#565987" stroke-miterlimit="10"/>
<path d="M258.797 892.726H244.18" stroke="#565987" stroke-miterlimit="10"/>
<path d="M241.281 923.24L218.378 924.149" stroke="#565987" stroke-miterlimit="10"/>
<path d="M227.34 898.838L229.83 909.793" stroke="#565987" stroke-miterlimit="10"/>
<path d="M179.185 967.59C179.185 967.59 119.508 856.114 103.119 858.556C95.3393 859.718 91.7521 866.747 90.1202 873.813C88.1136 882.948 89.2544 892.43 93.384 900.943C101.839 918.783 124.587 952.695 179.185 967.59Z" fill="#0B2E72"/>
<path d="M97.8151 892.726H112.432" stroke="#565987" stroke-miterlimit="10"/>
<path d="M129.273 898.838L126.783 909.793" stroke="#565987" stroke-miterlimit="10"/>
<path d="M153.632 932.192L153.188 942.153" stroke="#565987" stroke-miterlimit="10"/>
<path d="M344.963 902.868C344.963 902.868 349.832 908.72 342.711 917.543C335.593 926.366 329.741 933.821 332.106 939.324C332.106 939.324 342.84 922.93 351.575 922.698C360.31 922.465 354.572 912.726 344.963 902.868Z" fill="#0B2E72"/>
<path opacity="0.1" d="M344.965 902.868C345.388 903.434 345.725 904.052 345.963 904.702C354.488 913.901 359.018 922.479 350.83 922.698C343.192 922.906 334.048 935.437 331.854 938.602C331.923 938.847 332.007 939.079 332.106 939.324C332.106 939.324 342.84 922.93 351.575 922.698C360.313 922.465 354.572 912.726 344.965 902.868Z" fill="#0B2E72"/>
<path d="M354 910.322C354 912.376 353.75 914.042 353.443 914.042C353.136 914.042 352.885 912.376 352.885 910.322C352.885 908.267 353.205 909.237 353.512 909.237C353.819 909.237 354 908.267 354 910.322Z" fill="#FFD037"/>
<path d="M357.118 912.776C355.149 913.758 353.433 914.352 353.292 914.068C353.15 913.783 354.614 912.776 356.583 911.832C358.552 910.89 357.764 911.562 357.92 911.832C358.074 912.104 359.087 911.794 357.118 912.776Z" fill="#FFD037"/>
<path d="M319.247 902.868C319.247 902.868 314.381 908.72 321.499 917.543C328.617 926.366 334.484 933.821 332.106 939.324C332.106 939.324 321.372 922.93 312.635 922.698C303.899 922.465 309.695 912.726 319.247 902.868Z" fill="#0B2E72"/>
<path opacity="0.1" d="M319.247 902.868C318.826 903.434 318.494 904.05 318.262 904.702C309.737 913.901 305.192 922.479 313.38 922.698C321.021 922.906 330.179 935.437 332.374 938.602C332.289 938.847 332.205 939.079 332.106 939.324C332.106 939.324 321.372 922.93 312.635 922.698C303.899 922.465 309.695 912.726 319.247 902.868Z" fill="#0B2E72"/>
<path d="M310.203 910.322C310.203 912.376 310.453 914.042 310.76 914.042C311.064 914.042 311.317 912.376 311.317 910.322C311.317 908.267 311.01 909.237 310.703 909.237C310.396 909.237 310.203 908.267 310.203 910.322Z" fill="#FFD037"/>
<path d="M307.094 912.776C309.063 913.758 310.78 914.352 310.933 914.068C311.089 913.783 309.598 912.776 307.642 911.832C305.688 910.89 306.445 911.562 306.235 911.832C306.024 912.104 305.138 911.794 307.094 912.776Z" fill="#FFD037"/>
<path d="M311.75 938.551C311.75 938.551 325.367 938.175 329.461 935.489C333.555 932.802 350.396 929.597 351.422 933.899C352.45 938.201 371.864 955.294 356.501 955.409C341.139 955.525 320.81 953.212 316.716 950.927C312.622 948.641 311.75 938.551 311.75 938.551Z" fill="#A8A8A8"/>
<path opacity="0.2" d="M356.781 953.909C341.421 954.026 321.078 951.713 316.984 949.426C313.861 947.683 312.622 941.43 312.214 938.535H311.75C311.75 938.535 312.622 948.625 316.716 950.912C320.81 953.198 341.139 955.511 356.501 955.395C360.947 955.395 362.465 953.909 362.381 951.765C361.749 953.082 360.075 953.883 356.781 953.909Z" fill="#0B2E72"/>
<path opacity="0.1" d="M861.516 1045C1117.46 1045 1324.95 1036.36 1324.95 1025.7C1324.95 1015.04 1117.46 1006.4 861.516 1006.4C605.57 1006.4 398.084 1015.04 398.084 1025.7C398.084 1036.36 605.57 1045 861.516 1045Z" fill="#0B2E72"/>
<path d="M814.303 448.657C814.303 448.657 843.847 499.982 846.141 507.307C846.738 509.342 848.025 511.146 849.816 512.461C851.607 513.776 853.808 514.532 856.099 514.619C856.099 514.619 885.53 521.079 892.566 521.944C899.6 522.81 960.57 527.539 960.57 527.539C960.57 527.539 976.044 527.977 977.917 522.81C979.633 518.081 1009.53 493.238 1026.83 514.917C1028.43 516.921 1029.48 519.245 1029.92 521.695C1030.36 524.146 1030.15 526.657 1029.33 529.024C1026.15 538.325 1019.63 553.092 1012.62 543.907C1002.77 530.987 991.323 534.618 991.323 541.503C991.323 548.39 975.566 545.831 970.417 546.8C967.604 547.329 957.925 549.694 949.554 551.762C939.838 554.172 929.887 555.691 919.844 556.295C903.228 557.29 878.736 558.117 870.055 555.107C859.574 551.452 841.301 550.61 833.48 550.417C830.887 550.36 828.386 549.536 826.347 548.066C815.49 540.261 806.306 530.674 799.265 519.786C787.067 500.409 761.984 460.282 763.673 448.657C765.362 437.029 814.303 448.657 814.303 448.657Z" fill="#EFB7B9"/>
<path opacity="0.05" d="M814.303 448.657C814.303 448.657 843.847 499.982 846.141 507.307C846.738 509.342 848.025 511.146 849.816 512.461C851.607 513.776 853.808 514.532 856.099 514.619C856.099 514.619 885.53 521.079 892.566 521.944C899.6 522.81 960.57 527.539 960.57 527.539C960.57 527.539 976.044 527.977 977.917 522.81C979.633 518.081 1009.53 493.238 1026.83 514.917C1028.43 516.921 1029.48 519.245 1029.92 521.695C1030.36 524.146 1030.15 526.657 1029.33 529.024C1026.15 538.325 1019.63 553.092 1012.62 543.907C1002.77 530.987 991.323 534.618 991.323 541.503C991.323 548.39 975.566 545.831 970.417 546.8C967.604 547.329 957.925 549.694 949.554 551.762C939.838 554.172 929.887 555.691 919.844 556.295C903.228 557.29 878.736 558.117 870.055 555.107C859.574 551.452 841.301 550.61 833.48 550.417C830.887 550.36 828.386 549.536 826.347 548.066C815.49 540.261 806.306 530.674 799.265 519.786C787.067 500.409 761.984 460.282 763.673 448.657C765.362 437.029 814.303 448.657 814.303 448.657Z" fill="#0B2E72"/>
<path d="M1268.31 929.442C1268.26 956.893 1256.68 983.267 1235.97 1003.07C1215.27 1022.87 1187.04 1034.57 1157.18 1035.74C1127.31 1036.91 1098.11 1027.44 1075.65 1009.33C1053.19 991.209 1039.21 965.833 1036.62 938.485C1036.46 936.754 1036.33 935.022 1036.27 933.317V933.227C1036.21 931.943 1036.19 930.653 1036.19 929.352C1036.19 901.084 1048.42 873.975 1070.18 853.988C1091.95 834.001 1121.47 822.772 1152.25 822.772C1183.03 822.772 1212.55 834.001 1234.32 853.988C1256.08 873.975 1268.31 901.084 1268.31 929.352V929.442Z" fill="#65617D"/>
<path d="M1152.25 987.511C1187.21 987.511 1215.56 961.483 1215.56 929.376C1215.56 897.27 1187.21 871.242 1152.25 871.242C1117.29 871.242 1088.94 897.27 1088.94 929.376C1088.94 961.483 1117.29 987.511 1152.25 987.511Z" fill="#DCE0ED"/>
<path d="M1152.25 964.258C1173.23 964.258 1190.23 948.641 1190.23 929.378C1190.23 910.113 1173.23 894.496 1152.25 894.496C1131.27 894.496 1114.26 910.113 1114.26 929.378C1114.26 948.641 1131.27 964.258 1152.25 964.258Z" fill="#65617D"/>
<path d="M847.451 726.979L567.974 732.146V694.319C570.478 663.871 604.549 653.186 635.5 649.84C659.697 647.318 684.194 649.006 707.712 654.814C767.009 669.232 804.78 672.022 823.393 672.294C827.479 672.349 831.417 673.699 834.545 676.115C837.673 678.529 839.796 681.861 840.556 685.548C841.443 689.876 842.314 694.591 843.132 699.242C843.751 702.884 844.34 706.476 844.875 709.821C846.423 719.46 847.451 726.979 847.451 726.979Z" fill="#65617D"/>
<path d="M1070.42 936.263H489.837C485.355 936.305 480.959 935.136 477.194 932.901C473.43 930.665 470.465 927.464 468.667 923.693C464.291 914.095 470.411 907.971 476.939 904.38C490.296 897.108 500.423 885.732 505.525 872.263C511.714 855.469 517.764 829.192 520.142 788.136C522.589 745.672 539.329 724.68 557.421 714.5C580.788 701.373 606.407 706.296 606.407 706.296L841.809 708.026C845.997 709.773 849.873 712.094 853.301 714.913C874.278 732.843 843.694 756.253 843.694 756.253C778.037 819.98 827.739 884.575 827.739 884.575H948.192C970.697 884.681 992.702 878.495 1011.29 866.838C1027.56 856.503 1033.8 846.516 1036.3 840.471C1038.16 835.845 1040.04 831.233 1042.29 826.764C1073.89 763.836 1035.78 661.468 1019.33 623.189C1015.25 613.668 1012.51 608.113 1012.51 608.113L1050.28 605.529L1074.2 603.862H1074.44C1127.08 687.241 1146.65 772.917 1153.22 836.401C1153.84 842.382 1154.34 848.183 1154.75 853.751C1155.5 864.337 1153.87 874.951 1149.97 884.936C1146.06 894.921 1139.97 904.063 1132.06 911.798C1124.16 919.532 1114.61 925.696 1104 929.904C1093.4 934.112 1081.97 936.277 1070.42 936.263Z" fill="#0B2E72"/>
<path opacity="0.1" d="M844.89 709.822H567.974V699.243H843.144C843.763 702.82 844.355 706.411 844.89 709.822Z" fill="#0B2E72"/>
<path opacity="0.1" d="M853.316 714.989H559.657C558.894 714.993 558.137 714.851 557.436 714.576C580.801 701.451 606.419 706.373 606.419 706.373L841.821 708.104C846.012 709.849 849.888 712.171 853.316 714.989Z" fill="#0B2E72"/>
<path d="M855.763 701.763H456.903C453.725 701.763 451.15 704.128 451.15 707.045V707.059C451.15 709.976 453.725 712.343 456.903 712.343H855.763C858.94 712.343 861.516 709.976 861.516 707.059V707.045C861.516 704.128 858.94 701.763 855.763 701.763Z" fill="#DCE0ED"/>
<path opacity="0.1" d="M1153.22 836.427C1139.84 849.785 1129.99 855.043 1130.46 840.948C1131.86 798.317 1050.27 605.569 1050.27 605.569L1074.4 603.888C1127.05 687.203 1146.63 772.88 1153.22 836.427Z" fill="#0B2E72"/>
<path opacity="0.1" d="M1267.61 917.698C1253.75 920.748 1236.66 923.848 1215.56 926.743C1207.7 927.801 1199.26 928.817 1190.23 929.79C1168.67 932.142 1143.72 934.195 1114.91 935.771C1106.75 936.221 1098.28 936.628 1089.49 936.999C1073.03 937.689 1055.41 938.213 1036.64 938.575L1036.29 933.408V933.317C1062.52 923.59 1103.81 897.636 1110.45 830.031C1127.03 824.164 1144.86 821.87 1162.56 823.324C1180.26 824.778 1197.36 829.944 1212.54 838.423C1227.73 846.903 1240.59 858.468 1250.13 872.23C1259.68 885.991 1265.67 901.582 1267.62 917.803L1267.61 917.698Z" fill="#0B2E72"/>
<path d="M1014.4 936.263C1014.4 936.263 1147.62 922.982 1101.73 736.577C1101.73 736.577 1167.56 791.998 1208.51 822.796C1249.46 853.596 1322.46 896.06 1322.46 896.06C1322.46 896.06 1278.88 933.458 1014.4 936.263Z" fill="#0B2E72"/>
<path opacity="0.1" d="M1014.4 936.263C1014.4 936.263 1147.62 922.982 1101.73 736.577C1101.73 736.577 1167.56 791.998 1208.51 822.796C1249.46 853.596 1322.46 896.06 1322.46 896.06C1322.46 896.06 1278.88 933.458 1014.4 936.263Z" fill="white"/>
<path d="M658.471 1035.96C722.57 1035.96 774.533 988.239 774.533 929.378C774.533 870.515 722.57 822.796 658.471 822.796C594.373 822.796 542.41 870.515 542.41 929.378C542.41 988.239 594.373 1035.96 658.471 1035.96Z" fill="#65617D"/>
<path d="M658.471 987.511C693.434 987.511 721.777 961.483 721.777 929.376C721.777 897.27 693.434 871.242 658.471 871.242C623.508 871.242 595.165 897.27 595.165 929.376C595.165 961.483 623.508 987.511 658.471 987.511Z" fill="#DCE0ED"/>
<path d="M658.471 964.258C679.451 964.258 696.456 948.641 696.456 929.378C696.456 910.113 679.451 894.496 658.471 894.496C637.494 894.496 620.489 910.113 620.489 929.378C620.489 948.641 637.494 964.258 658.471 964.258Z" fill="#65617D"/>
<path opacity="0.1" d="M788.6 897.364C788.6 828.546 729.079 772.75 655.658 772.75C582.237 772.75 522.715 828.546 522.715 897.364C522.715 900.276 522.822 903.157 523.037 906.006H788.278C788.494 903.157 788.6 900.276 788.6 897.364Z" fill="#0B2E72"/>
<path d="M783.677 895.22C783.677 828.946 726.364 775.218 655.658 775.218C584.952 775.218 527.639 828.946 527.639 895.22C527.639 898.024 527.75 900.788 527.949 903.54H783.367C783.565 900.788 783.677 898.024 783.677 895.22Z" fill="#0B2E72"/>
<path opacity="0.1" d="M783.677 895.22C783.677 897.145 783.677 899.095 783.523 900.955C783.523 901.821 783.424 902.674 783.367 903.54H527.949C527.949 902.674 527.835 901.821 527.793 900.955C527.693 899.057 527.639 897.08 527.639 895.22C527.639 828.946 584.952 775.218 655.658 775.218C726.364 775.218 783.677 828.946 783.677 895.22Z" fill="#0B2E72"/>
<path opacity="0.1" d="M783.523 901.02C783.523 901.886 783.424 902.737 783.367 903.603H527.949C527.949 902.737 527.835 901.886 527.792 901.02H783.523Z" fill="#0B2E72"/>
<path opacity="0.1" d="M800.558 906.123H486.643C478.353 906.123 471.632 912.29 471.632 919.9C471.632 927.509 478.353 933.678 486.643 933.678H800.558C808.85 933.678 815.569 927.509 815.569 919.9C815.569 912.29 808.85 906.123 800.558 906.123Z" fill="#0B2E72"/>
<path d="M800.558 903.54H486.643C478.353 903.54 471.632 909.709 471.632 917.318C471.632 924.928 478.353 931.097 486.643 931.097H800.558C808.85 931.097 815.569 924.928 815.569 917.318C815.569 909.709 808.85 903.54 800.558 903.54Z" fill="#DCE0ED"/>
<path opacity="0.1" d="M1130.32 723.818C1138.8 720.296 1137.85 701.547 1128.2 681.939C1118.54 662.331 1103.84 649.29 1095.36 652.812C1086.88 656.333 1087.83 675.084 1097.49 694.692C1107.14 714.299 1121.84 727.339 1130.32 723.818Z" fill="#0B2E72"/>
<path d="M1131.73 722.522C1140.21 719 1139.26 700.251 1129.6 680.643C1119.95 661.036 1105.25 647.996 1096.76 651.517C1088.28 655.039 1089.23 673.788 1098.89 693.396C1108.54 713.003 1123.25 726.043 1131.73 722.522Z" fill="#DCE0ED"/>
<path opacity="0.1" d="M1074.18 603.888V624.133H1031.28C1027.28 624.137 1023.29 623.842 1019.35 623.254C1015.27 613.734 1012.53 608.178 1012.53 608.178L1050.3 605.595L1074.18 603.888Z" fill="#0B2E72"/>
<path d="M1074.18 621.496H1031.28C993.587 621.496 963.047 595.659 963.047 563.659V558.298C963.047 526.363 993.587 500.473 1031.28 500.473L1074.18 504.052V621.496Z" fill="#0B2E72"/>
<path d="M1003.49 534.709C1003.49 534.709 1029.17 547.305 1014.39 568.621C1014.39 568.621 996.274 595.904 967.787 593.321L957.417 534.709C957.417 534.709 991.534 531.802 1003.49 534.709Z" fill="#0B2E72"/>
<path opacity="0.1" d="M993.631 533.572C997.71 533.713 1001.71 534.695 1005.32 536.444C1008.93 538.192 1012.07 540.662 1014.51 543.673C1019.08 549.487 1021.81 557.962 1014.42 568.619C1014.42 568.619 996.304 595.904 967.815 593.321L957.447 534.709C957.447 534.709 978.789 532.835 993.631 533.572Z" fill="#0B2E72"/>
<path opacity="0.1" d="M1072.78 504.052H1081.05C1088 504.052 1094.66 506.586 1099.57 511.097C1104.49 515.61 1107.25 521.728 1107.25 528.108V597.456C1107.25 603.836 1104.49 609.954 1099.57 614.465C1094.66 618.976 1088 621.51 1081.05 621.51H1072.78V504.052Z" fill="#0B2E72"/>
<path d="M1074.18 504.052H1082.46C1089.4 504.052 1096.07 506.586 1100.98 511.097C1105.89 515.61 1108.65 521.728 1108.65 528.108V597.456C1108.65 603.836 1105.89 609.954 1100.98 614.465C1096.07 618.976 1089.4 621.51 1082.46 621.51H1074.18V504.052Z" fill="#FFE663"/>
<path d="M769.552 654.891C769.552 654.891 776.177 657.113 785.026 660.214C799.096 665.188 818.932 672.447 825.825 676.427C832.717 680.405 858.42 686.943 877.666 691.541C891.934 694.936 906.623 696.599 921.362 696.489C936.331 696.36 954.463 696.231 959.473 696.231C960.347 696.224 961.224 696.285 962.088 696.412C967.351 697.214 967.138 700.455 967.012 701.23V701.399C936.064 718.619 898.542 795.705 896.207 808.625C894.448 818.313 878.989 845.172 871.363 858.013C868.802 862.315 867.143 865.041 867.143 865.041L876.527 874.937L903.721 886.137L929.508 896.472C929.508 896.472 956.714 897.765 957.18 896.472C957.643 895.18 957.643 881.835 957.643 881.835C954.331 879.873 951.191 877.678 948.246 875.273C942.005 870.283 936.21 864.844 930.915 859.007C915.918 842.639 945.926 811.207 945.926 811.207L1003.6 742.312C1003.6 742.312 1008.29 734.562 1030.8 703.557C1053.31 672.552 1030.8 655.757 1030.8 655.757L991.182 640.655C922.472 617.039 839.597 598.113 839.597 598.113L838.416 597.97L820.844 595.955L769.552 654.891Z" fill="#EFB7B9"/>
<path d="M946.572 886.137C946.572 886.137 951.496 891.474 947.811 891.951C944.125 892.43 934.446 890.504 934.446 890.504L873.067 860.791C873.067 860.791 866.385 856.424 864.81 864.99C863.232 873.555 862.165 872.74 862.165 872.74C862.165 872.74 854.076 888.722 862.165 892.029C870.254 895.337 918.846 908.424 918.846 908.424C918.846 908.424 989.369 923.125 996.051 906.161C1002.73 889.199 984.094 892.12 984.094 892.12C984.094 892.12 960.88 886.952 952.96 876.617C952.903 876.617 941.48 879.524 946.572 886.137Z" fill="#444053"/>
<path opacity="0.05" d="M1030.74 655.757L991.125 640.655C922.417 617.039 839.54 598.113 839.54 598.113L838.359 597.97L820.79 595.955L769.552 654.891C769.552 654.891 776.177 657.113 785.026 660.214C799.096 665.188 818.932 672.447 825.825 676.427C832.717 680.405 858.42 686.943 877.666 691.541C891.934 694.936 906.623 696.599 921.362 696.489C936.331 696.36 954.465 696.231 959.473 696.231C960.35 696.224 961.224 696.285 962.088 696.412C967.351 697.214 967.138 700.455 967.012 701.23V701.399C936.064 718.619 898.542 795.705 896.209 808.625C894.448 818.313 878.989 845.172 871.363 858.013L870.338 859.744C868.297 859.434 865.751 860.106 864.849 864.988C863.259 873.542 862.204 872.741 862.204 872.741C862.204 872.741 854.116 888.72 862.204 892.028C870.293 895.335 918.843 908.422 918.843 908.422C918.843 908.422 989.366 923.123 996.048 906.161C1002.73 889.199 984.091 892.118 984.091 892.118C984.091 892.118 960.88 886.951 952.959 876.616C952.256 876.804 951.57 877.037 950.904 877.314C950.074 876.694 949.187 876.022 948.246 875.273C942.008 870.283 936.21 864.844 930.914 859.007C915.918 842.639 945.926 811.207 945.926 811.207L1003.6 742.312C1003.6 742.312 1008.29 734.562 1030.8 703.557C1053.31 672.552 1030.74 655.757 1030.74 655.757Z" fill="#0B2E72"/>
<path d="M722.312 366.777L724.45 369.258L725.646 370.64L733.103 379.256C733.103 379.256 750.898 384.501 766.501 387.899C782.748 391.425 796.605 392.963 785.591 384.527C778.753 379.295 778.302 370.536 780.794 361.145C782.892 353.917 785.893 346.938 789.74 340.346C790.294 339.364 790.842 338.407 791.387 337.477C794.881 331.542 798.752 325.801 802.98 320.282C792.977 313.921 782.602 308.069 771.903 302.752C759.017 296.628 748.436 293.953 755.148 306.072C759.452 313.822 758.046 322.53 754.021 330.862C753.712 331.521 753.375 332.155 753.023 332.839C749.412 339.296 744.952 345.322 739.743 350.784C734.406 356.533 728.578 361.882 722.312 366.777Z" fill="#EFB7B9"/>
<path d="M811.421 563.569L820.958 571.565L830.174 604.122H814.796L797.816 583.838L811.421 563.569Z" fill="#444053"/>
<path opacity="0.1" d="M797.816 583.838L808.087 596.098L814.796 604.122H830.174L828.599 598.553L821.887 574.834L820.958 571.565L811.421 563.569L798.393 582.973L797.816 583.838Z" fill="#0B2E72"/>
<path opacity="0.1" d="M797.816 583.838L808.087 596.098L814.796 604.122H830.174L828.599 598.553L821.887 574.834L820.958 571.565L811.421 563.569L798.393 582.973L797.816 583.838Z" fill="#0B2E72"/>
<path d="M746.708 669.502C746.708 669.502 753.333 671.724 762.182 674.824C776.249 679.798 796.085 687.059 802.98 691.037C809.873 695.017 835.575 701.554 854.819 706.153C869.087 709.551 883.776 711.22 898.515 711.114C913.484 710.985 931.618 710.856 936.626 710.856C937.503 710.849 938.377 710.91 939.244 711.037C944.504 711.838 944.294 715.079 944.167 715.854V716.023C913.216 733.243 875.697 810.329 873.362 823.249C871.603 832.938 856.142 859.796 848.519 872.638C845.958 876.94 844.298 879.665 844.298 879.665L853.68 889.561L880.861 900.748L906.646 911.083C906.646 911.083 933.855 912.375 934.32 911.083C934.783 909.793 934.783 896.446 934.783 896.446C931.472 894.483 928.329 892.289 925.387 889.884C919.146 884.894 913.35 879.456 908.055 873.62C893.056 857.252 923.064 825.82 923.064 825.82L980.743 756.925C980.743 756.925 985.429 749.173 1007.94 718.167C1030.45 687.162 1007.94 670.367 1007.94 670.367L971.839 651.416C915.567 619.984 836.306 601.899 836.306 601.899L835.125 601.756L817.553 599.741L746.708 669.502Z" fill="#EFB7B9"/>
<path opacity="0.1" d="M844.283 879.651L853.667 889.547L880.861 900.748L906.648 911.083C906.648 911.083 933.854 912.375 934.32 911.083C934.783 909.791 934.783 896.446 934.783 896.446C931.472 894.483 928.332 892.289 925.387 889.883C922.474 891.317 919.168 894.004 922.363 898.163C922.363 898.163 927.286 903.486 923.599 903.977C919.913 904.468 910.234 902.53 910.234 902.53L848.855 872.817L848.504 872.597C845.915 876.925 844.283 879.651 844.283 879.651Z" fill="#0B2E72"/>
<path d="M923.727 900.75C923.727 900.75 928.651 906.073 924.951 906.564C921.251 907.053 911.587 905.102 911.587 905.102L850.22 875.39C850.22 875.39 843.538 871.036 841.948 879.589C840.358 888.14 839.318 887.339 839.318 887.339C839.318 887.339 831.229 903.333 839.318 906.64C847.406 909.948 895.942 922.982 895.942 922.982C895.942 922.982 966.452 937.672 973.134 920.722C979.816 903.772 961.175 906.666 961.175 906.666C961.175 906.666 937.963 901.499 930.058 891.164C930.1 891.216 918.62 894.123 923.727 900.75Z" fill="#444053"/>
<path opacity="0.1" d="M750.45 327.581C758.581 332.749 770.989 340.926 781.582 340.926C784.313 340.926 787.043 340.727 789.742 340.332C793.66 333.379 798.081 326.677 802.98 320.27C802.98 320.27 741.081 280.647 755.148 306.059C759.789 314.508 755.217 318.655 750.45 327.581Z" fill="#0B2E72"/>
<path d="M730.936 291.836C730.929 299.594 733.039 307.227 737.071 314.043C741.103 320.858 746.931 326.637 754.021 330.851C755.614 331.804 757.268 332.668 758.975 333.434C768.832 337.95 780.024 339.393 790.854 337.539C801.685 335.688 811.562 330.642 818.989 323.171C826.417 315.699 830.986 306.207 832.009 296.133C833.029 286.061 830.449 275.956 824.653 267.352C818.858 258.75 810.165 252.116 799.894 248.457C789.623 244.799 778.335 244.317 767.737 247.082C757.139 249.848 747.815 255.711 741.172 263.783C734.532 271.854 730.939 281.695 730.936 291.81V291.836Z" fill="#EFB7B9"/>
<path opacity="0.1" d="M746.708 669.502C746.708 669.502 753.333 671.724 762.182 674.824C767.74 670.329 773.436 665.989 775.813 665.2C780.977 663.469 797.858 654.426 797.395 651.843C796.93 649.258 804.429 639.362 810.985 637.633C817.54 635.902 813.798 626.871 813.798 626.871C813.798 626.871 826.459 622.569 829.609 616.536C832.762 610.503 842.411 602.751 839.12 603.191C837.693 602.977 836.331 602.489 835.125 601.756L817.553 599.741L746.708 669.502Z" fill="#0B2E72"/>
<path d="M708.245 653.999C708.245 653.999 729.824 670.367 730.822 677.679C731.823 684.992 746.227 684.578 746.227 684.578C746.227 684.578 767.809 665.627 772.958 663.908C778.107 662.19 795.002 653.134 794.537 650.551C794.074 647.966 801.571 638.07 808.126 636.339C814.682 634.607 810.942 625.579 810.942 625.579C810.942 625.579 823.603 621.277 826.753 615.244C829.906 609.21 839.555 601.458 836.264 601.897C835.335 602.014 832.368 600.607 828.596 598.551C823.967 595.969 818.102 592.468 813.32 589.509C808.255 586.356 804.387 583.85 804.387 583.85C804.387 583.85 802.177 583.488 798.393 582.984C777.98 580.271 711.494 573.348 696.062 595.904C694.004 598.884 692.461 602.139 691.49 605.553C684.58 629.583 708.245 653.999 708.245 653.999Z" fill="#444053"/>
<path opacity="0.1" d="M730.81 601.782C730.81 601.782 708.777 613.203 700.562 613.203C692.347 613.203 730.81 601.782 730.81 601.782Z" fill="#0B2E72"/>
<path opacity="0.1" d="M745.526 610.503C745.526 610.503 712.718 620.631 712.718 628.588C712.718 636.548 709.652 607.272 745.526 610.503Z" fill="#0B2E72"/>
<path opacity="0.1" d="M824.062 564.887L823.603 565.474C823.813 565.322 823.97 565.119 824.062 564.887Z" fill="#0B2E72"/>
<path opacity="0.1" d="M722.312 366.777L724.45 369.258L725.646 370.64L733.103 379.257C733.103 379.257 750.898 384.501 766.501 387.899C782.748 391.426 796.607 392.963 785.591 384.527C778.753 379.295 778.302 370.536 780.794 361.145L780.301 360.563C780.301 360.563 780.794 369.27 775.179 369.439C767.611 369.658 767.514 367.319 760.535 364.62C751.547 361.131 742.331 355.305 739.743 350.77C734.406 356.524 728.578 361.876 722.312 366.777Z" fill="#0B2E72"/>
<path opacity="0.1" d="M691.49 605.517C695.327 607.023 699.649 607.115 703.559 605.774C718.092 601.458 741.078 591.073 751.857 595.62C760.493 599.264 795.285 599.159 808.129 596.098C811.321 595.337 813.149 594.393 812.869 593.281C812.688 592.001 812.857 590.7 813.362 589.497C814.853 585.116 818.905 579.033 821.929 574.834L821 571.565L811.462 563.569L798.435 582.946C778.023 580.235 711.536 573.31 696.104 595.866C694.031 598.844 692.476 602.099 691.49 605.517Z" fill="#0B2E72"/>
<path d="M681.992 595.439C681.992 595.439 687.619 607.492 702.152 603.19C716.685 598.888 739.674 588.488 750.45 593.036C761.226 597.583 812.827 596.293 811.42 590.698C810.014 585.104 824.081 567.444 824.081 567.444C824.081 567.444 816.401 566.153 811.646 543.118C810.942 539.76 810.308 535.935 809.773 531.595C808.612 522.705 808.339 513.736 808.959 504.801C810.858 479.867 820.369 469.687 820.369 469.687C820.369 469.687 833.492 455.916 822.238 436.965C816.344 427.031 792.556 399.5 792.231 387.226C791.936 376.092 780.343 363.146 780.343 363.146C780.343 363.146 780.836 371.855 775.224 372.022C767.655 372.241 767.556 369.904 760.577 367.203C750.323 363.225 739.785 356.209 739.097 351.519C739.097 351.519 696.104 349.544 686.72 389.592C677.336 429.64 680.628 451.602 682.034 456.343C683.441 461.084 695.626 522.228 685.777 548.066C675.929 573.903 681.992 595.439 681.992 595.439Z" fill="#EEEEEE"/>
<path opacity="0.1" d="M752.094 525.085C759.849 537.097 770.224 547.509 782.567 555.665C790.797 555.728 799.017 556.231 807.185 557.175C806.482 553.817 805.779 549.992 805.315 545.652C804.154 536.763 803.879 527.793 804.498 518.858C803.148 518.236 801.957 517.357 801.006 516.279C800.055 515.201 799.367 513.949 798.985 512.606C796.635 505.28 775.714 470.4 775.714 470.4C775.714 470.4 726.773 458.773 725.071 470.4C723.367 482.027 739.897 505.707 752.094 525.085Z" fill="#0B2E72"/>
<path d="M768.317 448.657C768.317 448.657 797.858 499.982 800.152 507.307C800.748 509.342 802.036 511.146 803.827 512.461C805.62 513.776 807.822 514.532 810.113 514.619C810.113 514.619 839.543 521.079 846.577 521.944C853.61 522.81 914.623 527.539 914.623 527.539C914.623 527.539 930.1 527.977 931.97 522.81C933.686 518.081 963.582 493.238 980.884 514.917C982.481 516.921 983.539 519.245 983.975 521.695C984.408 524.146 984.208 526.657 983.39 529.024C980.21 538.325 973.682 553.092 966.675 543.907C956.828 530.987 945.376 534.618 945.376 541.503C945.376 548.39 929.622 545.831 924.473 546.8C921.659 547.329 911.978 549.694 903.609 551.762C893.869 554.177 883.893 555.696 873.827 556.295C857.212 557.29 832.72 558.117 824.039 555.107C813.573 551.452 795.297 550.61 787.464 550.417C784.871 550.36 782.369 549.536 780.331 548.066C769.478 540.261 760.3 530.672 753.263 519.786C741.066 500.409 715.982 460.282 717.671 448.657C719.358 437.029 768.317 448.657 768.317 448.657Z" fill="#EFB7B9"/>
<path opacity="0.1" d="M758.467 377.538C758.467 377.538 774.295 401.656 781.624 418.878C788.954 436.098 797.858 466.251 797.858 466.251L753.768 461.509L750.026 455.916C750.026 455.916 718.543 474.002 722.298 481.754C726.055 489.504 713.857 470.126 714.801 448.164C715.742 426.202 711.41 387.007 714.801 377.538C718.191 368.068 748.099 370.212 758.467 377.538Z" fill="#0B2E72"/>
<path d="M714.858 445.581C713.914 467.543 726.112 486.921 722.357 479.171C718.6 471.419 750.083 453.333 750.083 453.333L753.784 458.927L797.861 463.668C797.861 463.668 788.955 433.515 781.626 416.295C777.223 406.552 772.185 397.062 766.543 387.873C762.028 380.342 758.469 374.955 758.469 374.955C752.406 370.653 739.533 368.133 729.265 368.728C727.662 368.812 726.07 368.988 724.494 369.258C720.274 370.019 716.869 371.492 715.363 373.817C715.135 374.178 714.944 374.559 714.801 374.955C711.425 384.424 715.759 423.62 714.858 445.581Z" fill="#EEEEEE"/>
<path opacity="0.1" d="M695.161 505.705C695.161 505.705 713.802 529.282 719.429 529.928C719.387 529.979 695.47 525.083 695.161 505.705Z" fill="#0B2E72"/>
<path opacity="0.1" d="M695.161 539.295C695.161 539.295 730.332 571.915 741.586 572.237C752.84 572.561 695.161 539.295 695.161 539.295Z" fill="#0B2E72"/>
<path opacity="0.1" d="M695.161 552.911C695.161 552.911 717.671 577.134 719.078 577.134C720.485 577.134 694.767 568.736 695.161 552.911Z" fill="#0B2E72"/>
<g opacity="0.1" filter="url(#filter0_d)">
<path opacity="0.1" d="M715.321 373.817C718.939 373.321 722.434 372.246 725.646 370.639C726.857 370.057 728.053 369.411 729.22 368.726C733.834 365.893 738.131 362.646 742.051 359.038C748.521 353.264 754.98 346.959 757.652 339.04C758.254 337.214 758.695 335.347 758.975 333.459C760.577 323.525 759.227 312.556 766.964 305.8C768.418 304.539 770.087 303.504 771.903 302.738C782.877 297.945 798.787 301.045 806.975 292.403C812.181 286.926 812.054 279.316 816.049 273.36C817.793 270.777 821 268.542 823.843 266.165C819.705 260.379 814.212 255.515 807.765 251.927C801.318 248.339 794.081 246.118 786.582 245.425C779.08 244.732 771.506 245.585 764.411 247.923C757.318 250.26 750.878 254.022 745.568 258.935C740.258 263.848 736.209 269.788 733.717 276.321C731.223 282.854 730.352 289.815 731.162 296.696C731.971 303.579 734.443 310.208 738.398 316.1C742.354 321.994 747.691 327.001 754.021 330.758C753.714 331.418 753.375 332.05 753.023 332.735C743.359 350.822 722.312 366.685 722.312 366.685L724.452 369.167C720.187 370.057 716.827 371.492 715.321 373.817Z" fill="#0B2E72"/>
<path opacity="0.1" d="M724.772 370.008C722.733 371.013 720.586 371.792 718.372 372.335C719.917 371.328 722.092 370.571 724.772 370.008ZM728.415 368.065C727.642 368.519 726.857 368.953 726.067 369.362L725.51 368.714L723.85 366.791C723.944 366.718 724.048 366.636 724.16 366.548C724.762 366.074 725.629 365.377 726.698 364.485C728.838 362.704 731.788 360.14 735.045 357.007C741.546 350.749 749.296 342.189 754.182 333.041L754.187 333.031C754.269 332.876 754.348 332.721 754.427 332.568C754.692 332.056 754.955 331.55 755.197 331.031L755.46 330.472L754.821 330.093C748.642 326.425 743.406 321.522 739.518 315.729C735.632 309.936 733.195 303.409 732.395 296.625C731.597 289.841 732.459 282.981 734.914 276.547C737.368 270.111 741.35 264.277 746.554 259.463C751.757 254.649 758.043 250.983 764.938 248.712C771.826 246.442 779.162 245.618 786.421 246.289C793.68 246.96 800.709 249.11 806.997 252.609C813.094 256.004 818.343 260.583 822.365 266.043C821.929 266.398 821.473 266.766 821.012 267.135C820.178 267.806 819.331 268.485 818.575 269.133C817.176 270.333 815.866 271.601 814.93 272.987L814.927 272.989C813.124 275.678 812.134 278.689 811.18 281.593C811.039 282.017 810.9 282.441 810.759 282.86C809.64 286.194 808.411 289.324 805.944 291.919V291.921C802.135 295.94 796.538 297.266 790.237 298.161C789.039 298.33 787.785 298.488 786.517 298.649C784.534 298.898 782.508 299.152 780.578 299.469C777.356 299.997 774.161 300.728 771.256 301.994C769.31 302.818 767.539 303.921 766.003 305.251L766.001 305.253C761.909 308.827 760.277 313.46 759.44 318.333C759.019 320.777 758.794 323.316 758.576 325.843L758.558 326.029C758.345 328.503 758.13 330.964 757.744 333.36V333.369C757.469 335.222 757.035 337.052 756.446 338.841C753.84 346.558 747.54 352.733 741.078 358.499L741.066 358.51C737.197 362.071 732.959 365.271 728.415 368.065Z" stroke="black"/>
</g>
<g opacity="0.1">
<path opacity="0.1" d="M498.714 325.228C499.675 326.498 500.21 327.999 500.247 329.544C500.193 330.089 500.024 330.619 499.754 331.107C495.618 324.415 491.314 317.323 490.625 309.856C492.453 315.191 495.675 320.32 498.714 325.228Z" fill="#0B2E72"/>
<path opacity="0.1" d="M460.449 375.482C464.6 378.804 471.141 379.798 473.576 384.332L469.551 386.168C466.839 384.995 464.264 383.581 461.856 381.942C460.331 380.693 459.139 379.138 458.379 377.396C457.616 375.655 457.304 373.776 457.468 371.905C458.183 373.272 459.199 374.49 460.449 375.482Z" fill="#0B2E72"/>
<path opacity="0.1" d="M596.515 380.638C603.816 376.944 612.864 372.706 619.882 376.841C623.456 378.947 625.594 382.898 629.534 384.372C632.06 385.13 634.762 385.246 637.355 384.708C650.494 382.763 662.61 377.008 671.935 368.288C674.664 365.705 677.294 362.798 680.982 361.584C688.325 359.167 695.81 364.412 703.49 365.846C716.376 368.261 728.417 359.71 737.859 351.287C744.33 345.512 750.772 339.207 753.447 331.289C757.216 320.139 753.558 306.096 762.759 298.048C773.267 288.864 793.244 294.702 802.782 284.677C807.973 279.2 807.862 271.59 811.856 265.636C815.232 260.609 823.982 257.044 825.22 250.985C826.189 252.568 826.724 254.339 826.783 256.152C826.627 263 816.936 266.708 813.263 272.081C809.268 278.038 809.38 285.647 804.189 291.125C794.651 301.15 774.647 295.31 764.166 304.496C754.965 312.544 758.623 326.587 754.853 337.735C752.179 345.655 745.737 351.946 739.265 357.733C729.824 366.156 717.783 374.709 704.897 372.293C697.244 370.858 689.759 365.614 682.389 368.03C678.701 369.244 676.071 372.163 673.341 374.734C664.017 383.456 651.901 389.209 638.762 391.154C636.169 391.692 633.467 391.575 630.941 390.818C627 389.346 624.863 385.393 621.289 383.287C614.255 379.152 605.223 383.39 597.922 387.085C577.504 397.238 554.964 403.279 531.802 404.81C508.643 406.341 485.392 403.323 463.6 395.959L471.463 392.382C492.124 398.081 513.807 399.977 535.265 397.962C556.725 395.947 577.541 390.06 596.515 380.638Z" fill="#0B2E72"/>
</g>
<path opacity="0.1" d="M944.167 715.842L955.998 710.584V708.531C955.998 707.742 946.557 709.487 939.241 710.973C944.504 711.824 944.294 715.067 944.167 715.842Z" fill="#0B2E72"/>
<path d="M954.45 597.042C970.192 597.042 982.952 582.784 982.952 565.197C982.952 547.61 970.192 533.351 954.45 533.351C938.709 533.351 925.949 547.61 925.949 565.197C925.949 582.784 938.709 597.042 954.45 597.042Z" fill="#0B2E72"/>
<path d="M680.122 523.754L634.304 565.249L483.676 562.832L525.093 523.754H680.122Z" fill="#DDA2A6"/>
<path d="M680.122 665.705V523.754L634.302 565.249V704.152L680.122 665.705Z" fill="#0B2E72"/>
<path d="M483.676 562.832V704.151H634.304V565.247L483.676 562.832Z" fill="#DDA2A6"/>
<path opacity="0.3" d="M483.676 562.832V704.151H634.304V565.247L483.676 562.832Z" fill="#0B2E72"/>
<path d="M622.064 604.146L510.04 586.485L495.437 654.026L610.766 673.482L622.064 604.146Z" fill="#DCE0ED"/>
<path d="M599.933 619.92L524.627 609.056L522.743 618.074L598.048 629.804L599.933 619.92Z" fill="#0B2E72"/>
<path d="M579.228 639.207L536.389 633.498L534.504 643.509L579.228 649.272V639.207Z" fill="#0B2E72"/>
<path d="M661.594 598.255L659.556 542.369L647.78 553.04L649.835 609.056L661.594 598.255Z" fill="#65617D"/>
<path d="M509.941 538.055L654.687 539.85L659.556 542.369L647.78 553.04L643.715 550.844L500.346 547.11L509.941 538.055Z" fill="#65617D"/>
<defs>
<filter id="filter0_d" x="711.321" y="245.191" width="116.523" height="136.626" filterUnits="userSpaceOnUse" color-interpolation-filters="sRGB">
<feFlood flood-opacity="0" result="BackgroundImageFix"/>
<feColorMatrix in="SourceAlpha" type="matrix" values="0 0 0 0 0 0 0 0 0 0 0 0 0 0 0 0 0 0 127 0"/>
<feOffset dy="4"/>
<feGaussianBlur stdDeviation="2"/>
<feColorMatrix type="matrix" values="0 0 0 0 0 0 0 0 0 0 0 0 0 0 0 0 0 0 0.25 0"/>
<feBlend mode="normal" in2="BackgroundImageFix" result="effect1_dropShadow"/>
<feBlend mode="normal" in="SourceGraphic" in2="effect1_dropShadow" result="shape"/>
</filter>
</defs>
</svg>
