<svg width="1661" height="1098" viewBox="0 0 1661 1098" fill="none" xmlns="http://www.w3.org/2000/svg">
<g clip-path="url(#clip0)">
<g opacity="0.1">
<path opacity="0.1" d="M1221.22 1081.8C1238.95 1081.8 1253.32 1060.39 1253.32 1033.98C1253.32 1007.57 1238.95 986.154 1221.22 986.154C1203.49 986.154 1189.12 1007.57 1189.12 1033.98C1189.12 1060.39 1203.49 1081.8 1221.22 1081.8Z" fill="#0B2E72"/>
<path opacity="0.1" d="M1246.62 829.377C1251.12 820.491 1253.45 810.4 1253.38 800.146C1253.38 773.677 1239.01 752.32 1221.28 752.32C1203.55 752.32 1189.19 773.727 1189.19 800.146C1189.1 810.394 1191.41 820.485 1195.89 829.377C1191.5 838.305 1189.19 848.367 1189.19 858.6C1189.19 868.833 1191.5 878.895 1195.89 887.823C1191.5 896.754 1189.19 906.818 1189.19 917.054C1189.19 927.29 1191.5 937.354 1195.89 946.285C1191.41 955.177 1189.1 965.268 1189.19 975.517C1189.19 1001.99 1203.56 1023.34 1221.28 1023.34C1238.99 1023.34 1253.38 1001.94 1253.38 975.517C1253.47 965.268 1251.16 955.177 1246.68 946.285C1251.07 937.354 1253.38 927.29 1253.38 917.054C1253.38 906.818 1251.07 896.754 1246.68 887.823C1251.07 878.895 1253.38 868.833 1253.38 858.6C1253.38 848.367 1251.07 838.305 1246.68 829.377H1246.62Z" fill="#0B2E72"/>
<path opacity="0.1" d="M1221.22 789.525C1238.95 789.525 1253.32 768.113 1253.32 741.7C1253.32 715.286 1238.95 693.874 1221.22 693.874C1203.49 693.874 1189.12 715.286 1189.12 741.7C1189.12 768.113 1203.49 789.525 1221.22 789.525Z" fill="#0B2E72"/>
<path opacity="0.1" d="M1221.22 731.063C1238.95 731.063 1253.32 709.65 1253.32 683.237C1253.32 656.824 1238.95 635.412 1221.22 635.412C1203.49 635.412 1189.12 656.824 1189.12 683.237C1189.12 709.65 1203.49 731.063 1221.22 731.063Z" fill="#0B2E72"/>
<path opacity="0.1" d="M1341.37 283.197C1345.75 276.839 1349.74 270.146 1353.32 263.164L1269.03 247.399L1360.25 248.176C1368.99 226.503 1373.76 203.028 1374.26 179.186C1374.76 155.344 1370.98 131.637 1363.15 109.514L1240.77 181.74L1353.65 87.3464C1343.07 66.5634 1328.85 48.4817 1311.86 34.2267C1294.88 19.9718 1275.5 9.84872 1254.94 4.4877C1234.37 -0.87332 1213.05 -1.35755 1192.31 3.06515C1171.57 7.48786 1151.85 16.7228 1134.39 30.1952C1116.92 43.6676 1102.07 61.089 1090.77 81.375C1079.47 101.661 1071.97 124.377 1068.71 148.11C1065.46 171.843 1066.53 196.084 1071.86 219.324C1077.19 242.564 1086.67 264.307 1099.7 283.197C1092.87 293.088 1087 303.787 1082.18 315.109L1191.65 379.857L1074.93 335.192C1066.71 362.762 1064.67 392.229 1068.99 420.924C1073.3 449.619 1083.83 476.636 1099.63 499.529C1081.79 525.343 1070.7 556.35 1067.61 589.004C1064.53 621.658 1069.57 654.642 1082.18 684.185C1094.78 713.727 1114.44 738.636 1138.89 756.063C1163.35 773.49 1191.61 782.732 1220.46 782.732C1249.31 782.732 1277.58 773.49 1302.04 756.063C1326.49 738.636 1346.14 713.727 1358.75 684.185C1371.35 654.642 1376.4 621.658 1373.32 589.004C1370.23 556.35 1359.13 525.343 1341.3 499.529C1362.61 468.682 1374.2 430.576 1374.2 391.33C1374.2 352.084 1362.61 313.978 1341.3 283.131L1341.37 283.197Z" fill="#6C63FF"/>
<path opacity="0.1" d="M1066.8 391.404C1066.75 430.657 1078.34 468.781 1099.7 499.595C1081.87 525.409 1070.77 556.416 1067.69 589.07C1064.6 621.725 1069.65 654.709 1082.25 684.251C1094.86 713.794 1114.51 738.702 1138.96 756.129C1163.42 773.556 1191.69 782.798 1220.54 782.798C1249.39 782.798 1277.66 773.556 1302.11 756.129C1326.56 738.702 1346.22 713.794 1358.82 684.251C1371.43 654.709 1376.47 621.725 1373.39 589.07C1370.3 556.416 1359.21 525.409 1341.37 499.595C1361.98 469.818 1066.8 371.751 1066.8 391.404Z" fill="black"/>
</g>
<g opacity="0.1">
<path opacity="0.1" d="M320.88 1030.65C331.666 1030.65 340.41 1017.62 340.41 1001.54C340.41 985.459 331.666 972.423 320.88 972.423C310.093 972.423 301.349 985.459 301.349 1001.54C301.349 1017.62 310.093 1030.65 320.88 1030.65Z" fill="#0B2E72"/>
<path opacity="0.1" d="M336.414 876.987C339.14 871.572 340.55 865.428 340.498 859.187C340.498 843.107 331.778 830.072 320.952 830.072C310.126 830.072 301.421 843.107 301.421 859.187C301.364 865.427 302.769 871.571 305.49 876.987C302.823 882.426 301.422 888.55 301.422 894.779C301.422 901.008 302.823 907.133 305.49 912.571C302.823 918.009 301.422 924.134 301.422 930.363C301.422 936.591 302.823 942.716 305.49 948.155C302.767 953.564 301.362 959.704 301.421 965.938C301.421 982.034 310.14 995.07 320.952 995.07C331.764 995.07 340.498 982.034 340.498 965.938C340.552 959.702 339.143 953.563 336.414 948.155C339.09 942.719 340.495 936.593 340.495 930.363C340.495 924.132 339.09 918.006 336.414 912.571C339.09 907.136 340.495 901.01 340.495 894.779C340.495 888.549 339.09 882.422 336.414 876.987V876.987Z" fill="#0B2E72"/>
<path opacity="0.1" d="M320.88 852.719C331.666 852.719 340.41 839.683 340.41 823.603C340.41 807.523 331.666 794.488 320.88 794.488C310.093 794.488 301.349 807.523 301.349 823.603C301.349 839.683 310.093 852.719 320.88 852.719Z" fill="#0B2E72"/>
<path opacity="0.1" d="M320.88 817.135C331.666 817.135 340.41 804.1 340.41 788.02C340.41 771.94 331.666 758.904 320.88 758.904C310.093 758.904 301.349 771.94 301.349 788.02C301.349 804.1 310.093 817.135 320.88 817.135Z" fill="#0B2E72"/>
<path opacity="0.1" d="M247.769 544.476C245.102 540.608 242.674 536.534 240.503 532.283L291.845 522.689L236.318 523.168C231.002 509.981 228.102 495.699 227.795 481.193C227.488 466.688 229.78 452.263 234.531 438.8L308.978 482.82L240.286 425.251C246.728 412.608 255.388 401.609 265.725 392.938C276.062 384.268 287.856 378.112 300.373 374.854C312.89 371.595 325.862 371.304 338.482 373.997C351.102 376.691 363.1 382.312 373.73 390.511C384.36 398.709 393.394 409.311 400.271 421.655C407.147 433.999 411.718 447.822 413.701 462.263C415.683 476.705 415.033 491.456 411.792 505.6C408.551 519.743 402.788 532.976 394.862 544.476C399.02 550.488 402.596 556.994 405.528 563.88L338.885 603.319L409.946 576.172C414.937 592.961 416.171 610.903 413.537 628.372C410.903 645.842 404.485 662.288 394.862 676.223C405.719 691.938 412.472 710.813 414.35 730.691C416.228 750.569 413.155 770.648 405.481 788.631C397.808 806.615 385.844 821.777 370.958 832.385C356.071 842.993 338.863 848.619 321.301 848.619C303.739 848.619 286.531 842.993 271.644 832.385C256.758 821.777 244.794 806.615 237.121 788.631C229.447 770.648 226.374 750.569 228.252 730.691C230.13 710.813 236.883 691.938 247.74 676.223C234.767 657.441 227.714 634.242 227.714 610.349C227.714 586.457 234.767 563.257 247.74 544.476H247.769Z" fill="#6C63FF"/>
<path opacity="0.1" d="M414.887 610.349C414.918 634.248 407.862 657.458 394.862 676.223C405.719 691.938 412.473 710.813 414.351 730.691C416.228 750.569 413.155 770.648 405.482 788.631C397.808 806.615 385.844 821.777 370.958 832.385C356.072 842.993 338.864 848.619 321.301 848.619C303.739 848.619 286.531 842.993 271.645 832.385C256.759 821.777 244.795 806.615 237.121 788.631C229.448 770.648 226.374 750.569 228.252 730.691C230.13 710.813 236.884 691.938 247.741 676.223C235.2 658.175 414.887 598.389 414.887 610.349Z" fill="black"/>
</g>
<g opacity="0.1">
<path opacity="0.1" d="M761.197 1056C775.636 1056 787.34 1038.56 787.34 1017.04C787.34 995.523 775.636 978.081 761.197 978.081C746.759 978.081 735.054 995.523 735.054 1017.04C735.054 1038.56 746.759 1056 761.197 1056Z" fill="#0B2E72"/>
<path opacity="0.1" d="M781.89 850.353C785.534 843.105 787.415 834.882 787.34 826.531C787.34 805.026 775.714 787.573 761.182 787.573C746.65 787.573 735.025 805.026 735.025 826.531C734.948 834.885 736.834 843.109 740.489 850.353C736.907 857.628 735.026 865.827 735.026 874.167C735.026 882.506 736.907 890.706 740.489 897.98C736.907 905.252 735.026 913.448 735.026 921.785C735.026 930.122 736.907 938.319 740.489 945.59C736.834 952.835 734.948 961.059 735.025 969.412C735.025 990.918 746.737 1008.37 761.182 1008.37C775.627 1008.37 787.34 990.918 787.34 969.412C787.415 961.062 785.534 952.839 781.89 945.59C785.464 938.316 787.341 930.12 787.341 921.785C787.341 913.45 785.464 905.255 781.89 897.98C785.464 890.703 787.341 882.504 787.341 874.167C787.341 865.829 785.464 857.631 781.89 850.353V850.353Z" fill="#0B2E72"/>
<path opacity="0.1" d="M761.197 817.88C775.636 817.88 787.34 800.437 787.34 778.921C787.34 757.405 775.636 739.963 761.197 739.963C746.759 739.963 735.054 757.405 735.054 778.921C735.054 800.437 746.759 817.88 761.197 817.88Z" fill="#0B2E72"/>
<path opacity="0.1" d="M761.197 770.253C775.636 770.253 787.34 752.81 787.34 731.294C787.34 709.778 775.636 692.336 761.197 692.336C746.759 692.336 735.054 709.778 735.054 731.294C735.054 752.81 746.759 770.253 761.197 770.253Z" fill="#0B2E72"/>
<path opacity="0.1" d="M663.382 405.4C659.809 400.226 656.556 394.775 653.646 389.088L722.339 376.251L648.051 376.88C640.923 359.225 637.034 340.1 636.622 320.675C636.21 301.251 639.283 281.935 645.653 263.908L745.343 322.768L653.399 245.844C661.989 228.85 673.565 214.056 687.405 202.385C701.244 190.715 717.049 182.419 733.832 178.016C750.615 173.613 768.015 173.198 784.945 176.796C801.876 180.394 817.972 187.928 832.229 198.928C846.486 209.928 858.597 224.156 867.805 240.725C877.014 257.294 883.121 275.846 885.746 295.223C888.372 314.6 887.458 334.385 883.063 353.342C878.668 372.3 870.886 390.021 860.203 405.4C865.766 413.46 870.55 422.179 874.473 431.405L785.305 484.144L880.388 447.749C887.067 470.216 888.719 494.224 885.195 517.601C881.671 540.978 873.081 562.985 860.203 581.631C874.732 602.66 883.769 627.919 886.282 654.52C888.795 681.121 884.682 707.99 874.413 732.055C864.145 756.12 848.135 776.411 828.214 790.606C808.293 804.802 785.266 812.33 761.764 812.33C738.262 812.33 715.234 804.802 695.313 790.606C675.393 776.411 659.383 756.12 649.114 732.055C638.845 707.99 634.732 681.121 637.245 654.52C639.758 627.919 648.796 602.66 663.324 581.631C645.965 556.498 636.529 525.454 636.529 493.482C636.529 461.511 645.965 430.467 663.324 405.333L663.382 405.4Z" fill="#6C63FF"/>
<path opacity="0.1" d="M887 493.557C887.043 525.534 877.601 556.591 860.203 581.697C874.732 602.726 883.769 627.985 886.282 654.586C888.795 681.187 884.682 708.056 874.413 732.121C864.145 756.186 848.135 776.477 828.214 790.672C808.293 804.868 785.266 812.396 761.764 812.396C738.262 812.396 715.234 804.868 695.313 790.672C675.393 776.477 659.383 756.186 649.114 732.121C638.845 708.056 634.732 681.187 637.245 654.586C639.758 627.985 648.796 602.726 663.324 581.697C646.54 557.445 887 477.543 887 493.557Z" fill="black"/>
</g>
<path d="M1661 1052.49C1661 1063.86 1588.02 1074.24 1467.36 1082.27C1445.42 1083.71 1421.91 1085.08 1396.97 1086.37C1375.42 1087.47 1352.84 1088.52 1329.22 1089.5C1306.34 1090.42 1282.58 1091.28 1257.94 1092.08C1180.14 1094.61 1094.12 1096.43 1002.75 1097.34C980.571 1097.57 958.1 1097.75 935.333 1097.87C911.617 1097.99 887.63 1098.04 863.371 1098.03C422.85 1098.03 65.7568 1077.67 65.7568 1052.54C65.7568 1027.41 422.85 1007.05 863.371 1007.05C1053.03 1007.05 1227.19 1010.84 1364.08 1017.12L1379.05 1017.82H1379.14C1551.57 1026.14 1661 1038.66 1661 1052.49Z" fill="#0B2E72"/>
<path opacity="0.15" d="M1661 1052.49C1661 1063.86 1588.02 1074.24 1467.36 1082.27C1445.42 1083.71 1421.91 1085.08 1396.97 1086.37C1375.42 1087.47 1352.84 1088.52 1329.22 1089.5C1306.34 1090.42 1282.58 1091.28 1257.94 1092.08C1180.14 1094.61 1094.12 1096.43 1002.75 1097.34C980.571 1097.57 958.1 1097.75 935.333 1097.87C911.617 1097.99 887.63 1098.04 863.371 1098.03C422.85 1098.03 65.7568 1077.67 65.7568 1052.54C65.7568 1027.41 422.85 1007.05 863.371 1007.05C1053.03 1007.05 1227.19 1010.84 1364.08 1017.12L1379.05 1017.82H1379.14C1551.57 1026.14 1661 1038.66 1661 1052.49Z" fill="black"/>
<path d="M1595.24 1044.48C1595.24 1053.98 1522.26 1062.68 1401.61 1069.3C1379.68 1070.51 1356.15 1071.65 1331.23 1072.72C1309.67 1073.65 1287.09 1074.52 1263.48 1075.34C1240.6 1076.11 1216.84 1076.83 1192.2 1077.5C1114.38 1079.62 1028.37 1081.14 936.99 1081.9C914.834 1082.09 892.363 1082.23 869.576 1082.33C845.86 1082.43 821.878 1082.48 797.629 1082.48C357.108 1082.48 0 1065.46 0 1044.43C0 1023.41 357.108 1006.39 797.629 1006.39C987.271 1006.39 1161.44 1009.55 1298.33 1014.81L1313.29 1015.38H1313.4C1485.89 1022.45 1595.24 1032.85 1595.24 1044.48Z" fill="#0B2E72"/>
<path d="M206.005 698.854L185.98 629.059L665.534 623.087L685.181 692.187L206.005 698.854Z" fill="#0B2E72"/>
<path opacity="0.15" d="M206.005 698.854L185.98 629.059L665.534 623.087L685.181 692.187L206.005 698.854Z" fill="black"/>
<path d="M174.034 698.854L154.009 629.059L633.563 623.087L653.21 692.187L174.034 698.854Z" fill="#0B2E72"/>
<path d="M992.691 591.606C943.108 591.606 904.032 569.202 875.462 524.392C846.892 479.583 832.607 425.301 832.607 361.544C832.607 297.358 846.422 243.186 874.052 199.027C901.682 154.869 940.657 132.812 990.976 132.856C1044.34 132.856 1084.54 156.121 1111.59 202.65C1138.64 249.18 1152.17 303.032 1152.18 364.208C1152.18 424.942 1138.18 478.034 1110.18 523.483C1082.18 568.931 1043.02 591.639 992.691 591.606ZM994.144 541.2C1026.76 541.2 1051.14 525.016 1067.28 492.647C1083.42 460.278 1091.49 419.472 1091.49 370.229C1091.49 315.417 1083.23 270.537 1066.72 235.587C1050.2 200.637 1024.86 183.157 990.715 183.146C925.806 183.146 893.351 241.84 893.351 359.228C893.351 480.554 926.939 541.211 994.115 541.2H994.144ZM1010.48 1023.9H938.763L1408.26 141.839H1478.62L1010.48 1023.9ZM1425.83 1032.95C1375.5 1032.95 1336.26 1010.34 1308.12 965.128C1279.98 919.91 1265.85 865.622 1265.73 802.263C1265.73 738.507 1279.45 684.55 1306.89 640.391C1334.32 596.233 1373.39 574.175 1424.1 574.22C1477.08 574.22 1517.01 597.484 1543.87 644.014C1570.74 690.544 1584.17 744.391 1584.18 805.555C1584.18 865.893 1570.28 918.885 1542.46 964.532C1514.65 1010.18 1475.76 1032.99 1425.8 1032.95H1425.83ZM1426.67 981.257C1459.14 981.257 1483.39 965.348 1499.42 933.531C1515.45 901.713 1523.47 861.073 1523.47 811.61C1523.47 758.673 1515.36 714.277 1499.13 678.423C1482.9 642.569 1457.62 624.615 1423.29 624.56C1358 624.56 1325.36 683.254 1325.36 800.642C1325.34 921.063 1359.1 981.268 1426.64 981.257H1426.67Z" fill="#0B2E72"/>
<path d="M992.691 591.606C943.108 591.606 904.032 569.202 875.462 524.392C846.892 479.583 832.607 425.301 832.607 361.544C832.607 297.358 846.422 243.186 874.052 199.027C901.682 154.869 940.657 132.812 990.976 132.856C1044.34 132.856 1084.54 156.121 1111.59 202.65C1138.64 249.18 1152.17 303.032 1152.18 364.208C1152.18 424.942 1138.18 478.034 1110.18 523.483C1082.18 568.931 1043.02 591.639 992.691 591.606ZM994.144 541.2C1026.76 541.2 1051.14 525.016 1067.28 492.647C1083.42 460.278 1091.49 419.472 1091.49 370.229C1091.49 315.417 1083.23 270.537 1066.72 235.587C1050.2 200.637 1024.86 183.157 990.715 183.146C925.806 183.146 893.351 241.84 893.351 359.228C893.351 480.554 926.939 541.211 994.115 541.2H994.144ZM1010.48 1023.9H938.763L1408.26 141.839H1478.62L1010.48 1023.9ZM1425.83 1032.95C1375.5 1032.95 1336.26 1010.34 1308.12 965.128C1279.98 919.91 1265.85 865.622 1265.73 802.263C1265.73 738.507 1279.45 684.55 1306.89 640.391C1334.32 596.233 1373.39 574.175 1424.1 574.22C1477.08 574.22 1517.01 597.484 1543.87 644.014C1570.74 690.544 1584.17 744.391 1584.18 805.555C1584.18 865.893 1570.28 918.885 1542.46 964.532C1514.65 1010.18 1475.76 1032.99 1425.8 1032.95H1425.83ZM1426.67 981.257C1459.14 981.257 1483.39 965.348 1499.42 933.531C1515.45 901.713 1523.47 861.073 1523.47 811.61C1523.47 758.673 1515.36 714.277 1499.13 678.423C1482.9 642.569 1457.62 624.615 1423.29 624.56C1358 624.56 1325.36 683.254 1325.36 800.642C1325.34 921.063 1359.1 981.268 1426.64 981.257H1426.67Z" fill="#0B2E72"/>
<path opacity="0.15" d="M992.691 591.606C943.108 591.606 904.032 569.202 875.462 524.392C846.892 479.583 832.607 425.301 832.607 361.544C832.607 297.358 846.422 243.186 874.052 199.027C901.682 154.869 940.657 132.812 990.976 132.856C1044.34 132.856 1084.54 156.121 1111.59 202.65C1138.64 249.18 1152.17 303.032 1152.18 364.208C1152.18 424.942 1138.18 478.034 1110.18 523.483C1082.18 568.931 1043.02 591.639 992.691 591.606ZM994.144 541.2C1026.76 541.2 1051.14 525.016 1067.28 492.647C1083.42 460.278 1091.49 419.472 1091.49 370.229C1091.49 315.417 1083.23 270.537 1066.72 235.587C1050.2 200.637 1024.86 183.157 990.715 183.146C925.806 183.146 893.351 241.84 893.351 359.228C893.351 480.554 926.939 541.211 994.115 541.2H994.144ZM1010.48 1023.9H938.763L1408.26 141.839H1478.62L1010.48 1023.9ZM1425.83 1032.95C1375.5 1032.95 1336.26 1010.34 1308.12 965.128C1279.98 919.91 1265.85 865.622 1265.73 802.263C1265.73 738.507 1279.45 684.55 1306.89 640.391C1334.32 596.233 1373.39 574.175 1424.1 574.22C1477.08 574.22 1517.01 597.484 1543.87 644.014C1570.74 690.544 1584.17 744.391 1584.18 805.555C1584.18 865.893 1570.28 918.885 1542.46 964.532C1514.65 1010.18 1475.76 1032.99 1425.8 1032.95H1425.83ZM1426.67 981.257C1459.14 981.257 1483.39 965.348 1499.42 933.531C1515.45 901.713 1523.47 861.073 1523.47 811.61C1523.47 758.673 1515.36 714.277 1499.13 678.423C1482.9 642.569 1457.62 624.615 1423.29 624.56C1358 624.56 1325.36 683.254 1325.36 800.642C1325.34 921.063 1359.1 981.268 1426.64 981.257H1426.67Z" fill="black"/>
<path d="M947.642 591.606C898.059 591.606 858.983 569.202 830.413 524.392C801.843 479.583 787.558 425.301 787.558 361.544C787.558 297.358 801.373 243.186 829.003 199.027C856.633 154.869 895.608 132.812 945.927 132.856C999.288 132.856 1039.49 156.121 1066.54 202.65C1093.59 249.18 1107.12 303.032 1107.13 364.208C1107.13 424.942 1093.13 478.034 1065.13 523.483C1037.13 568.931 997.971 591.639 947.642 591.606ZM949.095 541.2C981.714 541.2 1006.09 525.016 1022.23 492.647C1038.37 460.278 1046.44 419.472 1046.44 370.229C1046.44 315.417 1038.19 270.537 1021.67 235.587C1005.15 200.637 979.816 183.157 945.666 183.146C880.756 183.146 848.302 241.84 848.302 359.228C848.302 480.554 881.89 541.211 949.066 541.2H949.095ZM965.429 1023.9H893.714L1363.21 141.839H1433.58L965.429 1023.9ZM1380.78 1032.95C1330.45 1032.95 1291.22 1010.34 1263.07 965.128C1234.93 919.91 1220.8 865.622 1220.68 802.263C1220.68 738.507 1234.4 684.55 1261.84 640.391C1289.27 596.233 1328.34 574.175 1379.05 574.22C1432.03 574.22 1471.96 597.484 1498.82 644.014C1525.69 690.544 1539.13 744.391 1539.14 805.555C1539.14 865.893 1525.23 918.885 1497.41 964.532C1469.6 1010.18 1430.71 1032.99 1380.75 1032.95H1380.78ZM1381.62 981.257C1414.09 981.257 1438.34 965.348 1454.37 933.531C1470.4 901.713 1478.42 861.073 1478.42 811.61C1478.42 758.673 1470.31 714.277 1454.08 678.423C1437.85 642.569 1412.56 624.615 1378.21 624.56C1312.92 624.56 1280.28 683.254 1280.28 800.642C1280.28 921.063 1314.05 981.268 1381.59 981.257H1381.62Z" fill="#0B2E72"/>
<path d="M978.726 867.856C978.753 863.845 977.955 859.883 976.395 856.286C974.836 852.69 972.558 849.559 969.745 847.144C969.396 831.974 959.892 819.583 947.671 817.665C946.727 812.51 944.607 807.73 941.526 803.804C938.444 799.878 934.509 796.945 930.116 795.299V795.299C929.047 794.913 927.954 794.62 926.847 794.422H926.527L925.96 794.339H925.481H925.001H924.376H923.998H922.967C910.498 794.339 900.122 805.191 897.986 819.501C889.921 817.383 882.524 820.129 881.202 825.936C880.86 827.475 880.936 829.096 881.42 830.584C882.786 835.084 887.233 839.385 893.263 841.519L894.048 841.784C894.44 841.916 894.833 842.016 895.225 842.115H895.487C893.27 847.496 892.955 853.642 894.608 859.28C896.26 864.919 899.754 869.618 904.366 872.405C904.184 872.518 904.009 872.645 903.843 872.785C903.098 873.564 902.504 874.51 902.099 875.565C900.642 878.476 899.509 881.582 898.727 884.812C898.146 887.575 898.044 890.47 897.274 893.199C895.952 898.162 892.551 902.513 892.159 907.79C891.985 910.139 892.319 912.902 890.851 914.507C890.486 914.865 890.097 915.191 889.688 915.483C888.66 916.284 887.789 917.321 887.131 918.526C886.703 919.524 886.128 920.43 885.431 921.206C884.108 922.348 881.928 922.232 881.275 923.986C880.621 925.739 882.306 927.807 881.914 929.726C881.594 931.281 880.097 931.992 879.008 933.035C877.789 934.54 876.937 936.382 876.537 938.378C874.366 938.855 872.13 938.78 869.987 938.159C867.844 937.539 865.848 936.388 864.141 934.788C864.727 936.492 865.155 938.261 865.42 940.065C863.691 937.964 860.843 937.352 858.735 936.26C856.018 934.843 853.592 932.791 851.615 930.239L855.422 929.643L838.565 900.528L833.595 899.37L838.057 909.114C837.692 909.313 837.371 909.604 837.119 909.965C836.867 910.327 836.691 910.748 836.603 911.198C836.363 912.279 836.304 913.401 836.429 914.507C836.665 917.118 837.049 919.71 837.577 922.265L838.87 929.114C838.98 929.756 839.121 930.391 839.292 931.016C837.606 930.947 835.922 931.164 834.293 931.662C830.951 930.255 827.472 929.316 823.931 928.866C823.153 928.71 822.353 928.756 821.592 928.998C820.728 929.452 819.978 930.146 819.412 931.016C816.505 934.841 813.926 938.974 811.71 943.357C802.657 961.29 790.566 976.939 779.246 993.151C771.428 996.774 763.551 1000.22 755.661 1003.62L738.702 1010.98C735.316 1012.46 731.799 1013.96 728.195 1013.7C726.568 1013.58 724.591 1013.3 723.676 1014.87C723.23 1015.65 722.883 1016.5 722.644 1017.39C722.048 1017.39 721.452 1017.55 720.9 1017.59H720.798C719.723 1014.54 718.793 1011.28 716.73 1009.07C716.314 1009.14 715.921 1009.33 715.586 1009.62C715.252 1009.91 714.985 1010.28 714.811 1010.72C714.404 1011.58 714.157 1012.52 713.692 1013.32C712.777 1014.84 711.193 1015.58 710.059 1016.87C708.926 1018.16 708.214 1020.18 706.993 1021.44C705.284 1022.85 703.281 1023.74 701.18 1024C698.034 1024.85 695 1026.16 692.156 1027.91C691.107 1028.64 689.985 1029.23 688.814 1029.66C687.525 1029.94 686.206 1029.99 684.905 1029.81L675.924 1029.07C675.125 1028.95 674.314 1028.99 673.526 1029.18C672.601 1029.57 671.814 1030.29 671.288 1031.24C670.762 1032.19 670.527 1033.31 670.62 1034.43C670.729 1035.53 671.037 1036.61 671.524 1037.57C672.012 1038.54 672.668 1039.38 673.453 1040.05C675.012 1041.35 676.738 1042.37 678.569 1043.08C686.373 1046.52 694.418 1049.2 702.619 1051.1V1053.17C708.303 1056.43 714.579 1058.13 720.944 1058.13C721.413 1058.17 721.883 1058.08 722.31 1057.85C722.898 1057.35 723.306 1056.62 723.458 1055.8C725.363 1049.31 726.569 1042.58 727.047 1035.77C728.169 1035.68 729.268 1035.36 730.288 1034.82C733.383 1033.86 736.449 1036.28 739.632 1036.68C743.555 1037.16 747.203 1034.56 750.909 1032.95C751.446 1032.72 751.984 1032.52 752.522 1032.32C751.465 1033.88 750.217 1035.26 748.816 1036.41C747.276 1037.67 745.546 1038.59 744.035 1039.9C742.779 1041.21 741.433 1042.4 740.01 1043.46C739.006 1043.99 737.972 1044.44 736.914 1044.81C735.381 1045.45 733.918 1046.29 732.555 1047.31C731.334 1048.13 730.299 1049.26 729.532 1050.62C729.146 1051.25 728.909 1051.99 728.843 1052.76C728.777 1053.52 728.884 1054.3 729.155 1055C729.426 1055.71 729.851 1056.33 730.39 1056.79C730.93 1057.26 731.565 1057.56 732.235 1057.67C733.449 1057.91 734.688 1057.95 735.912 1057.78C740.765 1057.37 745.604 1056.86 750.444 1056.36C752.492 1056.21 754.528 1055.87 756.532 1055.37C757.593 1055.07 758.64 1054.67 759.7 1054.36C761.51 1053.82 763.367 1053.5 765.237 1053.42C765.78 1053.37 766.326 1053.43 766.85 1053.6C767.984 1054.01 768.783 1055.25 769.931 1055.58C770.676 1055.67 771.428 1055.55 772.125 1055.24C775.668 1054.36 779.283 1053.92 782.908 1053.93C784.492 1053.83 786.352 1053.48 787.093 1051.81C787.994 1049.74 786.483 1047.43 785.887 1045.2C785.583 1043.78 785.418 1042.32 785.393 1040.86C785.116 1037.26 784.207 1033.75 782.719 1030.55C781.928 1029.06 781.261 1027.49 780.728 1025.86C787.672 1022.85 794.317 1019.01 800.55 1014.41C804.125 1011.88 807.816 1009.15 811.855 1008.22C816.564 1007.15 821.417 1008.57 826.053 1010.09C837.095 1013.73 847.957 1018.04 858.59 1023.01C863.676 1025.38 868.762 1027.89 873.965 1029.63C875.486 1031.96 877.326 1034.01 879.414 1035.68C882.902 1038.25 887.16 1038.99 891.258 1039.36C896.794 1039.93 902.353 1040.17 907.912 1040.07C912.155 1039.98 916.529 1039.65 920.322 1037.45C921.248 1036.91 922.121 1036.26 922.923 1035.5C925.829 1036.1 928.808 1034.33 931.09 1032.06C934.11 1029.14 936.287 1025.25 937.339 1020.89C938.676 1014.92 937.644 1007.96 940.87 1003.08C941.727 1001.77 942.846 1000.71 943.689 999.388C944.727 997.616 945.237 995.51 945.142 993.383L945.288 993.135C946.018 991.215 946.507 989.188 946.741 987.113C947.123 985.492 947.609 983.906 948.194 982.365C949.832 977.749 951.258 973.039 952.466 968.254C953.306 965.08 953.967 961.847 954.443 958.577C954.791 955.963 954.995 953.333 955.184 950.702C955.417 946.585 956.12 942.52 957.276 938.61C960.145 929.277 961.766 919.507 962.087 909.626C962.087 909.428 962.087 909.246 962.087 909.047C966.305 908.521 970.2 906.221 973.009 902.599C975.817 898.976 977.337 894.292 977.272 889.461C977.276 886.549 976.741 883.668 975.703 881.007C977.708 877.002 978.751 872.466 978.726 867.856V867.856ZM896.548 981.522C896.795 982.531 897.085 983.54 897.376 984.549C896.039 983.044 894.717 981.489 893.365 980C893.903 980.182 894.44 980.38 894.964 980.595C895.521 980.847 896.056 981.157 896.562 981.522H896.548ZM890.037 976.559C882.103 968.718 872.919 962.63 864.795 955.053C869.155 957.551 873.514 960.446 877.874 963.225C882.95 966.534 888.085 969.699 893.278 972.721C892.426 974.192 891.342 975.471 890.081 976.493L890.037 976.559ZM893.423 956.807L893.801 956.36C893.801 957.468 893.801 958.511 893.801 959.454C893.089 959.189 892.348 958.924 891.665 958.626C892.292 958.044 892.885 957.414 893.438 956.74L893.423 956.807ZM823.568 978.048C826.836 973.841 829.677 969.23 832.04 964.301C835.179 970.57 840.294 975.087 844.654 980.331C837.65 979.206 830.631 978.329 823.583 977.982L823.568 978.048Z" fill="url(#paint0_linear)"/>
<path d="M834.903 901.785L839.917 902.943L856.992 931.661L849.45 932.819L834.903 901.785Z" fill="#2F2E41"/>
<path d="M713.489 1018.35C714.841 1023.44 716.506 1028.41 718.473 1033.23C724.131 1031.89 729.696 1030.08 735.127 1027.83C734.076 1025.96 732.921 1024.18 731.668 1022.48C730.333 1020.79 728.737 1019.4 726.96 1018.36C725.231 1017.5 723.094 1018.15 721.249 1018.26C718.662 1018.37 716.075 1018.4 713.489 1018.35Z" fill="#FBBEBE"/>
<path d="M726.989 1026.02C724.17 1025.01 722.441 1021.77 721.293 1018.64C720.145 1015.52 719.214 1012.11 717.035 1009.81C716.62 1009.88 716.228 1010.07 715.893 1010.36C715.558 1010.65 715.291 1011.03 715.116 1011.46C714.695 1012.29 714.448 1013.23 713.968 1014.03C713.067 1015.52 711.469 1016.25 710.321 1017.52C709.173 1018.79 708.461 1020.73 707.226 1022C705.512 1023.4 703.51 1024.28 701.413 1024.55C698.245 1025.37 695.186 1026.66 692.316 1028.39C691.253 1029.09 690.122 1029.64 688.944 1030.04C687.646 1030.32 686.318 1030.37 685.006 1030.19L675.953 1029.45C675.148 1029.33 674.332 1029.38 673.541 1029.58C672.618 1029.94 671.831 1030.65 671.304 1031.59C670.777 1032.52 670.541 1033.63 670.634 1034.74C670.754 1035.84 671.075 1036.91 671.575 1037.86C672.076 1038.81 672.745 1039.64 673.541 1040.28C675.115 1041.56 676.849 1042.57 678.685 1043.26C686.573 1046.64 694.689 1049.28 702.953 1051.15V1053.19C708.697 1056.42 715.015 1058.12 721.423 1058.15C721.921 1058.2 722.421 1058.1 722.877 1057.87C723.465 1057.38 723.878 1056.66 724.039 1055.85C726.211 1048.62 727.478 1041.08 727.803 1033.45C727.97 1031.52 727.842 1029.57 727.425 1027.69C726.931 1025.84 728.617 1026.62 727.047 1025.89" fill="#2F2E41"/>
<path d="M900.558 987.179C873.718 989.032 847.212 980.066 820.328 979.106C816.991 978.875 813.642 979.12 810.359 979.834C806.936 980.879 803.623 982.343 800.477 984.202C786.076 991.828 771.166 998.147 756.271 1004.47L739.181 1011.71C735.752 1013.15 732.221 1014.62 728.573 1014.38C726.945 1014.26 724.955 1013.98 724.025 1015.53C721.249 1020.22 722.571 1027.11 724.402 1032.37C724.998 1034.03 726.001 1035.93 727.599 1036.13C728.73 1036.04 729.838 1035.72 730.869 1035.19C733.979 1034.24 737.089 1036.63 740.286 1037.01C744.253 1037.49 747.93 1034.92 751.664 1033.35C757.855 1030.75 764.627 1030.84 771.137 1029.6C782.065 1027.53 792.179 1021.75 801.654 1015.17C805.258 1012.67 808.92 1009.99 813.047 1009.08C817.799 1008.02 822.696 1009.41 827.361 1010.92C838.482 1014.5 849.43 1018.75 860.16 1023.64C865.744 1026.4 871.471 1028.78 877.307 1030.75C890.028 1034.57 903.484 1033.67 915.73 1028.21C920.089 1026.27 924.681 1022.86 924.928 1017.59C925.074 1014.57 923.025 1011.93 921.659 1009.31C920.772 1007.66 919.9 1006.01 918.941 1004.43C914.32 996.758 908.711 986.617 900.558 987.179Z" fill="#2F2E41"/>
<path opacity="0.1" d="M900.558 987.179C873.718 989.032 847.212 980.066 820.328 979.106C816.991 978.875 813.642 979.12 810.359 979.834C806.936 980.879 803.623 982.343 800.477 984.202C786.076 991.828 771.166 998.147 756.271 1004.47L739.181 1011.71C735.752 1013.15 732.221 1014.62 728.573 1014.38C726.945 1014.26 724.955 1013.98 724.025 1015.53C721.249 1020.22 722.571 1027.11 724.402 1032.37C724.998 1034.03 726.001 1035.93 727.599 1036.13C728.73 1036.04 729.838 1035.72 730.869 1035.19C733.979 1034.24 737.089 1036.63 740.286 1037.01C744.253 1037.49 747.93 1034.92 751.664 1033.35C757.855 1030.75 764.627 1030.84 771.137 1029.6C782.065 1027.53 792.179 1021.75 801.654 1015.17C805.258 1012.67 808.92 1009.99 813.047 1009.08C817.799 1008.02 822.696 1009.41 827.361 1010.92C838.482 1014.5 849.43 1018.75 860.16 1023.64C865.744 1026.4 871.471 1028.78 877.307 1030.75C890.028 1034.57 903.484 1033.67 915.73 1028.21C920.089 1026.27 924.681 1022.86 924.928 1017.59C925.074 1014.57 923.025 1011.93 921.659 1009.31C920.772 1007.66 919.9 1006.01 918.941 1004.43C914.32 996.758 908.711 986.617 900.558 987.179Z" fill="black"/>
<path d="M765.004 1019.83C769.209 1021.46 773.443 1022.96 777.705 1024.33C780.103 1019.85 784.579 1016.74 785.596 1011.63C785.654 1011.41 785.654 1011.17 785.596 1010.95C785.485 1010.73 785.318 1010.56 785.117 1010.46C782.053 1008.53 778.654 1007.4 775.162 1007.15C772.401 1006.95 771.151 1010.22 769.902 1012.52C769.466 1013.45 766.123 1020.27 765.004 1019.83Z" fill="#FBBEBE"/>
<path d="M770.919 1016.56C769.664 1016.32 768.467 1015.79 767.403 1014.99C766.34 1014.2 765.434 1013.16 764.743 1011.94C764.147 1010.77 763.522 1009.18 762.331 1009.26C761.139 1009.35 760.732 1010.84 760.485 1012.08C759.68 1016.71 758.518 1021.26 757.012 1025.66C755.493 1030.07 752.921 1033.92 749.586 1036.76C748.031 1037.98 746.302 1038.91 744.776 1040.2C743.504 1041.49 742.144 1042.66 740.707 1043.71C739.695 1044.23 738.651 1044.68 737.583 1045.03C736.017 1045.65 734.52 1046.48 733.121 1047.49C731.896 1048.31 730.855 1049.45 730.084 1050.8C729.712 1051.49 729.494 1052.27 729.448 1053.08C729.403 1053.89 729.531 1054.7 729.823 1055.44C730.136 1056.03 730.557 1056.55 731.057 1056.95C731.558 1057.36 732.128 1057.63 732.729 1057.77C733.954 1058 735.202 1058.03 736.435 1057.87C741.332 1057.45 746.215 1056.96 751.097 1056.46C753.165 1056.32 755.219 1055.99 757.245 1055.5C758.32 1055.2 759.366 1054.81 760.427 1054.49C762.258 1053.96 764.133 1053.65 766.022 1053.57C766.569 1053.52 767.12 1053.58 767.649 1053.75C768.783 1054.16 769.582 1055.4 770.745 1055.7C771.494 1055.79 772.25 1055.68 772.954 1055.37C776.527 1054.51 780.171 1054.08 783.823 1054.08C785.422 1053.98 787.311 1053.63 788.038 1051.99C788.953 1049.96 787.442 1047.68 786.832 1045.49C786.53 1044.09 786.36 1042.66 786.323 1041.22C786.048 1037.67 785.133 1034.22 783.635 1031.08C782.385 1028.47 780.728 1025.59 781.556 1022.81C782.002 1021.95 782.284 1020.98 782.385 1019.98C782.181 1015.5 773.128 1017.16 770.919 1016.56Z" fill="#2F2E41"/>
<path d="M860.32 938.179C855.565 935.79 851.755 931.483 849.624 926.086C849.188 924.928 848.81 923.721 848.389 922.546C846.974 918.663 844.785 915.208 841.995 912.455C841.696 912.081 841.33 911.785 840.921 911.588C840.512 911.391 840.07 911.297 839.626 911.314C839.197 911.459 838.809 911.732 838.503 912.104C838.196 912.476 837.982 912.934 837.882 913.431C837.633 914.51 837.569 915.633 837.693 916.74C837.942 919.307 838.33 921.854 838.856 924.366L840.164 931.115C840.329 932.152 840.602 933.163 840.978 934.126C841.537 935.259 842.276 936.263 843.157 937.087C844.349 938.345 845.555 939.552 846.776 940.727C847.449 941.42 848.184 942.03 848.97 942.547C850.26 943.242 851.638 943.7 853.054 943.903C858.387 945.028 863.807 946.649 868.298 950.52C868.298 950.52 868.298 946.004 868.196 945.557C868.142 944.249 867.747 942.988 867.062 941.935C865.377 939.867 862.47 939.255 860.32 938.179Z" fill="#FBBEBE"/>
<path opacity="0.1" d="M860.32 938.179C855.565 935.79 851.755 931.483 849.624 926.086C849.188 924.928 848.81 923.721 848.389 922.546C846.974 918.663 844.785 915.208 841.995 912.455C841.696 912.081 841.33 911.785 840.921 911.588C840.512 911.391 840.07 911.297 839.626 911.314C839.197 911.459 838.809 911.732 838.503 912.104C838.196 912.476 837.982 912.934 837.882 913.431C837.633 914.51 837.569 915.633 837.693 916.74C837.942 919.307 838.33 921.854 838.856 924.366L840.164 931.115C840.329 932.152 840.602 933.163 840.978 934.126C841.537 935.259 842.276 936.263 843.157 937.087C844.349 938.345 845.555 939.552 846.776 940.727C847.449 941.42 848.184 942.03 848.97 942.547C850.26 943.242 851.638 943.7 853.054 943.903C858.387 945.028 863.807 946.649 868.298 950.52C868.298 950.52 868.298 946.004 868.196 945.557C868.142 944.249 867.747 942.988 867.062 941.935C865.377 939.867 862.47 939.255 860.32 938.179Z" fill="black"/>
<path d="M914.96 886.566C918.564 886.566 921.485 883.218 921.485 879.088C921.485 874.959 918.564 871.611 914.96 871.611C911.356 871.611 908.435 874.959 908.435 879.088C908.435 883.218 911.356 886.566 914.96 886.566Z" fill="#2F2E41"/>
<path d="M910.92 874.572C909.168 874.117 907.33 874.418 905.761 875.416C905.007 876.175 904.407 877.112 904.002 878.162C902.535 881.018 901.392 884.076 900.602 887.26C900.021 889.99 899.919 892.835 899.149 895.532C897.812 900.495 894.382 904.713 893.99 909.891C893.815 912.207 894.15 914.937 892.667 916.508C892.299 916.86 891.905 917.175 891.49 917.451C890.458 918.24 889.582 919.265 888.918 920.462C888.474 921.536 887.858 922.507 887.102 923.324C885.765 924.449 883.57 924.333 882.917 926.07C882.263 927.807 883.948 929.825 883.556 931.711C883.236 933.25 881.725 933.961 880.65 935.02C879.425 936.497 878.567 938.318 878.165 940.297C875.982 940.765 873.736 940.689 871.581 940.075C869.426 939.461 867.414 938.323 865.682 936.74C867.498 941.852 867.542 947.493 867.614 953.002C867.824 954.764 867.411 956.548 866.466 957.965C871.669 958.097 876.726 959.619 881.798 960.992C883.967 961.819 886.313 961.819 888.482 960.992C889.642 960.281 890.68 959.34 891.549 958.213C894.31 955.02 897.201 951.596 897.87 947.146C898.047 944.642 898.086 942.128 897.986 939.619C898.253 936.52 898.813 933.464 899.657 930.503C901.117 924.356 902.089 918.072 902.564 911.727C902.869 907.807 905.833 904.663 907.403 901.156C910.309 894.539 913.361 887.674 913.593 880.263C913.797 877.847 913.07 874.886 910.92 874.572Z" fill="#2F2E41"/>
<path opacity="0.1" d="M910.92 874.572C909.168 874.117 907.33 874.418 905.761 875.416C905.007 876.175 904.407 877.112 904.002 878.162C902.535 881.018 901.392 884.076 900.602 887.26C900.021 889.99 899.919 892.835 899.149 895.532C897.812 900.495 894.382 904.713 893.99 909.891C893.815 912.207 894.15 914.937 892.667 916.508C892.299 916.86 891.905 917.175 891.49 917.451C890.458 918.24 889.582 919.265 888.918 920.462C888.474 921.536 887.858 922.507 887.102 923.324C885.765 924.449 883.57 924.333 882.917 926.07C882.263 927.807 883.948 929.825 883.556 931.711C883.236 933.25 881.725 933.961 880.65 935.02C879.425 936.497 878.567 938.318 878.165 940.297C875.982 940.765 873.736 940.689 871.581 940.075C869.426 939.461 867.414 938.323 865.682 936.74C867.498 941.852 867.542 947.493 867.614 953.002C867.824 954.764 867.411 956.548 866.466 957.965C871.669 958.097 876.726 959.619 881.798 960.992C883.967 961.819 886.313 961.819 888.482 960.992C889.642 960.281 890.68 959.34 891.549 958.213C894.31 955.02 897.201 951.596 897.87 947.146C898.047 944.642 898.086 942.128 897.986 939.619C898.253 936.52 898.813 933.464 899.657 930.503C901.117 924.356 902.089 918.072 902.564 911.727C902.869 907.807 905.833 904.663 907.403 901.156C910.309 894.539 913.361 887.674 913.593 880.263C913.797 877.847 913.07 874.886 910.92 874.572Z" fill="black"/>
<path d="M904.816 993.615C899.221 990.587 895.138 984.946 890.618 980.116C881.986 970.885 871.436 964.367 862.368 955.715C856.367 949.991 850.99 943.324 844.378 938.527C838.563 934.303 831.967 931.671 825.108 930.834C824.325 930.679 823.521 930.724 822.754 930.967C821.888 931.408 821.133 932.091 820.56 932.952C817.63 936.71 815.027 940.782 812.785 945.111C801.291 967.311 784.971 985.988 771.442 1006.65C771.008 1007.14 770.751 1007.79 770.721 1008.48C770.692 1009.18 770.892 1009.86 771.282 1010.39L774.029 1016.53C775.569 1019.95 778.04 1023.95 781.295 1023.28C782.788 1022.79 784.125 1021.82 785.146 1020.48L797.498 1007.03L810.446 992.936C818.031 984.665 825.748 976.228 830.703 965.674C834.569 973.3 841.428 978.296 846.136 985.293C847.924 987.94 849.377 990.868 850.975 993.681C853.548 998.197 856.454 1002.43 859.36 1006.65L874.226 1028.24C876.102 1031.31 878.427 1034 881.1 1036.18C884.617 1038.71 888.904 1039.39 893.045 1039.8C898.625 1040.38 904.228 1040.61 909.83 1040.5C914.102 1040.41 918.549 1040.1 922.327 1037.93C926.105 1035.77 929.317 1031.32 929.114 1026.47C928.882 1023.93 928.152 1021.48 926.977 1019.31C921.731 1008.22 914.785 998.958 904.816 993.615Z" fill="#2F2E41"/>
<path d="M918.971 890.006C921.739 890.006 923.984 887.436 923.984 884.266C923.984 881.096 921.739 878.526 918.971 878.526C916.202 878.526 913.957 881.096 913.957 884.266C913.957 887.436 916.202 890.006 918.971 890.006Z" fill="#E8E8F0"/>
<path d="M917.866 879.948C918.999 882.515 919.197 885.487 918.418 888.22C917.643 890.908 916.558 893.467 915.192 895.83C914.016 898.27 912.608 900.556 910.992 902.645C918.738 903.075 926.251 899.618 933.081 895.416C938.588 892.107 944.081 887.889 947.017 881.586C946.143 881.823 945.236 881.85 944.352 881.665C943.469 881.48 942.629 881.087 941.887 880.511C940.409 879.338 939.083 877.935 937.949 876.342L934.069 871.379C933.152 870.29 932.348 869.086 931.671 867.789C930.822 866.028 930.462 864.015 930.639 862.016C929.095 863.857 927.368 865.489 925.495 866.879C922.719 868.947 919.682 870.436 916.878 872.471C915.889 873.199 913.695 874.373 914.262 875.78C914.829 877.186 917.081 878.36 917.866 879.948Z" fill="#FBBEBE"/>
<path opacity="0.1" d="M917.866 879.948C918.999 882.515 919.197 885.487 918.418 888.22C917.643 890.908 916.558 893.467 915.192 895.83C914.016 898.27 912.608 900.556 910.992 902.645C918.738 903.075 926.251 899.618 933.081 895.416C938.588 892.107 944.081 887.889 947.017 881.586C946.143 881.823 945.236 881.85 944.352 881.665C943.469 881.48 942.629 881.087 941.887 880.511C940.409 879.338 939.083 877.935 937.949 876.342L934.069 871.379C933.152 870.29 932.348 869.086 931.671 867.789C930.822 866.028 930.462 864.015 930.639 862.016C929.095 863.857 927.368 865.489 925.495 866.879C922.719 868.947 919.682 870.436 916.878 872.471C915.889 873.199 913.695 874.373 914.262 875.78C914.829 877.186 917.081 878.36 917.866 879.948Z" fill="black"/>
<path d="M917.968 880.809C917.184 882.069 916.764 883.574 916.764 885.118C916.764 886.662 917.184 888.167 917.968 889.427C918.186 889.742 919.014 891.71 919.421 891.727C919.764 891.694 920.082 891.51 920.307 891.214C922.063 889.126 923.703 886.916 925.219 884.597C926.75 882.248 928.965 880.595 931.468 879.932C934.505 879.386 937.426 881.222 940.085 882.976C941.228 883.622 942.223 884.562 942.992 885.722C943.552 886.872 943.884 888.148 943.965 889.461C944.729 897.347 945.02 905.284 944.837 913.216C944.978 918.935 944.648 924.656 943.849 930.305C943.355 933.216 942.614 936.062 942.265 939.006C942.011 941.599 941.909 944.207 941.96 946.815V957.733C941.896 959.733 942.023 961.736 942.338 963.705C942.938 966.054 943.641 968.368 944.445 970.636C945.152 973.337 945.639 976.106 945.898 978.908L947.206 990.207C947.627 993.78 947.933 997.667 946.029 1000.53C945.186 1001.84 944.053 1002.86 943.122 1004.15C939.853 1008.88 940.943 1015.75 939.489 1021.62C938.414 1025.93 936.215 1029.77 933.183 1032.62C930.872 1034.86 927.878 1036.63 924.885 1035.93C920.859 1035.07 918.433 1030.29 917.328 1025.77C916.224 1021.26 915.875 1016.33 913.448 1012.54C911.501 1009.41 908.493 1007.46 905.775 1005.23C903.058 1002.99 900.384 1000.13 899.788 996.361C899.527 994.706 899.686 993.052 899.541 991.398C899.325 989.289 898.615 987.286 897.485 985.598C896.355 983.91 894.846 982.599 893.118 981.803C891.054 980.893 888.497 980.562 887.305 978.494C890.264 976.379 892.42 973.08 893.35 969.247C894.252 965.47 894.74 961.58 894.804 957.667L895.501 944.532C895.806 938.659 895.952 932.836 898.219 927.559C899.236 925.21 900.5 922.993 901.546 920.66C902.948 917.387 904.143 914.003 905.121 910.536C906.763 905.16 908.42 899.767 909.888 894.324C910.475 891.688 911.354 889.148 912.504 886.764C913.855 884.283 915.643 881.305 917.968 880.809Z" fill="#E8E8F0"/>
<path d="M892.348 966.153L895.399 966.269L896.053 961.025C896.14 959.976 896.356 958.946 896.693 957.965C897.2 956.93 897.788 955.95 898.451 955.037C901.459 950.206 901.241 943.787 901.983 937.915C902.971 930.09 905.848 922.745 908.696 915.532L914.625 900.495C915.153 899.258 915.577 897.968 915.89 896.64C916.149 895.176 916.27 893.684 916.253 892.19C916.253 889.874 916.921 881.421 916.965 879.088C916.965 878.228 915.308 878.708 914.96 877.947C914.218 876.292 913.201 880.792 911.806 881.785C910.491 882.929 909.534 884.524 909.074 886.334C907.795 890.122 907.011 894.109 905.819 897.914C904.774 901.81 902.867 905.336 900.282 908.154C899.076 909.378 897.667 910.338 896.518 911.628C892.827 915.78 892.479 922.331 892.348 928.171C892.261 931.794 891.665 966.153 892.348 966.153Z" fill="#2F2E41"/>
<path d="M936.307 874.539C933.401 875.862 931.715 879.502 930.887 883.042C930.058 886.582 929.709 890.321 928.111 893.464C924.391 900.842 914.902 902.993 912.271 910.966C911.602 913.659 911.245 916.44 911.21 919.238C910.745 924.945 909.089 930.47 908.595 936.178C908.338 940.617 908.43 945.074 908.871 949.495L912.199 994.541C912.844 1001.18 912.505 1007.89 911.196 1014.39C914.609 1014.95 918.09 1014.3 921.165 1012.52C924.289 1010.87 927.137 1008.68 930.131 1006.8C935.29 1003.49 940.986 1001.26 945.491 996.873C946.309 996.148 947.011 995.27 947.569 994.276C948.292 992.382 948.781 990.384 949.022 988.337C949.405 986.743 949.89 985.184 950.476 983.672C952.145 979.132 953.6 974.493 954.835 969.776C955.681 966.647 956.346 963.459 956.826 960.231C957.189 957.667 957.378 955.069 957.582 952.489C957.814 948.429 958.523 944.424 959.689 940.578C962.571 931.403 964.203 921.779 964.528 912.042C964.628 910.635 964.545 909.219 964.281 907.84C963.779 906.167 963.106 904.568 962.275 903.075C960.895 900.114 960.067 896.855 958.759 893.861C955.852 887.078 950.635 881.934 945.186 877.616C942.396 875.515 939.33 873.232 936.307 874.539Z" fill="#2F2E41"/>
<path d="M866.932 948.039C864.572 946.634 862.435 944.789 860.61 942.58C859.782 941.471 859.157 940.231 858.256 939.139C856.122 936.549 853.352 934.75 850.307 933.977C847.283 933.219 844.19 932.88 841.094 932.968C839.026 932.806 836.95 933.092 834.976 933.812C833.985 934.181 833.092 934.829 832.381 935.697C831.669 936.565 831.162 937.624 830.907 938.775C830.457 941.587 832.07 944.317 834.002 946.103C835.8 947.775 837.914 948.947 840.179 949.528C842.025 949.892 843.888 950.14 845.759 950.272C856.745 951.579 866.554 958.378 876.174 964.582C884.632 970.019 893.254 975.109 902.041 979.851C902.389 976.857 902.535 973.837 902.477 970.818C902.477 968.569 902.332 965.128 900.457 963.804C898.277 962.249 894.644 961.902 892.232 960.975C886.569 958.872 881.038 956.329 875.68 953.366C872.643 951.695 869.737 949.925 866.932 948.039Z" fill="#FBBEBE"/>
<path d="M914.96 877.384C925.771 877.384 934.534 867.349 934.534 854.969C934.534 842.589 925.771 832.553 914.96 832.553C904.149 832.553 895.385 842.589 895.385 854.969C895.385 867.349 904.149 877.384 914.96 877.384Z" fill="#FBBEBE"/>
<path d="M941.902 899.949C940.344 902.441 939.07 905.148 938.109 908.005C935.682 913.679 931.889 918.543 930 924.548C927.995 930.785 928.068 938.212 924.188 943.126C923.408 943.871 922.82 944.843 922.487 945.938C922.463 946.621 922.395 947.301 922.284 947.973C921.732 949.759 919.16 949.842 918.68 951.662C918.549 952.191 918.68 952.77 918.447 953.316C918.055 954.491 916.704 954.656 915.788 955.367C913.884 956.84 914.335 960.247 912.882 962.365C912.291 963.151 911.528 963.746 910.671 964.088C909.814 964.431 908.892 964.51 907.999 964.317C906.218 963.89 904.503 963.159 902.913 962.15C902.354 961.792 901.735 961.572 901.096 961.505C900.338 961.523 899.602 961.806 898.989 962.315C895.371 964.929 893.671 970.124 893.7 975.02C893.955 979.917 894.973 984.723 896.708 989.214C896.912 989.99 897.253 990.71 897.71 991.332C898.902 992.771 900.995 992.539 902.593 991.729C904.091 990.719 905.685 989.909 907.345 989.313C910.368 988.685 913.332 991.067 916.398 990.868C918.642 990.48 920.754 989.418 922.516 987.791C925.629 985.64 928.416 982.93 930.771 979.768C932.107 977.766 933.096 975.483 934.273 973.349C935.776 970.728 937.426 968.219 939.214 965.839L950.505 950.107C951.638 948.617 952.654 947.017 953.542 945.326C954.56 943.039 955.354 940.631 955.911 938.146C957.12 934 957.905 929.709 958.25 925.359C958.308 921.757 958.03 918.158 957.422 914.622C957.043 911.106 956.226 907.669 954.995 904.415C952.481 898.625 946.509 893.828 941.902 899.949Z" fill="#2F2E41"/>
<path d="M981.225 870.751C981.241 866.776 980.427 862.854 978.85 859.308C977.274 855.762 974.98 852.693 972.157 850.353C972.072 843.298 969.788 836.506 965.714 831.189C961.639 825.872 956.038 822.374 949.909 821.321C948.724 814.637 945.505 808.644 940.82 804.398C936.134 800.152 930.282 797.924 924.295 798.108C918.308 798.292 912.57 800.876 908.092 805.403C903.614 809.931 900.684 816.113 899.817 822.859C891.68 820.775 884.239 823.488 882.888 829.195C881.435 835.167 887.247 842.148 895.85 844.795C898.546 845.662 901.355 845.981 904.148 845.738C906.149 849.082 908.741 851.913 911.759 854.05C914.777 856.186 918.154 857.581 921.673 858.145C922.707 863.541 925.043 868.501 928.42 872.468C931.796 876.434 936.078 879.248 940.783 880.594C942.085 884.175 944.106 887.359 946.683 889.891C946.683 890.586 946.581 891.297 946.581 892.025C946.488 894.568 946.847 897.106 947.637 899.487C948.428 901.868 949.633 904.042 951.18 905.879C952.728 907.717 954.586 909.178 956.642 910.177C958.699 911.175 960.912 911.69 963.148 911.69C965.384 911.69 967.596 911.175 969.653 910.177C971.71 909.178 973.567 907.717 975.115 905.879C976.663 904.042 977.868 901.868 978.658 899.487C979.449 897.106 979.808 894.568 979.714 892.025C979.715 889.17 979.174 886.349 978.13 883.753C980.173 879.816 981.242 875.323 981.225 870.751V870.751Z" fill="black"/>
<path opacity="0.1" d="M888.41 830.336C889.761 824.629 897.129 821.916 905.34 824C906.295 817.149 909.346 810.901 913.953 806.361C918.561 801.821 924.43 799.28 930.523 799.186C931.09 799.186 931.657 799.186 932.209 799.186C929.854 798.368 927.405 797.955 924.943 797.962C918.85 798.056 912.981 800.597 908.373 805.137C903.765 809.677 900.714 815.924 899.759 822.776C891.621 820.692 884.181 823.405 882.83 829.112C881.376 835.084 887.189 842.065 895.792 844.712C897.392 845.217 899.033 845.538 900.689 845.672C892.522 842.959 887.029 836.176 888.41 830.336Z" fill="black"/>
<path opacity="0.1" d="M952.103 893.183C952.103 892.455 952.103 891.744 952.205 891.032C949.627 888.507 947.606 885.328 946.305 881.752C941.603 880.393 937.326 877.572 933.951 873.604C930.576 869.637 928.237 864.68 927.195 859.286C923.675 858.726 920.297 857.332 917.279 855.195C914.26 853.058 911.668 850.225 909.67 846.879C908.042 847.026 906.406 846.976 904.787 846.73C906.796 849.813 909.324 852.41 912.223 854.369C915.122 856.329 918.334 857.612 921.673 858.145C922.707 863.541 925.043 868.501 928.419 872.468C931.795 876.434 936.077 879.248 940.783 880.594C942.085 884.175 944.105 887.359 946.683 889.891C946.683 890.586 946.581 891.297 946.581 892.025C946.507 897.096 948.198 901.995 951.285 905.652C954.373 909.31 958.606 911.428 963.06 911.545C959.809 910.118 957.018 907.595 955.06 904.314C953.102 901.032 952.071 897.149 952.103 893.183Z" fill="black"/>
<path d="M923.915 863.182C925.244 862.032 925.232 859.466 923.887 857.451C922.542 855.436 920.374 854.734 919.045 855.883C917.716 857.033 917.728 859.598 919.073 861.614C920.418 863.629 922.585 864.331 923.915 863.182Z" fill="#FBBEBE"/>
</g>
<defs>
<linearGradient id="paint0_linear" x1="824.687" y1="1058.15" x2="824.687" y2="794.058" gradientUnits="userSpaceOnUse">
<stop stop-color="#808080" stop-opacity="0.25"/>
<stop offset="0.54" stop-color="#808080" stop-opacity="0.12"/>
<stop offset="1" stop-color="#808080" stop-opacity="0.1"/>
</linearGradient>
<clipPath id="clip0">
<rect width="1661" height="1098" fill="white"/>
</clipPath>
</defs>
</svg>
