<svg width="754" height="590" viewBox="0 0 754 590" fill="none" xmlns="http://www.w3.org/2000/svg">
<path d="M323.143 551.554C464.476 551.554 579.05 428.084 579.05 275.777C579.05 123.47 464.476 0 323.143 0C181.809 0 67.2356 123.47 67.2356 275.777C67.2356 428.084 181.809 551.554 323.143 551.554Z" fill="#F2F2F2"/>
<path d="M101.54 589.764C157.618 589.764 203.079 581.925 203.079 572.256C203.079 562.587 157.618 554.748 101.54 554.748C45.4608 554.748 0 562.587 0 572.256C0 581.925 45.4608 589.764 101.54 589.764Z" fill="#F2F2F2"/>
<path d="M596.888 571.967C683.658 571.967 754 559.838 754 544.877C754 529.915 683.658 517.787 596.888 517.787C510.118 517.787 439.776 529.915 439.776 544.877C439.776 559.838 510.118 571.967 596.888 571.967Z" fill="#F2F2F2"/>
<path d="M582.098 417.62C582.098 417.62 556.128 286.46 393.582 191.314" stroke="#3F3D56" stroke-width="2" stroke-miterlimit="10"/>
<path d="M400.279 188.453L400.605 189.891L394.03 191.609L396.101 198.551L394.794 199.003L392.272 190.548L400.279 188.453Z" fill="#3F3D56"/>
<path d="M46.978 551.636C46.978 568.249 37.8145 574.049 26.5096 574.049C26.2477 574.049 25.9863 574.046 25.7252 574.039C25.2015 574.027 24.6827 574.001 24.1701 573.963C13.9677 573.184 6.04126 567.086 6.04126 551.636C6.04126 535.648 25.0007 515.473 26.4248 513.98L26.4273 513.977C26.4822 513.92 26.5096 513.892 26.5096 513.892C26.5096 513.892 46.978 535.024 46.978 551.636Z" fill="#0B2E72"/>
<path d="M25.7639 571.508L33.2501 560.235L25.7452 572.745L25.7252 574.04C25.2015 574.027 24.6826 574.001 24.1701 573.963L24.977 557.342L24.9707 557.214L24.9845 557.189L25.0605 555.62L17.5369 543.078L25.0842 554.443L25.1017 554.776L25.7115 542.218L19.2703 529.259L25.79 540.014L26.4248 513.98L26.4273 513.892V513.977L26.3213 534.507L32.7338 526.368L26.2951 536.275L26.1255 547.519L32.1128 536.729L26.1006 549.173L26.0058 555.424L34.698 540.405L25.9734 557.605L25.7639 571.508Z" fill="#3F3D56"/>
<path d="M144.607 547.332L148.985 543.827C148.985 543.827 151.883 561.273 148.65 563.887C145.416 566.501 133.288 570.857 133.288 576.085C133.288 581.313 105.798 588.283 104.99 580.442C104.181 572.6 107.415 568.243 107.415 568.243C107.415 568.243 120.351 554.303 121.968 551.689C123.585 549.075 127.628 543.847 127.628 543.847L144.607 547.332Z" fill="#2F2E41"/>
<path d="M79.9253 330.381C79.9253 330.381 80.0467 331.147 80.2567 332.55C80.4508 333.796 80.7177 335.556 81.0415 337.725C84.4369 360.057 94.3412 425.796 93.6702 427.965C92.862 430.579 87.2025 440.163 93.6702 442.777C94.2931 443.03 94.9641 443.849 95.6838 445.138C97.0724 447.915 98.2175 450.827 99.1032 453.834C102.96 465.893 107.084 485.192 109.469 498.557C110.512 504.43 111.223 509.152 111.433 511.627C111.506 512.199 111.514 512.778 111.457 513.352C110.649 516.837 116.309 529.035 118.734 532.521C121.16 536.005 125.202 539.49 124.394 542.976C123.585 546.461 144.607 556.045 147.033 549.946C149.458 543.847 149.458 540.362 150.266 538.619C151.075 536.877 151.883 524.679 147.841 522.936C143.798 521.194 146.224 490.699 142.181 484.599C140.831 482.569 138.77 475.694 136.61 467.426C135.762 464.185 134.905 460.734 134.064 457.276C130.652 443.099 127.628 428.837 127.628 428.837L128.437 326.895L83.9684 320.796L82.8281 323.506L80.5565 328.882L79.9253 330.381Z" fill="#2F2E41"/>
<path d="M77.5 497.669C77.5 497.669 71.0316 490.698 67.7978 497.669C64.5637 504.639 61.3297 531.649 55.67 537.748C50.0104 543.847 42.7338 574.342 50.819 576.085C58.9041 577.828 67.7977 573.471 68.6063 568.243C69.4146 563.015 86.3936 536.006 86.3936 533.392C86.3936 530.778 75.0747 521.193 75.0747 521.193L77.5 497.669Z" fill="#2F2E41"/>
<path d="M176.948 282.459C176.948 282.459 166.437 384.401 164.011 393.985C161.586 403.57 148.65 440.164 144.607 446.263C140.564 452.362 114.692 502.026 111.458 504.639C108.224 507.253 101.756 514.224 101.756 514.224C101.756 514.224 89.6279 527.293 88.0108 529.907C86.3937 532.521 72.6488 524.679 71.8406 519.452C71.0318 514.224 72.6488 505.511 73.4577 502.026C74.2659 498.541 71.8406 493.313 74.2659 490.699C76.6919 488.085 88.819 475.015 88.819 468.916C88.819 462.817 109.84 427.094 117.926 419.253C126.011 411.411 124.394 398.342 124.394 398.342V345.193L79.9254 330.381C79.9254 330.381 82.3514 288.559 88.0108 288.559C93.6703 288.559 168.054 274.618 176.948 282.459Z" fill="#2F2E41"/>
<path d="M111.458 136.953C126.193 136.953 138.139 124.08 138.139 108.201C138.139 92.321 126.193 79.4482 111.458 79.4482C96.7219 79.4482 84.7766 92.321 84.7766 108.201C84.7766 124.08 96.7219 136.953 111.458 136.953Z" fill="#9F616A"/>
<path d="M120.351 130.854C120.351 130.854 123.585 143.924 127.628 147.409C131.671 150.894 117.118 165.706 117.118 165.706L89.6279 167.449L84.7766 150.894C84.7766 150.894 93.6702 131.726 91.245 119.527C88.819 107.33 120.351 130.854 120.351 130.854Z" fill="#9F616A"/>
<path d="M131.671 145.667C131.671 145.667 124.394 146.537 122.777 149.151C121.16 151.765 109.84 159.607 100.947 157.864C92.0531 156.122 86.3936 153.508 84.7766 154.379C83.1595 155.251 79.9253 173.547 79.9253 173.547L88.8189 201.429L87.2018 278.103L84.7766 299.014C84.7766 299.014 79.9253 292.043 99.3296 296.4C118.734 300.757 143.798 292.914 151.883 292.043C159.969 291.172 173.714 288.558 174.522 283.33C175.331 278.103 172.096 258.934 172.096 258.934L159.16 200.558L151.075 169.191L131.671 145.667Z" fill="#0B2E72"/>
<path d="M124.023 141.734C124.023 141.734 130.862 137.825 133.288 141.31C135.713 144.795 166.437 150.023 166.437 152.637C166.437 155.251 172.905 225.826 171.288 231.925C169.671 238.024 174.522 244.994 174.522 244.994L180.182 271.133C180.182 271.133 195.543 320.797 189.075 322.539C182.607 324.282 176.948 322.539 174.522 322.539C172.096 322.539 172.905 289.43 166.437 280.717C159.969 272.004 151.075 250.222 149.458 245.865C147.841 241.509 127.628 181.389 128.436 174.42C129.245 167.449 124.023 141.734 124.023 141.734Z" fill="#D0CDE1"/>
<path d="M90.436 145.667C90.436 145.667 83.9683 145.667 83.1594 147.408C82.3512 149.151 74.2658 160.478 71.0316 163.092C67.7977 165.706 56.4785 177.033 56.4785 179.647C56.4785 182.261 79.9252 201.429 79.9252 201.429C79.9252 201.429 89.6278 252.835 84.7765 270.261C79.9252 287.687 72.6487 329.509 75.8829 332.123C79.117 334.737 86.3936 335.608 86.3936 332.123C86.3936 328.637 91.2448 291.172 95.2872 283.33C99.3296 275.489 111.457 225.825 106.607 211.885C101.756 197.944 90.436 145.667 90.436 145.667Z" fill="#D0CDE1"/>
<path d="M197.16 231.925C197.16 231.925 197.969 258.935 189.076 272.875C180.182 286.816 174.522 302.499 174.522 302.499C174.522 302.499 159.969 298.143 157.544 292.915C155.118 287.687 139.756 292.043 139.756 290.301C139.756 288.558 158.352 279.846 159.969 278.103C161.586 276.36 167.245 276.36 170.48 272.875C173.714 269.39 174.522 261.548 174.522 261.548L177.756 238.895L197.16 231.925Z" fill="#9F616A"/>
<path d="M129.834 90.4719C131.887 90.2715 134.004 90.0505 135.818 88.9961C139.882 86.6339 140.96 79.9066 137.866 76.2121C137.013 75.2724 136.059 74.445 135.024 73.749L128.878 69.2411C126.159 67.2473 123.377 65.2209 120.207 64.281C117.34 63.4309 114.311 63.5183 111.343 63.7171C105.581 64.103 99.7831 64.9003 94.3631 67.0441C88.9438 69.188 83.8881 72.7748 80.6059 77.8926C75.402 86.007 75.3306 96.9493 78.1964 106.316C81.0628 115.683 86.5069 123.84 91.8713 131.831L94.6547 117.196C94.9024 115.892 95.2228 114.464 96.2293 113.693C98.7293 111.775 101.788 115.712 104.857 115.687C106.828 115.67 108.484 113.922 109.231 111.956C109.979 109.989 110.028 107.811 110.201 105.694C110.567 101.211 112.021 94.9723 115.962 92.4999C119.633 90.1954 125.707 90.8763 129.834 90.4719Z" fill="#2F2E41"/>
<path opacity="0.1" d="M128.338 331.084C128.338 331.084 125.606 416.204 123.989 418.817C122.373 421.431 123.989 330.816 123.989 330.816L128.338 331.084Z" fill="black"/>
<path d="M159.969 152.636H166.437C166.437 152.636 193.926 192.716 190.693 195.33C187.459 197.943 190.693 204.914 190.693 204.914L197.16 217.984C197.16 217.984 205.246 225.825 202.82 227.568C200.395 229.31 197.16 236.281 197.16 236.281C197.16 236.281 180.99 233.667 176.139 244.122L165.653 229.856L159.969 152.636Z" fill="#D0CDE1"/>
<path d="M162.255 165.528L140.06 175.405L157.139 219.978L179.335 210.101L162.255 165.528Z" fill="#2F2E41"/>
<path d="M159.653 191.67C162.105 190.579 163.339 187.727 162.408 185.301C161.479 182.873 158.737 181.79 156.286 182.881C153.834 183.972 152.6 186.824 153.531 189.251C154.461 191.678 157.202 192.761 159.653 191.67Z" fill="#0B2E72"/>
<path d="M143.799 222.34C143.799 222.34 85.5856 274.618 75.8831 258.064C66.1809 241.509 86.3938 227.568 86.3938 227.568C86.3938 227.568 104.181 228.439 124.394 214.499L144.607 204.915C144.607 204.915 163.06 176.525 169.348 187.335C175.636 198.146 158.615 216.961 143.799 222.34Z" fill="#9F616A"/>
<path d="M65.3724 176.162L56.4787 179.646V205.785L53.2446 211.013C53.2446 211.013 54.0531 221.469 56.4787 224.082C58.9042 226.696 63.7553 225.825 62.1383 231.924C61.1664 235.9 60.8923 240.038 61.3298 244.123C61.3298 244.123 75.883 264.162 76.6919 261.548C77.5001 258.934 88.819 226.696 90.4361 226.696C92.0532 226.696 74.2659 176.162 74.2659 176.162H65.3724Z" fill="#D0CDE1"/>
<path d="M171.693 308.163C171.693 308.163 180.052 299.45 175.872 299.014C171.692 298.578 157.139 289.866 154.713 294.222C152.288 298.578 171.693 308.163 171.693 308.163Z" fill="#2F2E41"/>
<path d="M330.69 141.955C337.131 141.955 342.353 138.976 342.353 135.301C342.353 131.625 337.131 128.646 330.69 128.646C324.248 128.646 319.026 131.625 319.026 135.301C319.026 138.976 324.248 141.955 330.69 141.955Z" fill="#57B894"/>
<path d="M375.285 157.481C348.985 146.777 322.685 146.777 296.386 157.481V122.732C322.112 114.366 349.558 114.366 375.285 122.732V157.481Z" stroke="#3F3D56" stroke-width="2" stroke-miterlimit="10"/>
<path d="M364.308 150.295C345.326 142.569 326.345 142.569 307.363 150.295V125.215C325.931 119.177 345.74 119.177 364.308 125.215V150.295Z" stroke="#3F3D56" stroke-width="2" stroke-miterlimit="10"/>
<path d="M334.806 138.998C341.248 138.998 346.469 136.019 346.469 132.344C346.469 128.668 341.248 125.689 334.806 125.689C328.365 125.689 323.143 128.668 323.143 132.344C323.143 136.019 328.365 138.998 334.806 138.998Z" stroke="#3F3D56" stroke-width="2" stroke-miterlimit="10"/>
<path d="M339.266 183.627C345.577 182.239 350.141 178.195 349.459 174.594C348.777 170.993 343.108 169.2 336.796 170.588C330.485 171.976 325.921 176.02 326.603 179.621C327.285 183.222 332.954 185.015 339.266 183.627Z" fill="#57B894"/>
<path d="M385.841 189.229C358.086 184.41 332.318 190.077 308.536 206.232L302.088 172.185C325.742 158.444 352.633 152.53 379.393 155.182L385.841 189.229Z" stroke="#3F3D56" stroke-width="2" stroke-miterlimit="10"/>
<path d="M373.752 184.554C353.721 181.075 335.122 185.165 317.958 196.826L313.304 172.252C330.376 162.334 349.785 158.066 369.098 159.98L373.752 184.554Z" stroke="#3F3D56" stroke-width="2" stroke-miterlimit="10"/>
<path d="M342.75 179.843C349.062 178.454 353.625 174.41 352.943 170.809C352.261 167.209 346.592 165.415 340.28 166.803C333.969 168.191 329.406 172.236 330.088 175.836C330.77 179.437 336.439 181.231 342.75 179.843Z" stroke="#3F3D56" stroke-width="2" stroke-miterlimit="10"/>
<path d="M347.247 219.339C347.484 215.673 342.467 212.31 336.04 211.828C329.615 211.346 324.214 213.927 323.977 217.594C323.74 221.26 328.758 224.623 335.183 225.104C341.609 225.586 347.011 223.005 347.247 219.339Z" fill="#57B894"/>
<path d="M378.671 243.93C353.125 231.284 326.888 229.316 299.962 238.027L302.2 203.361C328.404 196.94 355.784 198.993 380.909 209.264L378.671 243.93Z" stroke="#3F3D56" stroke-width="2" stroke-miterlimit="10"/>
<path d="M368.183 235.94C349.745 226.813 330.809 225.393 311.376 231.679L312.992 206.66C331.903 202.026 351.665 203.507 369.799 210.92L368.183 235.94Z" stroke="#3F3D56" stroke-width="2" stroke-miterlimit="10"/>
<path d="M351.545 216.697C351.781 213.03 346.764 209.668 340.338 209.186C333.912 208.704 328.511 211.285 328.274 214.952C328.037 218.617 333.055 221.98 339.481 222.462C345.906 222.944 351.308 220.363 351.545 216.697Z" stroke="#3F3D56" stroke-width="2" stroke-miterlimit="10"/>
<path d="M284.669 158.289C284.669 158.289 234.245 150.855 198.235 173.596" stroke="#3F3D56" stroke-width="2" stroke-miterlimit="10"/>
<path d="M199.448 165.954L200.758 166.4L198.711 173.349L205.293 175.042L204.973 176.481L196.957 174.418L199.448 165.954Z" fill="#3F3D56"/>
<path d="M586.407 305.252C586.407 305.252 573.328 336.404 582.047 337.65C590.767 338.897 592.946 309.614 592.946 309.614L586.407 305.252Z" fill="#FFB9B9"/>
<path d="M635.998 504.625L627.279 522.291L643.082 533.597L646.856 512.737L635.998 504.625Z" fill="#FFB9B9"/>
<path d="M632.275 524.745C632.275 524.745 627.487 515.834 625.756 517.326C624.024 518.817 616.882 525.281 616.882 525.281L607.578 535.468C607.578 535.468 576.147 539.267 596.119 551.858C616.092 564.449 627.129 554.009 627.129 554.009C627.129 554.009 655.102 555.672 654.651 546.75C654.199 537.827 645.178 523.711 645.178 523.711C645.178 523.711 633.808 532.426 632.275 524.745Z" fill="#2F2E41"/>
<path opacity="0.1" d="M632.275 524.745C632.275 524.745 627.487 515.834 625.756 517.326C624.024 518.817 616.882 525.281 616.882 525.281L607.578 535.468C607.578 535.468 576.147 539.267 596.119 551.858C616.092 564.449 627.129 554.009 627.129 554.009C627.129 554.009 655.102 555.672 654.651 546.75C654.199 537.827 645.178 523.711 645.178 523.711C645.178 523.711 633.808 532.426 632.275 524.745Z" fill="black"/>
<path d="M674.69 304.941L666.516 418.023C666.516 418.023 666.243 485.623 657.524 498.707C648.805 511.791 648.532 518.332 648.532 518.332L630.549 507.741C630.549 507.741 636.543 507.118 633.818 502.756C631.094 498.395 622.919 502.756 630.549 496.526C638.178 490.296 639.813 490.092 637.905 487.39C636.73 485.677 635.893 483.692 635.453 481.573L640.358 411.793L631.094 290.3L674.69 304.941Z" fill="#2F2E41"/>
<path opacity="0.1" d="M674.69 304.941L666.516 418.023C666.516 418.023 666.243 485.623 657.524 498.707C648.805 511.791 648.532 518.332 648.532 518.332L630.549 507.741C630.549 507.741 636.543 507.118 633.818 502.756C631.094 498.395 622.919 502.756 630.549 496.526C638.178 490.296 639.813 490.092 637.905 487.39C636.73 485.677 635.893 483.692 635.453 481.573L640.358 411.793L631.094 290.3L674.69 304.941Z" fill="black"/>
<path d="M652.347 504.626L659.976 527.678L681.774 518.332L668.151 502.133L652.347 504.626Z" fill="#FFB9B9"/>
<path d="M663.171 517.767C663.171 517.767 655.026 511.947 654.008 514.275C652.99 516.603 648.917 526.497 648.917 526.497L644.335 541.048C644.335 541.048 616.336 561.418 640.263 562.582C664.189 563.747 670.298 548.032 670.298 548.032C670.298 548.032 697.279 534.646 693.206 526.497C689.134 518.349 674.88 509.898 674.88 509.898C674.88 509.898 667.753 524.169 663.171 517.767Z" fill="#2F2E41"/>
<path d="M605.481 305.253L601.121 409.301C601.121 409.301 622.374 478.458 640.903 489.673C640.903 489.673 640.903 503.38 645.262 505.872C646.561 506.639 647.713 507.695 648.649 508.98C649.585 510.264 650.286 511.749 650.712 513.348L674.69 506.495C674.69 506.495 668.696 499.641 670.875 496.526C673.055 493.411 663.791 486.558 663.791 486.558L639.813 419.892C639.813 419.892 635.998 418.023 634.908 411.793C633.818 405.562 631.638 405.562 637.088 404.316C642.538 403.07 642.538 396.84 642.538 396.84L660.521 302.138L605.481 305.253Z" fill="#2F2E41"/>
<path d="M625.099 142.016C637.138 142.016 646.897 130.858 646.897 117.094C646.897 103.331 637.138 92.1729 625.099 92.1729C613.06 92.1729 603.301 103.331 603.301 117.094C603.301 130.858 613.06 142.016 625.099 142.016Z" fill="#FFB9B9"/>
<path d="M644.445 118.652C644.445 118.652 646.08 150.427 648.26 153.542C650.44 156.657 625.371 156.034 625.371 156.034C625.371 156.034 627.006 129.244 625.371 126.751C623.737 124.259 644.445 118.652 644.445 118.652Z" fill="#FFB9B9"/>
<path d="M651.802 143.885C651.802 143.885 631.094 141.393 623.464 148.869C621.027 151.248 618.416 153.384 615.66 155.253C613.358 156.831 611.44 159.046 610.082 161.694C608.725 164.342 607.972 167.338 607.893 170.405L603.846 312.106C603.846 312.106 665.426 305.876 676.87 312.106C676.87 312.106 677.415 297.776 678.505 295.907C679.299 294.544 680.673 240.203 681.359 210.851C681.83 194.273 676.707 178.123 667.051 165.743C663.748 161.563 660.058 158.059 656.162 156.346C656.162 156.346 657.251 144.508 651.802 143.885Z" fill="#575A89"/>
<path d="M618.56 156.346C615.492 157.269 612.731 159.208 610.624 161.919C608.517 164.63 607.157 167.992 606.716 171.583L598.941 234.849L588.042 285.316C588.042 285.316 582.592 290.923 584.772 294.038C586.952 297.153 582.047 310.237 582.047 310.237L595.671 315.221C595.671 315.221 597.306 302.138 600.031 301.515C602.426 300.967 629.232 219.098 635.693 199.265C636.584 196.53 637.088 194.975 637.088 194.975C637.088 194.975 635.998 153.231 618.56 156.346Z" fill="#575A89"/>
<path opacity="0.1" d="M636.816 194.663L603.846 296.636C603.846 296.636 635.726 227.684 636.816 194.663Z" fill="black"/>
<path d="M636.487 124.438C634.643 124.312 632.843 125.024 631.012 125.302C624.463 126.296 617.649 120.863 616.203 113.492C616.087 112.51 615.831 111.557 615.445 110.67C614.437 108.789 612.142 108.43 610.249 108.863C608.357 109.295 606.563 110.308 604.635 110.424C601.659 110.602 598.803 108.507 597.217 105.623C595.718 102.648 595.081 99.2064 595.396 95.7917L596.822 97.5035C597.402 96.1014 597.626 94.5414 597.468 93.0011C598.224 92.7709 599.019 92.7665 599.777 92.9882C600.535 93.2099 601.23 93.6503 601.797 94.2674C603.055 94.4204 602.105 91.5999 603.04 90.6251C603.494 90.3059 604.036 90.19 604.561 90.2998C607.237 90.3293 609.402 87.9892 611.511 86.1054C615.164 82.8487 619.437 80.6205 623.983 79.6009C627.005 78.9271 630.218 78.8188 633.084 80.1053C635.398 81.2925 637.485 82.9858 639.23 85.0896C643.717 90.0219 647.69 95.8172 649.556 102.606C651.074 108.166 651.117 114.116 649.68 119.704C648.928 122.606 646.661 132.546 643.343 132.777C639.173 133.068 641.676 124.792 636.487 124.438Z" fill="#2F2E41"/>
</svg>
