<svg width="965" height="723" viewBox="0 0 965 723" fill="none" xmlns="http://www.w3.org/2000/svg">
<g clip-path="url(#clip0)">
<path d="M123 538.883C190.931 538.883 246 483.814 246 415.883C246 347.952 190.931 292.883 123 292.883C55.069 292.883 0 347.952 0 415.883C0 483.814 55.069 538.883 123 538.883Z" fill="#F2F2F2"/>
<path d="M143 520.883C210.931 520.883 266 465.814 266 397.883C266 329.952 210.931 274.883 143 274.883C75.069 274.883 20 329.952 20 397.883C20 465.814 75.069 520.883 143 520.883Z" fill="#0B2E72"/>
<path d="M330.27 652.558H171.857V654.433H330.27V652.558Z" fill="white"/>
<path d="M251 654.883C166.636 654.883 98 586.247 98 501.883C98 417.518 166.636 348.883 251 348.883C335.364 348.883 404 417.518 404 501.883C404 586.247 335.364 654.883 251 654.883ZM251 350.883C167.738 350.883 100 418.621 100 501.883C100 585.144 167.738 652.883 251 652.883C334.262 652.883 402 585.144 402 501.883C402 418.621 334.262 350.883 251 350.883Z" fill="white"/>
<path d="M687.902 169.224H683.989V62.0368C683.989 53.89 682.385 45.823 679.267 38.2963C676.149 30.7697 671.58 23.9308 665.819 18.1701C660.058 12.4094 653.22 7.83984 645.693 4.72221C638.166 1.60458 630.099 -2.88905e-05 621.952 4.26425e-10H394.863C386.716 -3.02037e-05 378.649 1.60458 371.122 4.72221C363.596 7.83984 356.757 12.4094 350.996 18.1701C345.235 23.9307 340.666 30.7696 337.548 38.2963C334.431 45.823 332.826 53.89 332.826 62.0368V650.072C332.826 658.218 334.431 666.285 337.548 673.812C340.666 681.339 345.235 688.178 350.996 693.938C356.757 699.699 363.596 704.269 371.122 707.386C378.649 710.504 386.716 712.108 394.863 712.108H621.952C630.099 712.108 638.166 710.504 645.693 707.386C653.22 704.269 660.058 699.699 665.819 693.938C671.58 688.178 676.149 681.339 679.267 673.812C682.385 666.285 683.989 658.218 683.989 650.072V245.521H687.902L687.902 169.224Z" fill="white"/>
<path d="M964.745 710.187H292.268V712.584H964.745V710.187Z" fill="white"/>
<path d="M622.988 17.6072H593.346C594.709 20.9493 595.229 24.5753 594.861 28.1659C594.493 31.7565 593.247 35.2014 591.234 38.1972C589.22 41.193 586.501 43.6476 583.316 45.345C580.13 47.0423 576.576 47.9302 572.967 47.9305H442.87C439.261 47.9302 435.707 47.0423 432.521 45.345C429.336 43.6476 426.617 41.193 424.604 38.1972C422.59 35.2014 421.345 31.7565 420.976 28.1659C420.608 24.5753 421.128 20.9493 422.492 17.6072H394.805C388.721 17.6072 382.697 18.8055 377.076 21.1337C371.455 23.4619 366.348 26.8744 362.046 31.1764C357.744 35.4784 354.332 40.5856 352.003 46.2064C349.675 51.8272 348.477 57.8516 348.477 63.9355V651.108C348.477 657.191 349.675 663.216 352.003 668.837C354.332 674.458 357.744 679.565 362.046 683.867C366.348 688.169 371.455 691.581 377.076 693.909C382.697 696.238 388.721 697.436 394.805 697.436H622.988C629.072 697.436 635.097 696.238 640.718 693.909C646.338 691.581 651.446 688.169 655.748 683.867C660.05 679.565 663.462 674.458 665.79 668.837C668.119 663.216 669.317 657.191 669.317 651.108V63.9355C669.317 57.8516 668.119 51.8272 665.79 46.2064C663.462 40.5856 660.05 35.4784 655.748 31.1764C651.446 26.8744 646.338 23.4619 640.718 21.1337C635.097 18.8055 629.072 17.6072 622.988 17.6072ZM618.008 290C617.999 293.18 616.732 296.227 614.483 298.475C612.235 300.723 609.188 301.991 606.008 302H548.008C544.829 301.991 541.782 300.723 539.533 298.475C537.285 296.227 536.018 293.18 536.008 290V287C536.018 283.82 537.285 280.773 539.533 278.525C541.782 276.277 544.829 275.009 548.008 275H606.008C609.188 275.009 612.235 276.277 614.483 278.525C616.732 280.773 617.999 283.82 618.008 287V290ZM624.508 237C624.499 240.18 623.232 243.227 620.983 245.475C618.735 247.723 615.688 248.991 612.508 249H404.508C401.329 248.991 398.282 247.723 396.033 245.475C393.785 243.227 392.518 240.18 392.508 237V234C392.518 230.82 393.785 227.773 396.033 225.525C398.282 223.277 401.329 222.009 404.508 222H612.508C615.688 222.009 618.735 223.277 620.983 225.525C623.232 227.773 624.499 230.82 624.508 234V237ZM624.508 184C624.499 187.18 623.232 190.227 620.983 192.475C618.735 194.723 615.688 195.991 612.508 196H404.508C401.329 195.991 398.282 194.723 396.033 192.475C393.785 190.227 392.518 187.18 392.508 184V181C392.518 177.82 393.785 174.773 396.033 172.525C398.282 170.277 401.329 169.009 404.508 169H612.508C615.688 169.009 618.735 170.277 620.983 172.525C623.232 174.773 624.499 177.82 624.508 181V184ZM624.508 131C624.499 134.18 623.232 137.227 620.983 139.475C618.735 141.723 615.688 142.991 612.508 143H404.508C401.329 142.991 398.282 141.723 396.033 139.475C393.785 137.227 392.518 134.18 392.508 131V128C392.518 124.82 393.785 121.773 396.033 119.525C398.282 117.277 401.329 116.009 404.508 116H612.508C615.688 116.009 618.735 117.277 620.983 119.525C623.232 121.773 624.499 124.82 624.508 128V131Z" fill="#0B2E72"/>
<path d="M410.008 243C413.874 243 417.008 239.866 417.008 236C417.008 232.134 413.874 229 410.008 229C406.142 229 403.008 232.134 403.008 236C403.008 239.866 406.142 243 410.008 243Z" fill="#D0CDE1"/>
<path d="M433.008 243C436.874 243 440.008 239.866 440.008 236C440.008 232.134 436.874 229 433.008 229C429.142 229 426.008 232.134 426.008 236C426.008 239.866 429.142 243 433.008 243Z" fill="#D0CDE1"/>
<path d="M456.008 243C459.874 243 463.008 239.866 463.008 236C463.008 232.134 459.874 229 456.008 229C452.142 229 449.008 232.134 449.008 236C449.008 239.866 452.142 243 456.008 243Z" fill="#D0CDE1"/>
<path d="M479.008 243C482.874 243 486.008 239.866 486.008 236C486.008 232.134 482.874 229 479.008 229C475.142 229 472.008 232.134 472.008 236C472.008 239.866 475.142 243 479.008 243Z" fill="#D0CDE1"/>
<path d="M554.008 296C557.874 296 561.008 292.866 561.008 289C561.008 285.134 557.874 282 554.008 282C550.142 282 547.008 285.134 547.008 289C547.008 292.866 550.142 296 554.008 296Z" fill="#D0CDE1"/>
<path d="M577.008 296C580.874 296 584.008 292.866 584.008 289C584.008 285.134 580.874 282 577.008 282C573.142 282 570.008 285.134 570.008 289C570.008 292.866 573.142 296 577.008 296Z" fill="#D0CDE1"/>
<path d="M600.008 296C603.874 296 607.008 292.866 607.008 289C607.008 285.134 603.874 282 600.008 282C596.142 282 593.008 285.134 593.008 289C593.008 292.866 596.142 296 600.008 296Z" fill="#D0CDE1"/>
<path d="M395.924 413.011C388.652 408.638 379.883 408.972 376.549 409.306C377.819 412.405 381.628 420.311 388.9 424.687C396.191 429.071 404.948 428.727 408.277 428.395C407.008 425.297 403.198 417.388 395.924 413.011Z" fill="#D0CDE1"/>
<path d="M430.099 499.795H384.645C381.932 499.795 379.331 500.873 377.413 502.791C375.495 504.709 374.417 507.31 374.417 510.023C374.417 512.735 375.495 515.336 377.413 517.254C379.331 519.172 381.932 520.25 384.645 520.25H430.099C432.812 520.25 435.413 519.172 437.331 517.254C439.249 515.336 440.327 512.735 440.327 510.023C440.327 507.31 439.249 504.709 437.331 502.791C435.413 500.873 432.812 499.795 430.099 499.795H430.099Z" fill="#D0CDE1"/>
<path d="M635.933 391.841H381.083C378.119 391.841 375.183 392.425 372.444 393.559C369.705 394.694 367.217 396.357 365.12 398.453C363.024 400.549 361.361 403.038 360.227 405.777C359.092 408.516 358.508 411.451 358.508 414.416V538.584C358.508 544.571 360.887 550.313 365.12 554.547C369.354 558.781 375.096 561.159 381.083 561.159H635.933C641.92 561.159 647.663 558.781 651.896 554.547C656.13 550.313 658.508 544.571 658.508 538.584V414.416C658.508 411.451 657.924 408.516 656.79 405.777C655.655 403.038 653.992 400.549 651.896 398.453C649.8 396.357 647.311 394.694 644.572 393.559C641.833 392.425 638.898 391.841 635.933 391.841ZM374.778 407.241C375.281 407.15 387.215 405.119 397.096 411.065C406.977 417.01 410.774 428.505 410.93 428.991L411.33 430.231L410.047 430.458C408.218 430.744 406.369 430.88 404.517 430.865C400.029 430.865 393.526 430.122 387.729 426.633C377.848 420.689 374.052 409.194 373.895 408.708L373.496 407.468L374.778 407.241ZM430.099 522.523H384.645C381.329 522.523 378.15 521.206 375.806 518.862C373.462 516.517 372.145 513.338 372.145 510.023C372.145 506.707 373.462 503.528 375.806 501.184C378.15 498.84 381.329 497.523 384.645 497.523H430.099C433.414 497.523 436.594 498.84 438.938 501.184C441.282 503.528 442.599 506.707 442.599 510.023C442.599 513.338 441.282 516.517 438.938 518.862C436.594 521.206 433.414 522.523 430.099 522.523ZM636.917 520.25C636.907 523.863 635.467 527.326 632.912 529.881C630.357 532.436 626.894 533.876 623.281 533.886H589.19C585.577 533.876 582.114 532.436 579.559 529.881C577.004 527.326 575.564 523.863 575.554 520.25V499.795C575.564 496.182 577.004 492.72 579.559 490.165C582.114 487.61 585.577 486.17 589.19 486.159H623.281C626.894 486.17 630.357 487.61 632.912 490.165C635.467 492.72 636.907 496.182 636.917 499.795V520.25Z" fill="#D0CDE1"/>
<path d="M809.008 60H837.008V32H809.008V60Z" fill="#F2F2F2"/>
<path d="M803.008 67H831.008V39H803.008V67Z" fill="#0B2E72"/>
<path d="M776.008 49H822.008V95H776.008V49ZM820.008 51H778.008V93H820.008V51Z" fill="white"/>
<path d="M290.008 263H262.008V291H290.008V263Z" fill="#F2F2F2"/>
<path d="M296.008 256H268.008V284H296.008V256Z" fill="#0B2E72"/>
<path d="M323.008 274H277.008V228H323.008V274ZM279.008 272H321.008V230H279.008V272Z" fill="white"/>
<path d="M808.813 390.848C808.813 390.848 791.367 427.194 802.998 428.648C814.629 430.102 817.537 395.937 817.537 395.937L808.813 390.848Z" fill="#FFB9B9"/>
<path d="M874.963 623.464L863.333 644.075L884.413 657.266L889.447 632.928L874.963 623.464Z" fill="#FFB9B9"/>
<path d="M869.997 646.938C869.997 646.938 863.611 636.541 861.301 638.281C858.991 640.022 849.464 647.563 849.464 647.563L837.054 659.449C837.054 659.449 795.128 663.882 821.769 678.572C848.41 693.262 863.133 681.082 863.133 681.082C863.133 681.082 900.446 683.022 899.844 672.612C899.242 662.201 887.209 645.731 887.209 645.731C887.209 645.731 872.042 655.9 869.997 646.938Z" fill="#2F2E41"/>
<path opacity="0.1" d="M869.997 646.938C869.997 646.938 863.611 636.541 861.301 638.281C858.991 640.022 849.464 647.563 849.464 647.563L837.054 659.449C837.054 659.449 795.128 663.882 821.769 678.572C848.41 693.262 863.133 681.082 863.133 681.082C863.133 681.082 900.446 683.022 899.844 672.612C899.242 662.201 887.209 645.731 887.209 645.731C887.209 645.731 872.042 655.9 869.997 646.938Z" fill="black"/>
<path d="M926.575 390.485L915.671 522.422C915.671 522.422 915.308 601.293 903.677 616.558C892.046 631.824 891.683 639.456 891.683 639.456L867.694 627.099C867.694 627.099 875.69 626.372 872.056 621.283C868.421 616.195 857.517 621.283 867.694 614.014C877.871 606.745 880.052 606.507 877.508 603.355C875.939 601.356 874.823 599.04 874.237 596.568L880.779 515.152L868.421 373.402L926.575 390.485Z" fill="#2F2E41"/>
<path opacity="0.1" d="M926.575 390.485L915.671 522.422C915.671 522.422 915.308 601.293 903.677 616.558C892.046 631.824 891.683 639.456 891.683 639.456L867.694 627.099C867.694 627.099 875.69 626.372 872.056 621.283C868.421 616.195 857.517 621.283 867.694 614.014C877.871 606.745 880.052 606.507 877.508 603.355C875.939 601.356 874.823 599.04 874.237 596.568L880.779 515.152L868.421 373.402L926.575 390.485Z" fill="black"/>
<path d="M896.771 623.464L906.948 650.36L936.025 639.456L917.852 620.556L896.771 623.464Z" fill="#FFB9B9"/>
<path d="M911.21 638.797C911.21 638.797 900.345 632.006 898.987 634.723C897.629 637.439 892.196 648.983 892.196 648.983L886.085 665.959C886.085 665.959 848.736 689.726 880.652 691.085C912.568 692.443 920.717 674.108 920.717 674.108C920.717 674.108 956.707 658.49 951.274 648.983C945.842 639.476 926.828 629.616 926.828 629.616C926.828 629.616 917.321 646.267 911.21 638.797Z" fill="#2F2E41"/>
<path d="M834.256 390.848L828.44 512.245C828.44 512.245 856.79 592.933 881.506 606.018C881.506 606.018 881.506 622.01 887.321 624.918C889.054 625.813 890.59 627.046 891.839 628.544C893.087 630.042 894.023 631.775 894.591 633.641L926.575 625.645C926.575 625.645 918.579 617.649 921.487 614.014C924.394 610.379 912.037 602.383 912.037 602.383L880.052 524.602C880.052 524.602 874.964 522.422 873.51 515.152C872.056 507.883 869.148 507.883 876.417 506.429C883.687 504.976 883.687 497.706 883.687 497.706L907.675 387.214L834.256 390.848Z" fill="#2F2E41"/>
<path d="M860.425 200.394C876.484 200.394 889.502 187.376 889.502 171.317C889.502 155.259 876.484 142.24 860.425 142.24C844.366 142.24 831.348 155.259 831.348 171.317C831.348 187.376 844.366 200.394 860.425 200.394Z" fill="#FFB9B9"/>
<path d="M886.231 173.135C886.231 173.135 888.412 210.208 891.319 213.842C894.227 217.477 860.789 216.75 860.789 216.75C860.789 216.75 862.969 185.492 860.789 182.585C858.608 179.677 886.231 173.135 886.231 173.135Z" fill="#FFB9B9"/>
<path d="M896.044 202.575C896.044 202.575 868.421 199.667 858.244 208.39C854.993 211.166 851.51 213.658 847.834 215.838C844.763 217.68 842.205 220.264 840.394 223.354C838.584 226.443 837.58 229.938 837.474 233.517L832.075 398.845C832.075 398.845 914.217 391.575 929.483 398.845C929.483 398.845 930.21 382.125 931.664 379.944C932.723 378.355 934.556 314.953 935.471 280.707C936.098 261.365 929.265 242.522 916.386 228.078C911.98 223.201 907.057 219.113 901.86 217.114C901.86 217.114 903.314 203.302 896.044 202.575Z" fill="#575A89"/>
<path d="M851.702 217.114C847.61 218.191 843.927 220.452 841.117 223.615C838.306 226.778 836.492 230.701 835.903 234.891L825.533 308.706L810.994 367.587C810.994 367.587 803.725 374.129 806.633 377.764C809.54 381.398 802.998 396.664 802.998 396.664L821.171 402.479C821.171 402.479 823.352 387.214 826.987 386.487C830.181 385.848 865.938 290.328 874.557 267.188C875.745 263.997 876.417 262.183 876.417 262.183C876.417 262.183 874.964 213.479 851.702 217.114Z" fill="#575A89"/>
<path opacity="0.1" d="M876.054 261.819L832.075 380.794C832.075 380.794 874.6 300.346 876.054 261.819Z" fill="black"/>
<path d="M875.615 179.885C873.156 179.739 870.755 180.57 868.313 180.894C859.576 182.054 850.488 175.714 848.558 167.114C848.404 165.969 848.063 164.857 847.548 163.822C846.203 161.627 843.141 161.208 840.617 161.713C838.092 162.218 835.699 163.399 833.129 163.534C829.159 163.742 825.348 161.299 823.233 157.933C821.234 154.462 820.383 150.447 820.804 146.463L822.707 148.46C823.48 146.824 823.779 145.004 823.568 143.207C824.577 142.938 825.637 142.933 826.648 143.192C827.659 143.45 828.587 143.964 829.342 144.684C831.02 144.863 829.754 141.572 831 140.435C831.607 140.062 832.329 139.927 833.029 140.055C836.599 140.09 839.487 137.359 842.3 135.161C847.173 131.362 852.873 128.762 858.937 127.572C862.968 126.786 867.254 126.66 871.077 128.161C874.163 129.546 876.948 131.522 879.275 133.976C885.26 139.731 890.559 146.492 893.049 154.413C895.073 160.901 895.13 167.842 893.214 174.362C892.21 177.748 889.187 189.345 884.761 189.615C879.199 189.954 882.538 180.298 875.615 179.885Z" fill="#2F2E41"/>
</g>
<defs>
<clipPath id="clip0">
<rect width="964.745" height="722.157" fill="white"/>
</clipPath>
</defs>
</svg>
