<svg width="883" height="616" viewBox="0 0 883 616" fill="none" xmlns="http://www.w3.org/2000/svg">
<path d="M883 609.037H0V616H883V609.037Z" fill="#85848B"/>
<path d="M699.565 486.099C699.565 491.455 670.633 507.068 636.267 507.068C601.9 507.068 575.122 491.455 575.122 486.099C575.122 480.743 602.977 482.468 637.377 482.468C671.778 482.468 699.565 480.734 699.565 486.099Z" fill="#504F60"/>
<path opacity="0.2" d="M699.565 486.099C699.565 491.455 670.633 507.068 636.267 507.068C601.9 507.068 575.122 491.455 575.122 486.099" fill="black"/>
<path d="M353.467 387.824C359.045 388.596 364.833 389.086 370.175 387.216C371.017 386.935 371.942 386.308 371.858 385.4C371.798 385.071 371.668 384.76 371.479 384.493C369.466 381.234 367.774 377.756 366.432 374.117C366.379 373.927 366.269 373.761 366.12 373.645C365.947 373.577 365.756 373.577 365.582 373.645C363.117 374.344 360.989 376.06 358.54 376.795C357.292 377.164 355.989 377.269 354.704 377.104C353.594 376.967 352.079 375.978 351.07 376.105C351.642 380.072 353.038 383.776 353.467 387.824Z" fill="#6C63FF"/>
<path d="M458.957 377.775C462.633 375.052 466.444 372.193 468.615 367.99C468.77 367.738 468.86 367.447 468.875 367.145C468.838 366.849 468.731 366.567 468.564 366.328C466.497 362.782 463.835 359.682 460.715 357.187C459.087 358.428 457.616 359.893 456.34 361.545C455.415 362.598 452.857 364.268 452.832 365.875C452.832 366.782 453.808 367.835 454.262 368.598C454.876 369.578 455.457 370.577 456.012 371.594C456.332 372.093 459.251 377.576 458.957 377.775Z" fill="#6C63FF"/>
<path d="M375.333 399.979C375.398 400.914 375.16 401.845 374.66 402.612C374.267 403.038 373.781 403.35 373.246 403.519C365.447 406.533 356.42 402.775 348.638 405.743C347.04 406.352 345.526 407.232 343.919 407.813C342.003 408.435 340.027 408.812 338.03 408.939C335.279 409.22 332.511 409.402 329.752 409.483C327.655 409.644 325.548 409.444 323.509 408.893C322.49 408.612 321.536 408.102 320.712 407.396C319.887 406.691 319.209 405.806 318.722 404.799C318.299 403.897 318.215 402.853 318.487 401.885C318.609 401.554 318.782 401.247 319 400.978C319.527 400.339 320.146 399.797 320.834 399.371L323.703 397.374C325.048 396.347 326.51 395.512 328.052 394.887C329.188 394.487 330.391 394.315 331.543 393.979C335.573 392.708 338.652 389.258 341.513 385.945L345.416 381.452C345.781 380.957 346.244 380.557 346.771 380.281C347.312 380.086 347.888 380.027 348.453 380.108C352.245 380.4 355.907 381.725 359.096 383.957C359.911 384.617 360.791 385.177 361.721 385.627C364.009 386.59 366.945 385.863 369.057 384.647C370.058 384.066 369.839 383.739 370.26 382.704C370.68 381.67 371.707 381.007 372.598 381.951C372.867 382.277 373.058 382.67 373.154 383.095C373.995 386.09 373.675 389.313 373.675 392.454C373.651 392.945 373.708 393.437 373.844 393.906C374.058 394.379 374.315 394.829 374.609 395.25C374.669 395.361 374.722 395.476 374.769 395.595C375.284 396.985 375.477 398.49 375.333 399.979V399.979Z" fill="#514E7F"/>
<path d="M375.333 399.979C375.398 400.914 375.16 401.845 374.66 402.612C374.267 403.038 373.781 403.35 373.246 403.519C365.447 406.533 356.42 402.775 348.638 405.743C347.04 406.352 345.526 407.232 343.919 407.813C342.003 408.435 340.027 408.812 338.03 408.939C335.279 409.22 332.511 409.402 329.752 409.483C327.655 409.644 325.548 409.444 323.509 408.893C322.49 408.612 321.536 408.102 320.712 407.396C319.887 406.691 319.209 405.806 318.722 404.799C318.299 403.897 318.215 402.853 318.487 401.885C318.609 401.554 318.782 401.247 319 400.978C319.454 402.003 319.782 403.365 320.068 403.855C320.455 404.582 320.98 405.211 321.61 405.701C322.239 406.191 322.959 406.53 323.719 406.697C324.858 406.772 326 406.615 327.085 406.234C334.151 404.345 341.664 404.318 348.453 401.459C350.784 400.469 353.005 399.153 355.453 398.554C357.901 397.955 360.501 398.118 363.024 397.891C367.012 397.546 370.874 396.248 374.803 395.567C375.31 396.969 375.492 398.484 375.333 399.979V399.979Z" fill="#464353"/>
<path d="M476.817 377.221C476.447 380.417 474.571 383.167 472.51 385.5C470.449 387.833 468.118 389.93 466.478 392.617C464.459 395.949 463.55 400.079 460.925 402.893C459.918 403.916 458.786 404.787 457.56 405.48C456.187 406.354 454.736 407.075 453.228 407.632C449.307 408.984 445.084 408.675 440.987 408.349C439.657 408.335 438.34 408.061 437.1 407.541C436.536 407.231 435.996 406.873 435.485 406.47C434.458 405.787 433.593 404.854 432.961 403.746C432.65 403.144 432.563 402.437 432.717 401.767C432.951 401.03 433.353 400.369 433.886 399.843C434.808 398.808 435.798 397.847 436.848 396.965C438.288 395.962 439.586 394.739 440.701 393.334C441.385 392.224 441.888 390.996 442.19 389.703C442.786 387.438 443.15 385.109 443.275 382.759C443.271 381.197 443.42 379.639 443.721 378.111C444.344 375.715 445.993 373.572 445.807 371.094C445.733 370.739 445.762 370.368 445.892 370.032C446.087 369.769 446.361 369.587 446.666 369.514C447.951 368.962 449.307 368.622 450.687 368.507C451.379 368.455 452.073 368.57 452.719 368.843C453.365 369.117 453.947 369.541 454.422 370.086C454.994 370.831 455.373 371.902 456.214 372.192C456.631 372.315 457.068 372.334 457.493 372.247C459.563 372.02 461.75 371.739 463.382 370.295C464.136 369.565 464.743 368.674 465.162 367.679C465.582 366.684 465.807 365.606 465.822 364.513C465.822 363.687 465.477 362.824 466.663 362.697C467.555 362.57 468.261 363.605 468.716 364.24C470.356 366.61 472.039 369.088 472.653 371.975C472.892 371.875 473.146 371.822 473.402 371.82C473.926 371.815 474.445 371.947 474.912 372.205C475.379 372.462 475.782 372.838 476.085 373.3C476.755 374.471 477.015 375.862 476.817 377.221Z" fill="#514E7F"/>
<path d="M476.817 377.222C476.447 380.417 474.571 383.167 472.51 385.5C470.449 387.833 468.118 389.93 466.478 392.617C464.459 395.949 463.55 400.079 460.925 402.893C459.918 403.917 458.786 404.787 457.56 405.48C456.187 406.354 454.736 407.075 453.228 407.632C449.307 408.984 445.084 408.676 440.987 408.349C439.657 408.335 438.34 408.061 437.1 407.541C436.536 407.232 435.996 406.873 435.485 406.47C434.458 405.787 433.593 404.855 432.961 403.746C433.75 403.337 434.61 403.115 435.485 403.093C437.302 403.202 438.631 405.054 440.373 405.626C442.854 406.433 445.328 404.545 447.843 403.901C449.484 403.483 451.208 403.592 452.832 402.993C454.185 402.429 455.436 401.611 456.525 400.578C458.019 399.426 459.349 398.044 460.471 396.475C461.403 394.907 462.179 393.236 462.785 391.492C464.113 388.148 465.677 384.919 467.462 381.833C467.726 381.344 468.046 380.893 468.413 380.49C468.808 380.099 469.254 379.827 469.7 379.482C471.383 378.111 472.081 375.851 472.67 373.636C472.829 372.963 473.052 372.309 473.334 371.684C473.859 371.679 474.377 371.811 474.844 372.069C475.312 372.326 475.714 372.702 476.018 373.164C476.742 374.363 477.027 375.809 476.817 377.222V377.222Z" fill="#464353"/>
<path d="M300.407 94.1987C302.501 95.8918 304.225 98.0612 305.455 100.553C306.633 103.04 313.422 122.339 313.027 125.144C315.239 122.739 323.964 122.348 326.201 119.943C327.135 118.935 332.175 113.906 332.932 112.735C333.689 111.564 339.309 109.104 339.923 107.87C342.219 103.431 323.635 86.6098 326.016 82.2253C326.148 82.0238 326.216 81.7818 326.21 81.5354C326.156 81.3284 326.048 81.1426 325.898 80.9998C324.376 79.3204 322.357 78.2765 320.523 77.0329C318.689 75.7892 316.922 74.0554 316.426 71.7678C314.677 72.6365 313.071 73.8079 311.672 75.2355C308.262 78.3885 304.911 81.605 301.619 84.885C300.332 86.1741 297.841 87.8897 297.244 89.7325C296.537 91.7114 299.179 93.1185 300.407 94.1987Z" fill="#A1616A"/>
<path d="M330.492 87.0547C327.641 89.1221 324.976 91.4745 322.533 94.0808C320.228 96.5408 318.041 99.3912 317.485 102.832C317.25 104.184 317.284 105.555 317.09 106.926C316.249 112.872 311.487 117.229 309.384 122.793C308.775 124.511 308.327 126.29 308.046 128.104C307.455 131.542 307.132 135.028 307.079 138.525C307.028 141.911 310.107 144.244 311.235 147.403C312.362 150.562 312.665 153.812 313.237 157.052C314.314 163.171 316.291 169.071 318.285 174.935C322.432 187.299 335.876 221.476 340.024 233.849C352.736 230.409 386.572 222.502 397.829 215.249C401.581 212.835 371.791 185.593 375.804 183.713C376.033 183.675 376.251 183.579 376.44 183.434C376.63 183.289 376.785 183.099 376.894 182.878C377.004 182.657 377.064 182.411 377.07 182.161C377.077 181.911 377.029 181.662 376.931 181.435C372.918 162.499 360.366 146.94 354.67 128.503C352.693 122.103 349.143 116.639 346.451 110.557C344.011 105.047 342.707 98.9555 339.788 93.7177C339.238 92.6386 338.517 91.671 337.66 90.8582C336.932 90.2558 336.144 89.7414 335.312 89.3241C333.647 88.4526 332.099 87.9352 330.492 87.0547Z" fill="#514E7F"/>
<path d="M301.081 92.0474C312.069 92.0474 320.977 82.4355 320.977 70.5787C320.977 58.7219 312.069 49.1101 301.081 49.1101C290.092 49.1101 281.184 58.7219 281.184 70.5787C281.184 82.4355 290.092 92.0474 301.081 92.0474Z" fill="#A1616A"/>
<path d="M321.322 80.6639C322.313 79.6771 323.559 79.0378 324.894 78.8303C326.229 78.6229 327.592 78.8571 328.801 79.502C330.147 80.2554 331.325 81.7805 331.022 83.3782L340.89 83.5415C342.461 83.4952 344.031 83.6506 345.568 84.0045C347.114 84.3678 348.495 85.3021 349.471 86.6461C349.589 86.8186 349.724 87.0274 349.926 87.0546C350.09 87.0574 350.25 86.9997 350.38 86.8912C351.898 86.0697 353.608 85.7537 355.293 85.9834C360.627 86.3556 365.557 89.2332 369.738 92.828C370.492 93.3873 371.077 94.1733 371.421 95.0883C371.765 96.2956 371.353 97.8116 372.262 98.674C372.262 108.659 375.442 117.991 377.562 127.722C377.941 129.456 379.48 130.99 380.549 132.352C381.869 133.862 382.946 135.598 383.737 137.49C385.537 142.537 383.056 148.474 384.805 153.539C385.546 155.682 386.976 157.443 388.171 159.304C389.745 161.452 390.741 164.028 391.048 166.747C391.124 167.964 390.981 169.189 391.048 170.378C391.161 172.014 391.443 173.631 391.889 175.199C392.607 178.128 393.359 181.054 394.144 183.977C395.423 188.697 397.088 193.79 401.009 196.304C391.544 198.038 381.566 199.735 372.548 196.186C371.29 195.723 370.096 195.079 368.998 194.271C365.742 191.765 364.169 187.481 362.764 183.432C361.199 178.893 359.609 174.273 359.289 169.443C359.292 167.907 359.091 166.379 358.692 164.905C357.775 162.272 355.327 160.683 353.106 159.222C350.598 157.739 348.325 155.833 346.375 153.576C345.408 152.439 344.667 151.1 344.198 149.641C343.729 148.183 343.542 146.636 343.65 145.097C343.818 143.599 344.365 142.156 344.415 140.649C344.466 139.142 343.843 137.417 342.505 137.018C335.615 134.767 332.326 125.961 330.795 118.372C330.134 114.45 329.838 110.467 329.911 106.481L329.819 98.7375C328.868 97.8041 328.103 96.6717 327.571 95.4092C327.039 94.1466 326.75 92.7804 326.723 91.3937C326.814 90.5846 326.8 89.7657 326.681 88.9609C326.348 87.9771 325.806 87.0911 325.099 86.3738C323.578 84.6892 322.304 82.7637 321.322 80.6639V80.6639Z" fill="#464353"/>
<path d="M300.13 105.21C299.903 107.606 300.407 110.066 299.911 112.417C299.718 113.325 299.381 114.233 299.137 115.077C298.391 118.461 298.714 122.017 300.054 125.181C301.392 128.313 302.995 131.306 304.841 134.122C305.465 135.083 305.98 136.123 306.372 137.218C306.69 138.367 306.888 139.552 306.961 140.749C307.448 145.556 308.23 150.323 309.3 155.019C310.242 159.086 320.943 193.853 323.433 197.076C323.885 197.789 324.571 198.292 325.352 198.483C325.915 198.506 326.475 198.381 326.984 198.12L332.031 196.032C332.461 195.89 332.859 195.655 333.201 195.342C333.674 194.745 333.931 193.984 333.924 193.199C334.286 188.77 323.56 153.757 322.197 149.572C318.074 136.936 312.589 124.754 309.906 111.673C309.157 108.042 308.761 102.45 306.296 99.5544C305.278 98.3562 305.623 98.8645 304.404 99.4909C303.787 99.7795 303.191 100.116 302.62 100.499C301.906 101.034 301.312 101.735 300.881 102.55C300.45 103.365 300.193 104.274 300.13 105.21Z" fill="#464353"/>
<path d="M315.45 129.184C316.804 136.909 318.201 144.616 319.589 152.341L339.342 146.758C339.502 144.525 338.4 142.456 337.66 140.404C335.859 135.529 335.817 130.101 334.362 125.09C333.26 121.277 331.342 117.774 330.307 113.934C329.71 111.701 329.407 109.395 328.818 107.135C328.186 104.915 327.41 102.746 326.496 100.644C325.387 97.5956 323.941 94.7031 322.188 92.0293C319.665 93.046 316.972 94.2261 315.534 96.6861C314.796 98.0723 314.375 99.6282 314.306 101.225C313.961 106.009 315.568 110.82 315.038 115.577C314.492 120.107 314.631 124.702 315.45 129.184V129.184Z" fill="#6C63FF"/>
<path d="M339.67 231.943C340.781 236.482 339.174 241.257 337.862 245.75C335.886 252.518 334.539 259.482 333.84 266.538C333.755 268.334 333.42 270.105 332.848 271.794C332.225 273.31 331.165 274.59 330.442 276.033C328.456 279.828 328.507 284.457 328.936 288.796C329.222 291.656 329.651 294.506 330.181 297.32C330.829 300.761 331.628 304.355 330.694 307.714C332.259 307.342 333.319 309.53 333.218 311.245C333.117 312.961 332.604 314.876 333.369 316.356C335.304 317.119 335.321 319.987 335.262 322.211C335.294 326.067 335.746 329.906 336.608 333.649C339.536 348.839 342.643 363.986 345.93 379.092C353.039 381.47 361.342 383.948 368.123 380.653C369.385 380.045 370.647 379.073 370.933 377.603C371.007 376.81 370.915 376.01 370.664 375.261L367.45 362.643C366.667 359.593 365.885 356.443 366.297 353.311C366.609 350.978 367.551 348.464 366.491 346.403C366.129 345.695 365.557 345.141 365.136 344.469C363.454 341.81 364.337 338.251 364.472 335.029C364.524 334.305 364.479 333.578 364.337 332.868C364.107 332.04 363.785 331.244 363.378 330.499C360.722 324.935 359.447 318.724 359.676 312.471C359.777 311.673 359.675 310.86 359.382 310.12C359.178 309.814 358.995 309.492 358.835 309.157C358.71 308.575 358.772 307.963 359.012 307.424C358.048 306.634 357.177 305.72 356.421 304.7C356.887 304.387 357.282 303.964 357.575 303.462C357.867 302.961 358.051 302.394 358.111 301.804C358.171 301.215 358.106 300.619 357.921 300.061C357.736 299.502 357.436 298.997 357.043 298.582C357.386 298.507 357.703 298.332 357.96 298.074C358.216 297.817 358.401 297.488 358.494 297.124C358.587 296.76 358.585 296.375 358.488 296.012C358.391 295.65 358.202 295.323 357.943 295.069C357.531 294.76 356.984 294.624 356.69 294.161C356.235 293.489 356.606 292.554 356.976 291.837L358.936 288.016C360.4 285.174 360.728 281.661 362.301 278.938C364.556 274.971 366.028 270.55 367.483 266.175L373.145 249.318L376.956 252.885C378.226 253.932 379.29 255.24 380.086 256.734C380.628 258.211 380.971 259.764 381.104 261.345C382.5 270.496 387.834 278.43 389.811 287.444C390.249 289.45 390.543 291.556 391.612 293.272C391.994 293.798 392.337 294.357 392.638 294.942C392.916 295.834 393.061 296.769 393.067 297.711C393.243 299.554 393.786 301.336 394.657 302.933C395.528 304.531 396.707 305.908 398.115 306.97C399.991 308.359 402.321 309.312 403.339 311.509C403.543 312.189 403.825 312.838 404.18 313.442C405.089 314.622 407.049 314.758 407.436 316.238C407.655 317.064 407.251 318.054 407.68 318.78C407.924 319.116 408.246 319.376 408.614 319.533L414.091 322.483C420.215 325.788 423.345 333.377 427.863 338.905C429.423 340.705 430.805 342.677 431.985 344.787C433.937 348.554 434.837 353.284 438.135 355.68C439.021 356.176 439.828 356.823 440.524 357.596C441.559 359.066 441.18 361.127 441.273 362.979C441.365 364.831 442.678 367.037 444.31 366.474C443.738 368.717 443.738 371.084 444.31 373.327C451.475 372.93 458.308 369.944 463.71 364.849C465.309 363.342 466.848 361.417 466.865 359.13C466.889 358.735 466.808 358.341 466.629 357.995C466.306 357.548 465.88 357.201 465.393 356.988C460.269 353.992 458.73 347.048 456.139 341.41C453.875 336.436 450.527 332.151 447.726 327.531C441.635 317.591 437.479 305.563 428.267 299C426.239 297.556 423.883 296.276 422.865 293.889C422.302 292.554 422.235 291.029 421.789 289.65C421.343 288.27 420.274 286.926 418.911 286.926C419.669 284.929 419.517 282.496 419.568 280.336C419.619 279.377 419.517 278.416 419.265 277.495C418.915 276.504 418.46 275.559 417.91 274.681C415.507 270.29 414.305 265.254 414.444 260.156C414.512 257.533 414.941 254.828 414.209 252.322C413.838 251.061 413.191 249.908 412.745 248.691C412.073 246.487 411.718 244.185 411.693 241.865L411.188 233.141C411.112 230.236 410.763 227.347 410.145 224.517C408.463 217.746 406.78 189.378 401.017 186.183C395.254 182.987 385.352 204.819 378.866 205.246C375.997 205.374 373.161 205.965 370.453 206.998C366.137 208.741 362.52 211.99 358.995 215.167L347.065 225.979C344.542 228.221 342.455 230.363 339.67 231.943Z" fill="#464353"/>
<path d="M282.412 46.7408C285.037 42.8737 289.546 40.8221 293.988 40.6497C298.43 40.4772 302.805 41.9841 306.784 44.1173C307.959 44.838 309.214 45.3933 310.52 45.7695C312.623 46.2324 314.962 45.6151 316.863 46.6772C319.387 48.1206 319.875 51.797 319.656 54.8471C319.437 57.8972 318.907 61.2832 320.413 63.9247C320.948 64.6781 321.434 65.4697 321.869 66.294C322.517 67.8644 322.138 69.68 321.751 71.3412C320.767 70.4334 320.211 69.0627 319.336 68.0097C318.462 66.9567 316.939 66.2486 315.854 67.0384C314.768 67.8281 314.785 69.2624 314.726 70.5514C314.667 71.8405 314.364 73.3837 313.237 73.8012C312.766 73.9168 312.274 73.8774 311.824 73.6881C311.374 73.4988 310.987 73.1682 310.713 72.7391C308.787 70.1974 309.561 66.1397 307.651 63.5798C306.566 62.1274 304.757 61.4193 303.756 59.8943C302.965 58.696 302.763 57.171 302.073 55.882C301.383 54.5929 299.776 53.6489 298.708 54.5385C298.343 54.9144 298.039 55.353 297.808 55.8366C297.142 56.8663 296.173 57.6235 295.059 57.9859C293.944 58.3483 292.749 58.2946 291.666 57.8337C290.839 57.2857 289.944 56.8669 289.008 56.59C288.395 56.5569 287.786 56.7094 287.249 57.0302C286.713 57.351 286.27 57.8274 285.971 58.4055C285.367 59.5606 285.076 60.8752 285.13 62.2C285.13 64.0155 285.432 65.9491 284.473 67.4015C284.109 67.9483 283.652 68.4163 283.127 68.7813C281.722 69.7526 279.762 70.4062 278.467 69.2987C278.027 68.8574 277.701 68.3016 277.518 67.6848C277.335 67.068 277.303 66.4109 277.423 65.7766C277.676 64.5131 278.007 63.2696 278.416 62.0548C279.156 59.2407 278.189 56.0726 278.997 53.4219C279.843 51.0348 280.992 48.7862 282.412 46.7408V46.7408Z" fill="#464353"/>
<path d="M293.071 110.784C292.945 111.445 293.01 112.133 293.256 112.753C293.506 113.176 293.847 113.528 294.249 113.779C297.078 115.681 300.296 116.806 303.621 117.056C304.074 117.065 304.518 117.189 304.917 117.419C305.707 117.982 305.758 119.235 305.464 120.233C305.071 121.175 304.867 122.196 304.866 123.229C305.11 125.126 307.197 125.952 308.955 126.234C311.42 126.57 314.12 126.397 316.072 124.736C317.394 123.435 318.402 121.805 319.008 119.988C323.837 108.015 325.528 94.7796 330.416 82.8425C330.787 82.0631 331.034 81.2225 331.148 80.3553C331.2 79.9212 331.143 79.48 330.983 79.0778C330.823 78.6755 330.566 78.3267 330.239 78.0677C329.331 77.4595 327.918 77.8044 327.303 76.8513C327.001 76.3702 327.034 75.7166 326.765 75.2082C326.201 74.128 324.721 74.3005 323.711 73.6741C322.92 73.2202 322.373 72.2852 321.49 72.1037C321.056 72.0772 320.623 72.1603 320.224 72.3462C319.826 72.5322 319.473 72.8159 319.193 73.1748C316.325 76.0615 314.819 80.1555 313.22 84.0226C310.779 89.9502 307.922 95.6677 304.673 101.125C305.051 100.489 302.856 95.6783 301.997 95.4695C300.491 95.1427 298.565 97.9931 297.749 99.0552C295.188 102.405 293.565 106.474 293.071 110.784V110.784Z" fill="#6C63FF"/>
<path opacity="0.1" d="M323.635 74.5183C323.031 74.5292 322.437 74.6866 321.897 74.9788C321.356 75.2711 320.884 75.6908 320.514 76.2067C319.614 77.4685 319.437 79.1388 319.21 80.7456C318.445 85.836 316.761 90.715 314.255 95.1064" fill="black"/>
<path opacity="0.1" d="M327.926 78.1404C327.092 78.1604 326.277 78.4146 325.561 78.8778C324.846 79.341 324.255 79.9972 323.846 80.782C323.289 82.2098 322.942 83.7229 322.819 85.2663C322.098 88.6882 320.707 91.904 318.739 94.698" fill="black"/>
<path d="M527.867 255.608V244.334C527.865 236.034 524.807 228.075 519.368 222.207C513.928 216.34 506.551 213.043 498.859 213.043H86.2154C78.5236 213.043 71.1466 216.34 65.7069 222.207C60.2671 228.075 57.21 236.034 57.2078 244.334V265.122L527.867 255.608Z" fill="#33323D"/>
<path d="M201.009 199.826C201.009 199.826 199.831 278.675 212.787 304.618C225.743 330.562 231.295 443.425 231.295 443.425C231.295 443.425 367.113 458.584 461.758 425.269C556.403 391.955 757.791 378.329 757.791 378.329L723.853 131.517C723.853 131.517 556.193 119.916 460.816 168.998C365.439 218.081 201.009 199.826 201.009 199.826Z" fill="#8DD070"/>
<path opacity="0.1" d="M201.009 199.826C201.009 199.826 199.831 278.675 212.787 304.618C225.743 330.562 231.295 443.425 231.295 443.425C231.295 443.425 367.113 458.584 461.758 425.269C556.403 391.955 757.791 378.329 757.791 378.329L723.853 131.517C723.853 131.517 556.193 119.916 460.816 168.998C365.439 218.081 201.009 199.826 201.009 199.826Z" fill="black"/>
<path d="M231.068 228.63C231.068 228.63 226.82 293.689 237.479 314.477C248.138 335.265 248.634 428.066 248.634 428.066C248.634 428.066 370.865 434.184 457.813 402.249C544.76 370.314 727.471 349.598 727.471 349.598L706.708 147.757C706.708 147.757 555.528 146.078 467.294 191.03C379.059 235.983 231.068 228.63 231.068 228.63Z" fill="#8DD070"/>
<path opacity="0.1" d="M465.951 365.293C483.343 362.956 493.675 328.434 489.029 288.186C484.383 247.938 466.518 217.206 449.127 219.543C431.735 221.881 421.403 256.403 426.049 296.65C430.695 336.898 448.56 367.631 465.951 365.293Z" fill="black"/>
<path opacity="0.2" d="M631.934 11.2834C631.934 11.2834 469.052 55.7639 392.242 134.059C315.433 212.353 153.737 249.426 153.737 249.426C153.737 249.426 175.038 324.853 194.741 345.259C214.444 365.666 251.815 471.257 251.815 471.257C251.815 471.257 385.386 440.701 465.981 377.63C546.577 314.558 734.412 234.902 734.412 234.902L631.934 11.2834Z" fill="black"/>
<path d="M151.289 238.134C151.289 238.134 172.582 313.569 192.268 333.976C211.954 354.382 249.341 459.964 249.341 459.964C249.341 459.964 382.93 429.418 463.533 366.347C544.137 303.275 731.955 223.646 731.955 223.646L629.478 0C629.478 0 466.604 44.4805 389.794 122.775C312.985 201.07 151.289 238.134 151.289 238.134Z" fill="#8DD070"/>
<path opacity="0.1" d="M151.289 238.134C151.289 238.134 172.582 313.569 192.268 333.976C211.954 354.382 249.341 459.964 249.341 459.964C249.341 459.964 382.93 429.418 463.533 366.347C544.137 303.275 731.955 223.646 731.955 223.646L629.478 0C629.478 0 466.604 44.4805 389.794 122.775C312.985 201.07 151.289 238.134 151.289 238.134Z" fill="black"/>
<path d="M188.062 255.599C188.062 255.599 202.524 318.934 218.584 335.183C234.644 351.432 261.489 439.576 261.489 439.576C261.489 439.576 379.556 404.918 453.228 345.731C526.899 286.545 694.922 206.417 694.922 206.417L617.767 21.1238C617.767 21.1238 473.41 69.5712 402.212 141.575C331.014 213.579 188.062 255.599 188.062 255.599Z" fill="#8DD070"/>
<path opacity="0.1" d="M450.504 307.894C466.392 299.911 466.408 263.634 450.54 226.866C434.672 190.098 408.929 166.764 393.041 174.747C377.154 182.73 377.138 219.007 393.005 255.775C408.873 292.543 434.616 315.877 450.504 307.894Z" fill="black"/>
<path opacity="0.1" d="M539.006 266.674V579.853C539.006 583.41 538.356 586.932 537.094 590.218C535.833 593.503 533.983 596.489 531.652 599.004C529.321 601.518 526.553 603.513 523.508 604.873C520.462 606.233 517.198 606.933 513.901 606.932H82.3201C75.6658 606.929 69.2848 604.075 64.5803 598.997C59.8757 593.919 57.2329 587.033 57.2329 579.853V235.102C69.5999 240.058 69.5999 240.058 82.3201 239.641H513.901C520.551 239.641 526.928 242.487 531.635 247.555C536.341 252.624 538.992 259.499 539.006 266.674V266.674Z" fill="black"/>
<path d="M539.006 270.659V583.838C539.003 591.02 536.357 597.908 531.65 602.986C526.942 608.064 520.558 610.916 513.901 610.916H82.3201C75.6658 610.914 69.2848 608.06 64.5803 602.982C59.8757 597.904 57.2329 591.018 57.2329 583.838V239.078C69.5999 244.025 69.5999 244.025 82.3201 243.617H513.901C520.552 243.617 526.931 246.464 531.638 251.534C536.345 256.605 538.994 263.483 539.006 270.659V270.659Z" fill="#504F60"/>
<path opacity="0.1" d="M537.777 386.444V486.598H447.759C435.559 486.421 423.914 481.067 415.344 471.695C406.775 462.323 401.97 449.687 401.97 436.521C401.97 423.356 406.775 410.719 415.344 401.347C423.914 391.976 435.559 386.622 447.759 386.444H537.777Z" fill="black"/>
<path d="M539.005 383.776V483.947H448.988C436.787 483.77 425.142 478.416 416.573 469.044C408.003 459.672 403.198 447.036 403.198 433.871C403.198 420.705 408.003 408.069 416.573 398.697C425.142 389.325 436.787 383.971 448.988 383.794L539.005 383.776Z" fill="#33323D"/>
<path opacity="0.1" d="M453.303 456.052C463.298 456.052 471.4 447.31 471.4 436.526C471.4 425.742 463.298 417 453.303 417C443.309 417 435.207 425.742 435.207 436.526C435.207 447.31 443.309 456.052 453.303 456.052Z" fill="black"/>
<path d="M454.532 453.401C464.526 453.401 472.628 444.659 472.628 433.875C472.628 423.091 464.526 414.349 454.532 414.349C444.537 414.349 436.436 423.091 436.436 433.875C436.436 444.659 444.537 453.401 454.532 453.401Z" fill="#6C63FF"/>
<path d="M398.098 184.676C396.457 186.25 394.941 187.969 393.563 189.814C392.177 191.684 391.439 194.018 391.477 196.413C391.484 197.107 391.69 197.783 392.066 198.347C392.258 198.616 392.523 198.815 392.825 198.914C393.127 199.013 393.449 199.008 393.748 198.9C394.087 198.714 394.376 198.44 394.59 198.101C395.479 196.949 396.422 195.846 397.416 194.797C397.778 194.407 398.258 193.998 398.746 194.144C398.964 194.227 399.161 194.368 399.318 194.552C399.884 195.08 400.296 195.774 400.504 196.549C400.799 197.938 400.05 199.327 399.2 200.416C398.35 201.506 397.349 202.549 397.004 203.92C396.874 204.282 396.874 204.684 397.004 205.046C397.167 205.308 397.394 205.515 397.66 205.645C398.865 206.361 400.201 206.782 401.573 206.879C402.946 206.977 404.321 206.747 405.602 206.208C407.285 205.472 408.782 204.211 410.515 203.557C411.266 203.336 411.993 203.031 412.686 202.649C413.182 202.293 413.607 201.835 413.938 201.3C414.268 200.766 414.498 200.166 414.612 199.536C414.831 198.276 414.874 196.988 414.739 195.714C414.529 190.783 413.55 185.925 411.845 181.344C411.746 181.049 411.578 180.786 411.357 180.582C411.104 180.415 410.812 180.33 410.515 180.336C408.362 180.091 404.828 178.902 402.75 179.765C402.023 180.195 401.396 180.797 400.916 181.526C400.529 181.989 398.098 184.067 398.098 184.676Z" fill="#A1616A"/>
<path d="M397.416 182.624C397.416 180.409 394.893 175.062 398.906 174.708C398.906 172.339 395.801 170.868 396.382 168.354C396.567 167.519 397.223 166.838 397.299 165.985C397.551 163.561 393.496 162.245 394.169 159.921C394.421 159.013 395.313 158.487 395.507 157.588C395.961 155.491 392.486 154.556 392.419 152.405C392.419 151.678 392.798 150.998 392.764 150.271C392.764 149.364 392.032 148.674 391.628 147.884C390.577 145.86 391.09 142.728 389.172 141.684C390.442 141.802 390.854 139.768 390.333 138.525C389.811 137.281 388.743 136.201 388.734 134.821C388.797 134.321 388.797 133.814 388.734 133.314C388.381 131.989 386.37 131.88 386.034 130.591C385.99 130.096 385.976 129.599 385.992 129.102C385.857 128.076 384.881 127.423 383.964 127.132C383.012 126.958 382.095 126.605 381.255 126.088C380.666 125.607 379.985 124.809 379.354 125.181C379.118 125.335 379.001 125.625 378.824 125.843C378.067 126.797 376.62 126.379 375.669 125.68C372.859 123.619 371.463 119.925 370.865 116.321C370.268 112.717 370.285 108.995 369.536 105.428C369.308 104.316 369.004 103.224 368.628 102.16C368.308 101.252 367.281 99.8268 367.214 98.91C367.063 96.8221 371.067 98.2473 372.59 98.4561C374.068 98.6119 375.53 98.9158 376.956 99.3639C378.479 99.9844 379.97 100.69 381.424 101.479C387.498 104.375 394.834 104.729 399.713 109.594C401.32 111.192 402.675 113.289 404.761 114.015C405.718 114.213 406.662 114.477 407.588 114.805C409.901 115.976 410.263 119.289 411.525 121.686C411.922 122.319 412.268 122.987 412.56 123.683C412.803 124.504 412.917 125.363 412.896 126.225L413.073 132.515C413.359 143.055 413.645 153.621 412.602 164.097C412.265 167.555 411.76 171.114 412.711 174.436C412.963 175.344 413.317 176.197 413.552 177.114C413.76 178.189 413.868 179.284 413.872 180.382L414.007 184.458C414.053 184.775 413.987 185.099 413.822 185.365C413.681 185.489 413.516 185.576 413.34 185.622C413.164 185.667 412.981 185.67 412.804 185.629C407.546 185.12 402.229 181.925 397.265 183.859" fill="#464353"/>
<path d="M637.369 495.803C671.733 495.803 699.591 491.458 699.591 486.099C699.591 480.739 671.733 476.395 637.369 476.395C603.005 476.395 575.147 480.739 575.147 486.099C575.147 491.458 603.005 495.803 637.369 495.803Z" fill="#504F60"/>
<path d="M690.9 486.571C689.806 481.515 689.125 477.076 689.125 477.076C689.125 477.076 689.377 471.575 687.089 467.444V466.064V455.897C687.74 454.051 688.537 452.269 689.47 450.569C691.152 447.374 689.47 435.663 689.47 435.663C689.47 435.663 683.185 419.151 684.708 408.676C686.231 398.2 671.803 362.162 671.803 362.162C671.892 358.686 672.346 355.233 673.157 351.868C673.311 351.16 673.374 350.433 673.342 349.707C673.342 349.616 673.342 349.535 673.342 349.444C673.342 349.353 673.342 349.498 673.342 349.526C673.124 342.617 668.059 329.673 668.059 329.673L668.74 305C668.74 305 671.971 290.476 666.705 270.913C664.862 264.096 663.684 258.64 662.936 254.428C662.851 253.956 662.767 253.52 662.7 253.057C673.544 251.242 681.831 249.789 681.831 249.789C681.831 249.789 675.538 221.386 671.29 216.411C667.041 211.436 663.642 195.814 663.642 195.814C663.642 195.814 661.43 175.761 665.005 169.897C668.581 164.033 669.085 153.92 669.085 153.92C669.085 153.92 677.237 147.566 678.264 144.689C679.29 141.811 680.981 135.457 680.981 132.089C680.981 128.721 679.963 125.734 680.3 123.919C680.636 122.103 677.919 115.395 679.282 112.2C679.634 111.218 679.817 110.175 679.82 109.122C679.823 109.092 679.823 109.062 679.82 109.032C679.82 109.032 679.82 109.032 679.82 109.032C679.833 106.235 679.593 103.444 679.105 100.698C676.747 98.5496 673.995 96.9627 671.029 96.0414L670.852 95.2789L670.389 93.2818C670.131 93.0976 669.864 92.9279 669.59 92.7735V92.0473L669.514 89.1606L670.793 82.6791C673.317 71.4047 659.36 69.7253 659.36 69.7253C658.514 67.9959 657.106 66.6642 655.406 65.9853C652.605 64.9232 654.943 82.9424 656.247 84.1406C657.232 85.0484 660.277 90.6584 661.749 93.4361L661.985 93.89C661.754 94.1136 661.541 94.3564 661.346 94.6162L661.876 98.5287L661.96 99.1278C661.035 100.367 660.283 101.747 659.73 103.222C659.73 103.222 662.254 106.236 661.775 109.576C661.295 112.917 662.557 117.156 662.616 117.383C662.464 117.192 660.672 115.104 658.881 115.613C657.089 116.121 652.083 117.746 652.083 117.746C652.083 117.746 648.348 118.454 648.718 119.344C649.088 120.233 646.194 124.137 646.194 124.137L636.149 113.861C636.048 113.552 635.939 113.244 635.854 112.953C635.445 111.471 635.163 109.952 635.013 108.414C636.108 108.134 637.182 107.766 638.227 107.316C639.282 106.925 640.235 106.265 641.003 105.391C642.021 104.093 642.215 102.332 642.627 100.716C643.418 97.5574 645.151 94.7524 646.354 91.7477C648.391 86.6704 649.048 81.0725 648.247 75.6076C648.092 73.9235 647.564 72.3044 646.707 70.8873C645.067 68.4545 642.088 67.465 639.926 65.5224C637.764 63.5798 636.368 60.6114 633.844 59.168C631.564 57.8518 628.796 58.0061 626.222 58.46C621.194 59.3546 616.364 61.2508 611.979 64.0518C610.515 64.9595 608.9 66.0761 607.217 65.7402C605.77 65.4588 604.693 64.2152 603.785 63.0169C603.795 62.9673 603.809 62.9188 603.827 62.8717C603.786 62.8275 603.749 62.7788 603.717 62.7265C602.653 65.2758 602.119 68.0459 602.152 70.8419C602.152 71.2776 602.152 71.7496 602.203 72.14V72.5938C602.203 72.7209 602.203 72.848 602.203 72.966C602.203 73.1595 602.177 73.3521 602.127 73.5379C601.915 74.0932 601.594 74.592 601.185 74.9994C600.876 75.3779 600.595 75.7815 600.344 76.2067C600.344 76.0615 600.428 75.9163 600.478 75.762C599.837 76.7727 599.475 77.9598 599.435 79.1842C599.388 80.0756 599.659 80.9525 600.192 81.6352C600.696 82.1629 601.245 82.6372 601.833 83.0513C601.633 84.2497 601.531 85.4647 601.53 86.6824C601.549 90.2921 602.431 93.8355 604.09 96.9698C605.75 100.104 608.131 102.723 611.003 104.574C611.121 104.874 611.23 105.183 611.339 105.482C612.626 109.113 613.594 113.38 613.165 117.283C613.165 117.564 613.089 117.855 613.047 118.136C613.005 118.418 612.795 118.436 612.685 118.59C612.685 118.59 596.087 118.772 592.183 114.959C588.28 111.147 582.323 124.282 582.323 124.282C582.323 124.282 576.375 125.526 575.181 124.282C573.986 123.038 567.029 124.109 567.029 124.109C564.178 121.374 560.469 119.913 556.656 120.025C554.345 118.13 551.795 116.602 549.084 115.486V115.486L548.899 115.413C547.702 114.942 546.423 114.769 545.155 114.905C545.155 114.905 536.995 107.643 534.614 103.721C532.233 99.7996 520.901 85.3207 520.85 85.2572V84.5582L520.724 82.4522C520.387 82.5092 520.047 82.5395 519.706 82.543C519.647 82.3342 519.563 82.0891 519.479 81.8077C518.826 79.7534 518.021 77.759 517.073 75.8436C517.073 75.8436 517.073 73.1839 517.788 72.5122C518.503 71.8404 517.494 62.0819 517.494 62.0819C517.494 62.0819 510.141 43.5363 503.553 57.3797C503.553 57.3797 491.102 66.3394 501.551 76.7786C501.551 76.7786 505.758 78.9573 506.313 80.682C506.7 81.7986 508.113 84.9304 509.064 87.0364L509.493 87.9442L509.375 88.0531L509.527 89.796L509.594 90.4677C507.625 91.6751 506.288 92.8733 506.616 93.772C507.195 95.3099 507.594 96.9201 507.802 98.565C507.802 98.565 522.255 118.1 524.123 126.442C524.123 126.442 562.881 151.297 575.627 153.067L573.372 165.458C573.043 168.82 572.875 172.199 572.867 175.58C573.035 178.239 571.336 190.313 571.336 190.313C571.336 190.313 569.123 208.069 567.256 210.556C565.388 213.043 565.725 223.691 565.725 223.691C565.284 228.789 564.439 233.836 563.201 238.778C561.333 245.523 562.688 253.874 562.688 253.874C562.688 253.874 556.235 269.851 571.698 259.021C571.698 259.021 579.269 258.513 588.036 258.186C588.036 258.495 588.036 258.813 588.036 259.094C588.036 260.31 588.036 261.627 587.977 263.007C587.859 272.157 587.808 284.793 588.195 294.306C588.877 311.173 593.639 344.551 593.639 344.551V361.354C593.331 362.93 593.179 364.536 593.184 366.147C593.084 372.059 594.542 377.88 597.391 382.931L598.585 394.115C598.585 394.115 601.378 401.486 601.429 405.916C601.418 406.273 601.379 406.628 601.311 406.978C601.202 407.542 601.157 408.118 601.177 408.694C601.017 413.777 603.852 425.941 603.852 425.941C603.852 425.941 604.02 438.187 605.72 438.904C607.175 439.512 603.776 445.957 602.767 447.809C602.74 447.696 602.72 447.581 602.708 447.464L602.497 447.827C602.147 448.819 601.967 449.871 601.967 450.932C601.872 451.768 601.998 452.616 602.331 453.378C602.665 454.14 603.192 454.784 603.852 455.235C607.082 457.368 608.815 459.138 606.073 459.846C605.064 460.015 604.064 460.242 603.078 460.527C603.078 460.391 602.977 460.246 602.935 460.119C602.548 460.282 602.225 460.584 602.021 460.974C601.817 461.365 601.745 461.819 601.816 462.261C601.842 463.701 602.185 465.114 602.817 466.382C605.534 472.954 607.419 475.46 607.419 475.46L608.723 475.305C608.531 475.843 608.276 476.352 607.966 476.821C607.469 477.583 606.812 478.205 606.048 478.637C605.335 479.097 604.541 479.391 603.717 479.499C602.796 479.532 601.891 479.773 601.062 480.208C600.233 480.643 599.498 481.261 598.905 482.023C597.222 484.392 596.146 487.615 599.494 490.447L611.651 494.986C611.651 494.986 632.565 497.918 631.455 492.853C630.344 487.787 629.671 483.357 629.671 483.357C629.761 480.265 629.185 477.192 627.988 474.38C627.769 473.921 627.522 473.478 627.248 473.054L627.988 472.972C627.988 472.972 629.52 461.78 631.555 459.656C632.027 459.165 632.136 458.748 632.027 458.494C632.237 457.885 631.699 457.531 631.017 457.323L630.866 457.767C630.199 457.611 629.52 457.529 628.838 457.522C628.838 457.522 628.157 451.667 630.369 449.534C630.548 449.291 630.678 449.011 630.752 448.711C630.826 448.411 630.842 448.098 630.798 447.791C630.815 446.988 630.736 446.185 630.563 445.404C630.541 445.454 630.515 445.502 630.487 445.549C629.377 440.229 625.608 431.778 625.608 431.778C625.608 431.778 625.439 426.459 626.802 424.325C628.165 422.192 626.626 395.386 626.626 395.386C626.626 395.386 627.139 382.432 625.608 376.395C624.076 370.359 627.475 363.251 627.475 363.251C627.475 363.251 627.475 363.115 627.475 362.87V362.779L627.282 360.736C627.277 360.779 627.277 360.821 627.282 360.864C626.937 357.432 626.289 351.214 625.81 348.345C625.128 344.261 625.986 324.744 625.986 324.744L629.04 316.392L634.483 330.78L640.263 349.952C640.263 349.952 643.123 354.001 643.191 358.122C643.191 358.322 643.191 358.522 643.191 358.721C643.144 359.146 643.121 359.573 643.123 360.001C643.021 362.423 643.637 364.818 644.881 366.837C644.881 366.837 646.413 375.914 648.794 378.193C651.174 380.471 651.174 384.938 651.174 384.938C651.174 384.938 654.06 398.082 655.381 400.37C656.525 402.312 656.584 407.632 656.575 409.293C656.575 409.592 656.575 409.765 656.575 409.765C656.575 409.765 656.979 414.467 656.962 418.407C656.962 418.897 656.962 419.369 656.962 419.814C656.966 419.781 656.966 419.747 656.962 419.714C656.962 420.79 656.843 421.863 656.609 422.909L656.559 423.091C656.559 422.864 656.559 422.646 656.617 422.428C656.026 425.104 655.743 427.848 655.776 430.598C655.7 435.318 656.365 440.91 659.015 444.215C663.609 449.897 666.494 449.189 666.494 449.189C666.494 449.189 664.29 456.288 661.564 457.713C661.461 457.765 661.365 457.833 661.278 457.913C661.278 457.767 661.228 457.631 661.211 457.495C660.907 457.849 660.675 458.268 660.53 458.724C660.385 459.181 660.331 459.665 660.37 460.146C660.176 463.268 662.002 468.316 663.735 470.667C664.378 471.347 665.167 471.846 666.032 472.119C665.895 472.224 665.751 472.318 665.602 472.401C665.3 472.58 664.988 472.74 664.669 472.882C664.226 473.085 663.758 473.216 663.28 473.272C662.358 473.299 661.452 473.538 660.622 473.973C659.792 474.408 659.058 475.029 658.468 475.796C656.786 478.156 655.709 481.378 659.057 484.211L671.214 488.749C671.214 488.749 691.994 491.627 690.9 486.571Z" fill="url(#paint0_linear)"/>
<path d="M611.053 494.959L599.275 490.42C596.028 487.588 597.063 484.365 598.703 481.996C599.268 481.24 599.976 480.624 600.78 480.189C601.584 479.753 602.465 479.509 603.364 479.472C604.162 479.363 604.928 479.068 605.61 478.61C606.357 478.172 606.997 477.55 607.478 476.794C608.337 475.323 608.8 473.623 608.816 471.883C608.816 471.883 621.738 467.798 625.271 471.883C625.902 472.623 626.429 473.458 626.836 474.362C628.01 477.182 628.585 480.249 628.519 483.339C628.519 483.339 629.175 487.769 630.243 492.835C631.312 497.9 611.053 494.959 611.053 494.959Z" fill="#2D293D"/>
<path d="M668.631 488.695L656.853 484.156C653.606 481.324 654.64 478.102 656.281 475.741C656.841 474.983 657.547 474.364 658.351 473.929C659.154 473.493 660.035 473.251 660.933 473.218C661.398 473.166 661.853 473.034 662.279 472.827C662.59 472.686 662.894 472.525 663.188 472.346C666.477 470.395 666.393 465.602 666.393 465.602C666.393 465.602 679.307 461.517 682.849 465.602C683.323 466.155 683.738 466.764 684.086 467.417C686.298 471.548 686.054 477.058 686.054 477.058C686.054 477.058 686.71 481.497 687.737 486.553C688.763 491.609 668.631 488.695 668.631 488.695Z" fill="#2D293D"/>
<path opacity="0.1" d="M625.28 471.874C625.91 472.613 626.437 473.448 626.844 474.352L607.495 476.776C608.354 475.305 608.817 473.604 608.832 471.865C608.832 471.865 621.746 467.789 625.28 471.874Z" fill="black"/>
<path opacity="0.1" d="M684.103 467.435V471.348C681.091 476.694 666.528 475.523 662.296 472.846C662.607 472.704 662.911 472.543 663.205 472.364C666.494 470.413 666.41 465.62 666.41 465.62C666.41 465.62 679.324 461.535 682.866 465.62C683.34 466.173 683.755 466.782 684.103 467.435V467.435Z" fill="black"/>
<path d="M686.399 450.569C685.499 452.274 684.731 454.056 684.103 455.898V469.923C680.805 475.778 663.701 473.826 661.388 470.631C659.074 467.435 656.66 459.12 659.259 457.677C661.859 456.233 664.029 449.153 664.029 449.153C664.029 449.153 661.228 449.861 656.786 444.178C652.344 438.496 653.665 425.896 654.489 422.882C655.314 419.868 654.489 409.747 654.489 409.747C654.489 409.747 654.657 402.639 653.345 400.333C652.033 398.028 649.231 384.901 649.231 384.901C649.231 384.901 649.231 380.462 646.926 378.157C644.621 375.851 643.14 366.791 643.14 366.791C641.792 364.528 641.213 361.83 641.5 359.157C641.988 354.718 638.698 349.925 638.698 349.925L633.104 330.744L627.837 316.365L624.876 324.707C624.876 324.707 624.035 344.234 624.716 348.309C625.397 352.385 626.399 363.224 626.399 363.224C626.399 363.224 623.109 370.323 624.59 376.359C626.07 382.396 625.532 395.368 625.532 395.368C625.532 395.368 627.013 422.165 625.692 424.298C624.371 426.432 624.539 431.76 624.539 431.76C624.539 431.76 631.27 447.374 629.15 449.507C627.029 451.64 627.669 457.495 627.669 457.495C627.669 457.495 632.271 457.495 630.302 459.629C628.333 461.762 626.844 472.945 626.844 472.945L606.948 475.46C606.948 475.46 605.131 472.982 602.497 466.382C599.864 459.783 602.985 460.527 605.635 459.81C608.286 459.093 606.611 457.332 603.482 455.199C600.352 453.065 602.169 448.272 602.169 448.272C602.169 448.272 606.94 439.576 605.291 438.868C603.642 438.16 603.482 425.905 603.482 425.905C603.482 425.905 600.192 411.381 601.017 407.441C601.841 403.501 598.384 394.133 598.384 394.133L597.231 382.95C593.711 376.603 592.427 369.101 593.613 361.817V344.569C593.613 344.569 589.003 311.2 588.347 294.334C587.926 283.531 588.044 268.789 588.179 259.594C588.263 254.437 588.347 251.015 588.347 251.015L659.419 243.027C659.419 243.027 659.352 246.567 660.706 254.419C661.438 258.631 662.574 264.087 664.358 270.904C669.456 290.43 666.335 304.982 666.335 304.982L665.67 329.664C665.67 329.664 671.921 346.167 670.608 351.85C669.815 355.224 669.369 358.682 669.279 362.162C669.279 362.162 683.261 398.2 681.781 408.676C680.3 419.151 686.382 435.664 686.382 435.664C686.382 435.664 688.048 447.374 686.399 450.569Z" fill="#464353"/>
<path opacity="0.05" d="M645.765 358.086L667.403 354.972C667.403 354.972 655.145 368.471 645.765 358.086Z" fill="black"/>
<path opacity="0.1" d="M664.273 332.16C664.273 332.16 665.014 340.421 660.328 343.525C660.328 343.525 668.715 342.109 664.273 332.16Z" fill="black"/>
<path opacity="0.1" d="M662.944 305.889C662.944 305.889 644.856 321.957 638.278 320.622C631.699 319.288 662.944 305.889 662.944 305.889Z" fill="black"/>
<path opacity="0.1" d="M618.945 365.62C618.945 365.62 605.206 368.988 604.794 374.943C604.382 380.898 618.945 365.62 618.945 365.62Z" fill="black"/>
<path opacity="0.05" d="M621.965 439.658C621.965 439.658 602.556 443.561 608.067 446.221C613.577 448.881 622.629 451.014 622.629 451.014C622.629 451.014 628.897 451.368 621.965 439.658Z" fill="black"/>
<g opacity="0.05">
<path opacity="0.05" d="M604.146 450.451C603.658 450.122 603.245 449.679 602.938 449.154C602.631 448.629 602.437 448.036 602.371 447.419L602.169 447.791C602.169 447.791 600.361 452.584 603.49 454.709C603.844 454.954 604.188 455.199 604.5 455.435C605.08 455.317 605.703 455.226 606.3 455.063C608.95 454.355 607.276 452.584 604.146 450.451Z" fill="black"/>
<path opacity="0.05" d="M629.15 449.026C629.688 448.499 629.671 447.138 629.343 445.395C628.502 446.765 628.258 448.908 628.241 450.533C628.445 449.969 628.754 449.456 629.15 449.026V449.026Z" fill="black"/>
<path opacity="0.05" d="M626.163 360.709C625.448 362.809 625.007 365.006 624.851 367.236C625.226 365.695 625.73 364.194 626.356 362.752L626.163 360.709Z" fill="black"/>
<path opacity="0.05" d="M670.617 351.396C670.746 350.758 670.805 350.106 670.793 349.453C670.549 350.778 670.381 352.004 670.255 353.084C670.364 352.53 670.482 352.004 670.617 351.396Z" fill="black"/>
<path opacity="0.05" d="M625.701 423.826C625.97 423.39 626.121 421.92 626.188 419.877C625.58 421.458 625.257 423.15 625.238 424.861C625.353 424.497 625.508 424.15 625.701 423.826V423.826Z" fill="black"/>
<path opacity="0.05" d="M629.739 457.305C628.718 460.865 627.962 464.508 627.476 468.198L607.579 470.676C607.579 470.676 605.762 468.198 603.129 461.598C602.916 461.089 602.728 460.568 602.565 460.037C601.37 460.627 600.882 461.962 602.464 465.856C605.097 472.428 606.923 474.933 606.923 474.933L626.819 472.446C626.819 472.446 628.3 461.263 630.269 459.129C631.278 458.104 630.656 457.568 629.739 457.305Z" fill="black"/>
<path opacity="0.05" d="M603.49 425.424C603.49 425.424 603.65 437.67 605.299 438.378C606.14 436.353 606.687 434.429 605.947 434.111C604.264 433.403 604.138 421.148 604.138 421.148C604.138 421.148 600.849 406.624 601.673 402.684C602.498 398.745 599.04 389.377 599.04 389.377L597.887 378.193C594.367 371.847 593.083 364.345 594.27 357.06V339.813C594.27 339.813 589.66 306.443 589.003 289.577C588.583 278.775 588.7 264.032 588.835 254.837C588.835 253.176 588.885 251.705 588.911 250.461L588.347 250.525C588.347 250.525 588.255 253.938 588.179 259.103C588.044 268.299 587.918 283.041 588.347 293.834C589.003 310.701 593.605 344.079 593.605 344.079V361.327C592.424 368.609 593.711 376.107 597.231 382.45L598.375 393.634C598.375 393.634 601.833 403.039 601.009 406.951C600.184 410.863 603.49 425.424 603.49 425.424Z" fill="black"/>
<path opacity="0.05" d="M662.061 465.892C660.445 463.367 659.367 460.487 658.906 457.459C656.879 459.438 659.209 467.118 661.43 470.168C663.727 473.363 680.839 475.315 684.145 469.451V466.074C679.661 470.821 664.231 468.915 662.061 465.892Z" fill="black"/>
<path opacity="0.05" d="M687.064 445.83C686.162 447.536 685.391 449.318 684.759 451.159V453.674C685.137 452.766 685.667 451.549 686.441 450.115C686.962 448.717 687.208 447.218 687.165 445.712C687.165 445.712 687.089 445.794 687.064 445.83Z" fill="black"/>
<path opacity="0.05" d="M663.07 448.636C663.696 447.268 664.238 445.858 664.694 444.414C664.694 444.414 661.893 445.123 657.451 439.44C654.22 435.31 654.035 427.503 654.498 422.401C653.656 425.424 652.352 438.024 656.794 443.706C659.697 447.419 661.893 448.4 663.07 448.636Z" fill="black"/>
<path opacity="0.05" d="M654.489 409.266C654.779 412.763 654.889 416.276 654.817 419.787C654.9 419.232 655.012 418.684 655.154 418.144C655.995 415.121 655.154 405.008 655.154 405.008C655.154 405.008 655.322 397.901 654.001 395.595C652.68 393.289 649.929 380.145 649.929 380.145C649.929 380.145 649.929 375.706 647.624 373.4C645.319 371.094 643.839 362.035 643.839 362.035C642.479 359.775 641.884 357.078 642.156 354.4C642.652 349.961 639.363 345.168 639.363 345.168L633.768 325.996L628.502 311.617L625.532 319.969C625.532 319.969 625.532 321.022 625.431 322.692L627.837 315.911L633.104 330.263L638.698 349.435C638.698 349.435 641.988 354.228 641.491 358.667C641.22 361.345 641.814 364.042 643.174 366.301C643.174 366.301 644.655 375.379 646.96 377.666C649.265 379.954 649.256 384.411 649.256 384.411C649.256 384.411 652.058 397.546 653.37 399.843C654.683 402.14 654.489 409.266 654.489 409.266Z" fill="black"/>
</g>
<path d="M668.303 82.6519L667.067 89.1334L667.142 92.0201L667.193 94.1442L660.328 94.9068L659.562 93.3726C658.14 90.5949 655.188 84.9486 654.237 84.0771C652.967 82.9334 650.703 64.9051 653.396 65.9763C655.053 66.6669 656.414 67.9963 657.215 69.7072C657.215 69.7072 670.735 71.3775 668.303 82.6519Z" fill="#FFCDD3"/>
<path opacity="0.1" d="M667.193 94.1442L660.328 94.9067L659.562 93.3726C660.485 92.2383 661.745 91.4846 663.125 91.2396C664.506 90.9946 665.922 91.2736 667.134 92.0291L667.193 94.1442Z" fill="black"/>
<path d="M668.926 97.6572L659.873 99.9175L659.68 98.4651L659.167 94.5526C659.167 94.5526 662.751 89.3965 667.933 93.2636L668.387 95.2516L668.926 97.6572Z" fill="#6C63FF"/>
<path d="M522.289 83.3599L512.623 88.9517L511.781 86.991C510.864 84.9122 509.493 81.7804 509.114 80.6366C508.542 78.9119 504.513 76.7332 504.513 76.7332C494.417 66.303 506.448 57.3343 506.448 57.3343C512.825 43.4909 519.908 62.0365 519.908 62.0365C519.908 62.0365 520.901 71.8132 520.203 72.4667C519.504 73.1203 519.504 75.7982 519.504 75.7982C520.426 77.7168 521.205 79.7111 521.835 81.7623C522.129 82.7517 522.289 83.3599 522.289 83.3599Z" fill="#FFCDD3"/>
<path opacity="0.1" d="M522.289 83.3601L512.623 88.9519L511.781 86.9912C513.144 85.7566 517.982 81.5446 519.572 81.7171C520.331 81.8193 521.097 81.8406 521.86 81.7806C522.129 82.7519 522.289 83.3601 522.289 83.3601Z" fill="black"/>
<path d="M523.273 86.5101L512.412 92.2835L512.193 89.7689L512.042 88.026C512.042 88.026 518.335 82.2073 520.194 82.4342C521.134 82.5812 522.089 82.5812 523.029 82.4342L523.155 84.5402L523.273 86.5101Z" fill="#6C63FF"/>
<path d="M641.979 125.707C641.979 125.707 594.631 131.472 603.482 128.367C609.64 126.198 612.088 122.013 612.601 117.292C613.022 113.362 612.08 109.122 610.843 105.491C609.73 102.27 608.321 99.1774 606.637 96.2595C606.637 96.2595 642.812 74.7817 635.585 94.3078C634.471 97.2612 633.779 100.38 633.533 103.558C633.315 106.716 633.632 109.89 634.466 112.926C635.831 117.852 638.431 122.275 641.979 125.707V125.707Z" fill="#FFCDD3"/>
<path opacity="0.1" d="M635.56 94.2804C634.446 97.2338 633.754 100.353 633.507 103.531C630.1 106.626 626.365 106.417 621.561 106.417C617.876 106.417 613.788 107.379 610.843 105.464C609.73 102.243 608.321 99.1501 606.637 96.2321C606.637 96.2321 642.804 74.7544 635.56 94.2804Z" fill="black"/>
<path d="M620.922 107.779C631.734 107.779 640.499 98.3215 640.499 86.6552C640.499 74.9889 631.734 65.5315 620.922 65.5315C610.11 65.5315 601.345 74.9889 601.345 86.6552C601.345 98.3215 610.11 107.779 620.922 107.779Z" fill="#FFCDD3"/>
<path opacity="0.1" d="M641.979 125.707C641.979 125.707 594.631 131.472 603.482 128.367C609.64 126.197 612.088 122.013 612.601 117.292C614.957 114.569 619.693 112.545 622.697 111.492C625.474 110.484 628.472 110.43 631.278 111.337C632.382 111.696 633.432 112.222 634.399 112.899C635.779 117.843 638.403 122.277 641.979 125.707V125.707Z" fill="black"/>
<path opacity="0.1" d="M668.926 97.6574L659.873 99.9178L659.68 98.4653C660.649 97.0288 662.005 95.9495 663.563 95.3745C665.121 94.7994 666.806 94.7566 668.387 95.2519L668.926 97.6574Z" fill="black"/>
<path opacity="0.1" d="M523.273 86.5099L512.412 92.2833L512.193 89.7688C515.711 87.7278 519.367 85.9769 523.13 84.531L523.273 86.5099Z" fill="black"/>
<path opacity="0.1" d="M660.706 254.437C642.358 257.596 616.278 261.627 612.139 260.265C608.698 259.14 597.727 259.258 588.179 259.612C588.263 254.456 588.347 251.033 588.347 251.033L659.419 243.045C659.419 243.045 659.352 246.585 660.706 254.437Z" fill="black"/>
<path d="M678.996 249.79C678.996 249.79 618.617 260.973 612.139 258.867C605.661 256.761 572.388 259.04 572.388 259.04C557.413 269.869 563.664 253.893 563.664 253.893C563.664 253.893 562.351 245.55 564.16 238.806C565.375 233.854 566.205 228.801 566.642 223.7C566.642 223.7 566.314 213.043 568.122 210.556C569.931 208.069 572.076 190.322 572.076 190.322C572.076 190.322 573.717 178.249 573.557 175.589C573.397 172.929 574.045 165.467 574.045 165.467L576.19 153.04C563.849 151.27 526.336 126.415 526.336 126.415C524.527 118.073 510.545 98.5469 510.545 98.5469C510.341 96.9049 509.954 95.2956 509.392 93.7539C508.408 90.9126 523.214 85.23 523.214 85.23C523.214 85.23 534.235 99.7542 536.54 103.694C538.845 107.634 546.737 114.878 546.737 114.878C547.963 114.742 549.201 114.916 550.354 115.386L550.548 115.449C553.192 116.57 555.672 118.099 557.909 119.988C561.619 119.893 565.218 121.358 567.946 124.073C567.946 124.073 574.676 123.002 575.845 124.246C577.015 125.489 582.752 124.246 582.752 124.246C582.752 124.246 588.507 111.11 592.293 114.923C596.078 118.736 612.139 118.554 612.139 118.554C614.275 115.486 619.483 113.289 622.739 112.2C625.516 111.196 628.513 111.142 631.32 112.045C632.531 112.435 633.67 113.05 634.685 113.861L644.452 124.155C644.452 124.155 647.246 120.242 646.917 119.362C646.589 118.481 650.207 117.764 650.207 117.764C650.207 117.764 654.977 116.167 656.786 115.631C658.595 115.095 660.252 117.211 660.403 117.401C660.344 117.174 659.108 112.862 659.562 109.594C660.016 106.326 657.585 103.24 657.585 103.24C663.339 87.9714 676.337 100.753 676.337 100.753C676.337 100.753 677.818 109.095 676.506 112.29C675.193 115.486 677.818 122.23 677.49 124.01C677.162 125.789 678.155 128.803 678.155 132.18C678.155 135.556 676.472 141.938 675.521 144.779C674.571 147.621 666.637 154.011 666.637 154.011C666.637 154.011 666.141 164.133 662.683 169.988C659.225 175.843 661.396 195.868 661.396 195.868C661.396 195.868 664.685 211.491 668.799 216.466C672.913 221.44 678.996 249.79 678.996 249.79Z" fill="#3F3D56"/>
<path opacity="0.1" d="M590.98 132.978C590.98 132.978 589.171 127.123 587.523 126.624C585.885 125.974 584.292 125.204 582.752 124.318L583.812 122.131C583.812 122.131 589.987 123.946 590.98 125.916C591.973 127.886 590.98 132.978 590.98 132.978Z" fill="black"/>
<path opacity="0.1" d="M557.909 120.025C557.581 121.84 542.934 123.392 542.934 123.392L550.337 115.386L550.523 115.459C553.177 116.585 555.666 118.123 557.909 120.025V120.025Z" fill="black"/>
<path d="M515.542 97.0764C516.267 97.0764 516.854 96.4423 516.854 95.6603C516.854 94.8782 516.267 94.2441 515.542 94.2441C514.817 94.2441 514.229 94.8782 514.229 95.6603C514.229 96.4423 514.817 97.0764 515.542 97.0764Z" fill="#575988"/>
<path d="M517.225 99.9177C517.949 99.9177 518.537 99.2837 518.537 98.5016C518.537 97.7195 517.949 97.0854 517.225 97.0854C516.5 97.0854 515.912 97.7195 515.912 98.5016C515.912 99.2837 516.5 99.9177 517.225 99.9177Z" fill="#575988"/>
<path d="M518.873 102.541C519.598 102.541 520.186 101.907 520.186 101.125C520.186 100.343 519.598 99.7087 518.873 99.7087C518.149 99.7087 517.561 100.343 517.561 101.125C517.561 101.907 518.149 102.541 518.873 102.541Z" fill="#575988"/>
<path d="M520.598 105.373C521.323 105.373 521.91 104.739 521.91 103.957C521.91 103.175 521.323 102.541 520.598 102.541C519.873 102.541 519.286 103.175 519.286 103.957C519.286 104.739 519.873 105.373 520.598 105.373Z" fill="#575988"/>
<path d="M675.681 104.956C676.271 104.956 676.75 104.439 676.75 103.803C676.75 103.166 676.271 102.65 675.681 102.65C675.091 102.65 674.613 103.166 674.613 103.803C674.613 104.439 675.091 104.956 675.681 104.956Z" fill="#575988"/>
<path d="M675.849 107.579C676.439 107.579 676.918 107.063 676.918 106.426C676.918 105.79 676.439 105.273 675.849 105.273C675.259 105.273 674.781 105.79 674.781 106.426C674.781 107.063 675.259 107.579 675.849 107.579Z" fill="#575988"/>
<path d="M675.993 110.193C676.583 110.193 677.061 109.677 677.061 109.041C677.061 108.404 676.583 107.888 675.993 107.888C675.402 107.888 674.924 108.404 674.924 109.041C674.924 109.677 675.402 110.193 675.993 110.193Z" fill="#575988"/>
<path opacity="0.1" d="M591.039 181.09C590.879 180.881 627.972 231.416 656.761 202.214C656.786 202.223 611.297 208.877 591.039 181.09Z" fill="black"/>
<path opacity="0.1" d="M569.754 207.361C569.754 207.361 591.948 208.014 594.27 214.904V222.075C593.638 222.454 592.927 222.652 592.204 222.652C591.481 222.652 590.771 222.454 590.139 222.075C587.901 220.768 574.482 213.415 569.754 216.956V207.361Z" fill="black"/>
<path d="M570.167 207.361C570.167 207.361 591.393 207.987 593.614 214.559V221.386C593.009 221.748 592.328 221.938 591.637 221.938C590.945 221.938 590.264 221.748 589.659 221.386C587.523 220.151 574.693 213.134 570.167 216.511V207.361Z" fill="#3F3D56"/>
<path opacity="0.1" d="M581.869 155.364C584.137 161.027 587.026 166.376 590.476 171.295C594.227 176.733 598.773 181.476 603.936 185.338C603.936 185.338 582.239 158.65 581.869 155.364Z" fill="black"/>
<path opacity="0.1" d="M574.609 127.541C574.609 127.541 578.31 144.789 587.851 150.644L574.609 127.541Z" fill="black"/>
<path opacity="0.1" d="M568.93 129.284C568.838 128.966 565.641 142.9 581.23 150.644C581.23 150.644 574.609 148.22 568.93 129.284Z" fill="black"/>
<path opacity="0.1" d="M665.838 117.719C665.594 117.719 673.527 123.166 675.69 125.707C675.69 125.707 670.524 117.356 665.838 117.719Z" fill="black"/>
<path d="M615.63 105.8C615.633 106.261 615.724 106.716 615.899 107.137C616.073 107.557 616.326 107.935 616.643 108.244C616.959 108.554 617.331 108.789 617.736 108.936C618.141 109.082 618.57 109.137 618.995 109.095C624.96 109.495 631.177 109.776 636.662 107.28C637.691 106.883 638.615 106.223 639.354 105.355C640.33 104.057 640.524 102.296 640.919 100.68C641.693 97.5212 643.342 94.7162 644.528 91.7115C646.535 86.635 647.208 81.0602 646.472 75.5986C646.316 73.9245 645.804 72.3119 644.974 70.8874C643.393 68.4455 640.507 67.456 638.412 65.5134C636.317 63.5708 634.971 60.6024 632.523 59.159C630.319 57.8337 627.618 57.9971 625.137 58.451C620.255 59.3454 615.577 61.2405 611.356 64.0337C609.935 64.9415 608.378 66.0581 606.746 65.7222C605.316 65.4317 604.273 64.1336 603.381 62.9172C602.234 65.8222 601.752 68.9826 601.976 72.131C602.038 72.593 602.024 73.0632 601.934 73.5199C601.728 74.072 601.416 74.5703 601.017 74.9814C599.545 76.7969 598.628 79.7471 600.083 81.6171C600.714 82.425 601.69 82.8698 602.304 83.6959C603.406 85.1756 603.036 87.327 603.011 89.2151C602.95 89.8744 603.105 90.5359 603.448 91.0851C603.766 91.4052 604.156 91.6311 604.579 91.7409C605.002 91.8506 605.444 91.8405 605.863 91.7115C606.696 91.4406 607.571 91.3511 608.437 91.4482C609.349 91.7683 610.137 92.4071 610.675 93.2638C613.392 97.0854 614.469 101.243 615.63 105.8Z" fill="#2D293D"/>
<g opacity="0.1">
<path opacity="0.1" d="M640.053 103.749C639.313 104.616 638.389 105.277 637.36 105.673C631.842 108.151 625.633 107.87 619.693 107.489C619.056 107.495 618.425 107.343 617.851 107.044C616.942 106.472 616.597 105.274 616.32 104.184C615.159 99.6455 614.09 95.4788 611.331 91.6934C610.799 90.8203 610.011 90.165 609.093 89.8325C608.227 89.7444 607.354 89.8337 606.519 90.0958C606.101 90.226 605.659 90.2376 605.236 90.1294C604.813 90.0213 604.423 89.797 604.104 89.4785C603.761 88.9293 603.606 88.2678 603.667 87.6085C603.667 85.7022 604.062 83.5689 602.96 82.0893C602.346 81.2632 601.37 80.8184 600.739 80.0014C600.328 79.3991 600.075 78.6877 600.008 77.9428C599.942 77.1979 600.063 76.4474 600.361 75.7712C599.309 77.5868 598.863 79.8653 600.083 81.4266C600.714 82.2345 601.69 82.6793 602.304 83.5054C603.406 84.9941 603.036 87.1365 603.011 89.0246C602.946 89.6829 603.098 90.3448 603.44 90.8946C603.759 91.2163 604.15 91.4431 604.575 91.5529C604.999 91.6626 605.443 91.6517 605.863 91.521C606.696 91.2501 607.571 91.1606 608.437 91.2577C609.349 91.5777 610.137 92.2165 610.675 93.0732C613.426 96.8586 614.503 101.016 615.664 105.573C615.8 106.695 616.319 107.721 617.119 108.451C617.696 108.751 618.33 108.9 618.97 108.886C624.935 109.286 631.152 109.576 636.637 107.071C637.667 106.677 638.592 106.016 639.329 105.147C639.7 104.635 639.985 104.058 640.17 103.44C640.179 103.558 640.12 103.658 640.053 103.749Z" fill="black"/>
<path opacity="0.1" d="M601.976 72.9661C602.24 72.6565 602.443 72.292 602.573 71.895C602.649 71.4356 602.649 70.9654 602.573 70.5061C602.409 67.918 602.721 65.3205 603.49 62.8627L603.381 62.7266C602.23 65.6272 601.748 68.7856 601.976 71.9313C602.001 72.2757 602.001 72.6217 601.976 72.9661V72.9661Z" fill="black"/>
</g>
<path opacity="0.1" d="M612.139 118.599C612.139 118.599 636.595 122.103 638.791 118.136Z" fill="black"/>
<path opacity="0.1" d="M659.68 107.679C659.68 107.679 673.275 107.679 676.262 113.198Z" fill="black"/>
<defs>
<linearGradient id="paint0_linear" x1="594.135" y1="495.803" x2="594.135" y2="52.2145" gradientUnits="userSpaceOnUse">
<stop stop-color="#808080" stop-opacity="0.25"/>
<stop offset="0.54" stop-color="#808080" stop-opacity="0.12"/>
<stop offset="1" stop-color="#808080" stop-opacity="0.1"/>
</linearGradient>
</defs>
</svg>
